<?xml version="1.0" encoding="UTF-8" standalone="no"?>
<svg
   xmlns:dc="http://purl.org/dc/elements/1.1/"
   xmlns:cc="http://creativecommons.org/ns#"
   xmlns:rdf="http://www.w3.org/1999/02/22-rdf-syntax-ns#"
   xmlns:svg="http://www.w3.org/2000/svg"
   xmlns="http://www.w3.org/2000/svg"
   xmlns:sodipodi="http://sodipodi.sourceforge.net/DTD/sodipodi-0.dtd"
   xmlns:inkscape="http://www.inkscape.org/namespaces/inkscape"
   viewBox="0 0 666.66669 666.66669"
   height="666.66669"
   width="666.66669"
   xml:space="preserve"
   id="svg10"
   version="1.1"
   sodipodi:docname="no-products-available.svg"
   inkscape:version="1.0 (4035a4fb49, 2020-05-01)"><sodipodi:namedview
     inkscape:document-rotation="0"
     pagecolor="#ffffff"
     bordercolor="#666666"
     borderopacity="1"
     objecttolerance="10"
     gridtolerance="10"
     guidetolerance="10"
     inkscape:pageopacity="0"
     inkscape:pageshadow="2"
     inkscape:window-width="1366"
     inkscape:window-height="706"
     id="namedview2821"
     showgrid="false"
     inkscape:zoom="0.80699998"
     inkscape:cx="333.33334"
     inkscape:cy="333.33334"
     inkscape:window-x="-8"
     inkscape:window-y="-8"
     inkscape:window-maximized="1"
     inkscape:current-layer="g1183" /><metadata
     id="metadata16"><rdf:RDF><cc:Work
         rdf:about=""><dc:format>image/svg+xml</dc:format><dc:type
           rdf:resource="http://purl.org/dc/dcmitype/StillImage" /><dc:title /></cc:Work></rdf:RDF></metadata><defs
     id="defs14"><clipPath
       id="clipPath28"
       clipPathUnits="userSpaceOnUse"><path
         id="path26"
         d="M 0,500 H 500 V 0 H 0 Z" /></clipPath><clipPath
       id="clipPath174"
       clipPathUnits="userSpaceOnUse"><path
         id="path172"
         d="M 0,500 H 500 V 0 H 0 Z" /></clipPath><clipPath
       id="clipPath186"
       clipPathUnits="userSpaceOnUse"><path
         id="path184"
         d="M 0,500 H 500 V 0 H 0 Z" /></clipPath><clipPath
       id="clipPath198"
       clipPathUnits="userSpaceOnUse"><path
         id="path196"
         d="M 0,500 H 500 V 0 H 0 Z" /></clipPath><clipPath
       id="clipPath306"
       clipPathUnits="userSpaceOnUse"><path
         id="path304"
         d="M 64.8979,49.1661 H 89.3266 V 32.8803 H 64.8979 Z" /></clipPath><clipPath
       id="clipPath322"
       clipPathUnits="userSpaceOnUse"><path
         id="path320"
         d="m 85.2991,58.331 h 2.9427 v -2.9464 h -2.9427 z" /></clipPath><clipPath
       id="clipPath362"
       clipPathUnits="userSpaceOnUse"><path
         id="path360"
         d="M 77.1683,79.2228 H 96.3362 V 68.0333 H 77.1683 Z" /></clipPath><clipPath
       id="clipPath382"
       clipPathUnits="userSpaceOnUse"><path
         id="path380"
         d="m 143.726,52.8097 h 2.967 v -2.9526 h -2.967 z" /></clipPath><clipPath
       id="clipPath398"
       clipPathUnits="userSpaceOnUse"><path
         id="path396"
         d="m 138.041,43.5252 h 37.98 v -4.544 h -37.98 z" /></clipPath><clipPath
       id="clipPath430"
       clipPathUnits="userSpaceOnUse"><path
         id="path428"
         d="m 138.825,67.7516 h 18.904 v -4.9167 h -18.904 z" /></clipPath><clipPath
       id="clipPath510"
       clipPathUnits="userSpaceOnUse"><path
         id="path508"
         d="M 0,500 H 500 V 0 H 0 Z" /></clipPath><clipPath
       id="clipPath598"
       clipPathUnits="userSpaceOnUse"><path
         id="path596"
         d="m 453.042,146.181 h 5.539 v -24.714 h -5.539 z" /></clipPath><clipPath
       id="clipPath622"
       clipPathUnits="userSpaceOnUse"><path
         id="path620"
         d="m 432.423,110.255 h 6.208 V 85.784 h -6.208 z" /></clipPath><clipPath
       id="clipPath642"
       clipPathUnits="userSpaceOnUse"><path
         id="path640"
         d="m 464.097,161.581 h 11.904 v -22.017 h -11.904 z" /></clipPath><clipPath
       id="clipPath666"
       clipPathUnits="userSpaceOnUse"><path
         id="path664"
         d="m 442.506,115.762 h 20.121 V 100.91 h -20.121 z" /></clipPath><clipPath
       id="clipPath698"
       clipPathUnits="userSpaceOnUse"><path
         id="path696"
         d="M 0,500 H 500 V 0 H 0 Z" /></clipPath><clipPath
       id="clipPath732"
       clipPathUnits="userSpaceOnUse"><path
         id="path730"
         d="M 231.071,272.208 H 370.963 V 240.769 H 231.071 Z" /></clipPath><clipPath
       id="clipPath758"
       clipPathUnits="userSpaceOnUse"><path
         id="path756"
         d="m 201.967,273.398 h 28.786 v -24.155 h -28.786 z" /></clipPath><clipPath
       id="clipPath776"
       clipPathUnits="userSpaceOnUse"><path
         id="path774"
         d="M 213.892,165.255 H 375.101 V 40.9173 H 213.892 Z" /></clipPath><clipPath
       id="clipPath804"
       clipPathUnits="userSpaceOnUse"><path
         id="path802"
         d="M 0,500 H 500 V 0 H 0 Z" /></clipPath></defs><g
     transform="matrix(1.3333333,0,0,-1.3333333,0,666.66667)"
     id="g18"><g
       transform="translate(-1.8587362,11.152417)"
       id="g1183"><path
         d="M 271.165,40.918 H 167.012 v 80.332 h 104.153 z"
         style="fill:#ececec;fill-opacity:1;fill-rule:nonzero;stroke:none"
         id="path20" /><g
         id="g22"><g
           id="g24"
           clip-path="url(#clipPath28)"><g
             id="g30"
             transform="translate(245.07,41.4841)"><path
               d="m 0,0 c -0.144,0 -0.261,17.906 -0.261,39.99 0,22.091 0.117,39.993 0.261,39.993 0.144,0 0.26,-17.902 0.26,-39.993 C 0.26,17.906 0.144,0 0,0"
               style="fill:#e1e1e1;fill-opacity:1;fill-rule:nonzero;stroke:none"
               id="path32" /></g><path
             d="m 262.334,50.175 h -7.984 v 9.026 h 7.984 z"
             style="fill:#fafafa;fill-opacity:1;fill-rule:nonzero;stroke:none"
             id="path34" /><path
             d="m 198.785,103.902 h 11.831 v 17.141 h -11.831 z"
             style="fill:#e1e1e1;fill-opacity:1;fill-rule:nonzero;stroke:none"
             id="path36" /><path
             d="m 198.785,41.156 h 11.831 v 17.142 h -11.831 z"
             style="fill:#e1e1e1;fill-opacity:1;fill-rule:nonzero;stroke:none"
             id="path38" /><path
             d="M 460.146,40.1 H 328.821 v 101.29 h 131.325 z"
             style="fill:#ececec;fill-opacity:1;fill-rule:nonzero;stroke:none"
             id="path40" /><g
             id="g42"
             transform="translate(427.2438,40.8161)"><path
               d="m 0,0 c -0.145,0 -0.261,22.577 -0.261,50.422 0,27.853 0.116,50.427 0.261,50.427 0.144,0 0.26,-22.574 0.26,-50.427 C 0.26,22.577 0.144,0 0,0"
               style="fill:#e1e1e1;fill-opacity:1;fill-rule:nonzero;stroke:none"
               id="path44" /></g><path
             d="m 449.011,51.775 h -10.068 v 11.381 h 10.068 z"
             style="fill:#fafafa;fill-opacity:1;fill-rule:nonzero;stroke:none"
             id="path46" /><path
             d="m 368.884,119.516 h 14.917 v 21.613 h -14.917 z"
             style="fill:#e1e1e1;fill-opacity:1;fill-rule:nonzero;stroke:none"
             id="path48" /><path
             d="m 368.884,40.402 h 14.917 v 21.613 h -14.917 z"
             style="fill:#e1e1e1;fill-opacity:1;fill-rule:nonzero;stroke:none"
             id="path50" /><g
             id="g52"
             transform="translate(81.4611,138.4108)"><path
               d="m 0,0 c 5.315,2.742 11.574,3.099 17.475,2.123 3.17,-0.523 6.475,-1.472 8.632,-3.853 2.157,-2.381 2.566,-6.572 0.089,-8.619 -1.474,-1.217 -3.53,-1.402 -5.443,-1.38 -4.619,0.054 -9.745,0.868 -13.435,-1.913 -2.106,-1.585 -3.507,-4.221 -6.025,-5.001 -2.462,-0.763 -5.242,0.691 -6.547,2.914 -1.306,2.222 -1.35,5 -0.741,7.506 0,0 0.641,5.46 5.995,8.223"
               style="fill:#ececec;fill-opacity:1;fill-rule:nonzero;stroke:none"
               id="path54" /></g><g
             id="g56"
             transform="translate(69.2838,161.9186)"><path
               d="m 0,0 c 3.25,-4.642 9.567,-3.105 12.496,-0.271 2.929,2.833 4.167,6.939 5.294,10.855 2.574,8.948 5.17,18.334 3.256,27.445 -0.573,2.725 -1.591,5.442 -3.505,7.462 -1.915,2.022 -4.858,3.224 -7.549,2.513 C 6.807,47.162 4.827,44.043 3.396,41.075 -0.809,32.353 -3.036,22.683 -3.069,12.999 -3.084,8.477 -2.551,3.733 0,0"
               style="fill:#ececec;fill-opacity:1;fill-rule:nonzero;stroke:none"
               id="path58" /></g><g
             id="g60"
             transform="translate(60.3585,155.2575)"><path
               d="m 0,0 c 3.529,4.188 4.199,10.297 2.628,15.544 -1.57,5.247 -5.117,9.71 -9.206,13.354 -4.794,4.273 -10.428,7.597 -16.485,9.727 -2.384,0.838 -4.899,1.499 -7.414,1.26 -2.516,-0.24 -5.049,-1.527 -6.222,-3.765 -1.735,-3.308 -0.072,-7.322 1.727,-10.597 3.17,-5.768 6.794,-11.287 10.828,-16.488 3.246,-4.184 6.963,-8.311 11.91,-10.202 4.945,-1.892 10.084,-1.669 12.705,1.761"
               style="fill:#ececec;fill-opacity:1;fill-rule:nonzero;stroke:none"
               id="path62" /></g><g
             id="g64"
             transform="translate(69.0636,91.8952)"><path
               d="m 0,0 c 0.061,-0.004 0.16,0.748 0.294,2.109 0.15,1.536 0.337,3.463 0.56,5.756 0.269,2.423 0.623,5.305 1.295,8.445 0.671,3.13 1.721,6.523 3.069,9.964 1.396,3.422 3.099,6.531 5.089,9.018 1.976,2.498 4.274,4.306 6.434,5.349 2.153,1.063 4.083,1.495 5.418,1.686 1.345,0.139 2.099,0.244 2.1,0.305 0,0.059 -0.755,0.069 -2.137,0.032 -1.37,-0.091 -3.381,-0.438 -5.65,-1.47 C 14.196,40.185 11.758,38.349 9.686,35.799 7.596,33.261 5.832,30.082 4.411,26.601 3.039,23.099 2.004,19.671 1.364,16.472 0.725,13.278 0.432,10.364 0.241,7.922 0.058,5.478 -0.011,3.498 -0.044,2.13 -0.075,0.762 -0.059,0.003 0,0"
               style="fill:#e1e1e1;fill-opacity:1;fill-rule:nonzero;stroke:none"
               id="path66" /></g><g
             id="g68"
             transform="translate(69.4606,96.3239)"><path
               d="M 0,0 C 0.03,0.002 0.048,0.339 0.057,0.979 0.055,1.715 0.052,2.641 0.049,3.778 0.042,6.207 0.043,9.723 0.174,14.063 c 0.215,8.68 0.962,18.023 2.406,31.195 1.367,12.386 3.202,26.8 5.138,36.171 0.415,2.132 0.834,4.05 1.227,5.728 0.376,1.684 0.696,3.135 1.006,4.31 0.265,1.105 0.482,2.006 0.654,2.72 0.14,0.625 0.2,0.958 0.171,0.965 -0.029,0.009 -0.145,-0.307 -0.34,-0.918 C 10.222,93.53 9.954,92.644 9.623,91.553 9.263,90.39 8.894,88.948 8.472,87.271 8.032,85.599 7.571,83.686 7.116,81.558 5.2,73.065 3.172,61.197 1.714,47.994 0.268,34.795 -0.384,22.777 -0.442,14.074 -0.494,9.723 -0.401,6.2 -0.29,3.77 -0.22,2.633 -0.164,1.707 -0.119,0.973 -0.07,0.334 -0.03,-0.001 0,0"
               style="fill:#e1e1e1;fill-opacity:1;fill-rule:nonzero;stroke:none"
               id="path70" /></g><g
             id="g72"
             transform="translate(69.5187,119.5036)"><path
               d="m 0,0 c 0.06,0.003 0.05,1.041 -0.021,2.924 -0.107,1.879 -0.366,4.595 -0.895,7.922 -0.561,3.318 -1.345,7.258 -2.576,11.54 -0.534,1.958 -1.788,6.648 -4.826,13.656 -4.003,9.496 -9.442,17.26 -14.173,22.068 -1.11,1.277 -2.345,2.198 -3.334,3.1 -0.511,0.433 -0.964,0.863 -1.424,1.205 -0.463,0.319 -0.894,0.616 -1.293,0.892 -1.558,1.065 -2.43,1.627 -2.462,1.576 -0.14,-0.191 3.488,-2.325 8.068,-7.198 4.562,-4.863 9.849,-12.573 13.819,-21.989 2.214,-5.107 3.758,-9.663 4.853,-13.53 1.266,-4.24 2.106,-8.141 2.742,-11.427 0.603,-3.292 0.953,-5.98 1.164,-7.843 C -0.185,1.032 -0.06,-0.002 0,0"
               style="fill:#e1e1e1;fill-opacity:1;fill-rule:nonzero;stroke:none"
               id="path74" /></g><g
             id="g76"
             transform="translate(45.5626,82.1364)"><path
               d="M 0,0 2.323,-31.821 H 43.202 L 45.525,0 Z"
               style="fill:#ececec;fill-opacity:1;fill-rule:nonzero;stroke:none"
               id="path78" /></g><path
             d="M 41.614,82.136 H 95.965 V 94.678 H 41.614 Z"
             style="fill:#ececec;fill-opacity:1;fill-rule:nonzero;stroke:none"
             id="path80" /><g
             id="g82"
             transform="translate(41.6139,51.5329)"><path
               d="M 0,0 V -3.477 H 2.554 53.453 V 0 Z"
               style="fill:#e1e1e1;fill-opacity:1;fill-rule:nonzero;stroke:none"
               id="path84" /></g><g
             id="g86"
             transform="translate(46.671,42.3229)"><path
               d="M 0,0 -2.503,6.118 H 46.449 L 43.528,0 Z"
               style="fill:#e1e1e1;fill-opacity:1;fill-rule:nonzero;stroke:none"
               id="path88" /></g><g
             id="g90"
             transform="translate(90.3283,71.736)"><path
               d="m 0,0 c 0.009,-0.007 -0.056,-0.106 -0.19,-0.292 -0.163,-0.215 -0.364,-0.481 -0.611,-0.81 -0.581,-0.743 -1.378,-1.763 -2.382,-3.047 l -0.106,-0.136 -0.102,0.141 c -1.497,2.071 -3.497,4.836 -5.851,8.092 h 0.337 c -1.741,-2.464 -3.679,-5.209 -5.76,-8.156 l -0.181,-0.256 -0.202,0.241 c -2.126,2.53 -4.434,5.276 -6.831,8.127 l 0.394,0.006 C -21.604,3.761 -21.732,3.6 -21.861,3.438 -23.98,0.781 -26.03,-1.789 -27.97,-4.22 l -0.203,-0.256 -0.188,0.266 c -2.074,2.935 -4.012,5.676 -5.763,8.154 l 0.335,-0.015 c -2.84,-3.237 -5.249,-5.981 -7.097,-8.087 l -0.126,-0.144 -0.096,0.162 c -0.936,1.572 -1.682,2.826 -2.223,3.734 -0.232,0.405 -0.42,0.732 -0.57,0.994 -0.126,0.227 -0.185,0.348 -0.174,0.354 0.011,0.007 0.092,-0.1 0.238,-0.315 0.166,-0.251 0.374,-0.566 0.631,-0.956 0.567,-0.893 1.351,-2.123 2.332,-3.666 l -0.221,0.017 c 1.819,2.133 4.189,4.911 6.983,8.186 l 0.176,0.206 0.16,-0.222 c 1.767,-2.467 3.722,-5.197 5.814,-8.118 l -0.391,0.011 c 1.935,2.435 3.98,5.01 6.094,7.67 0.129,0.161 0.257,0.322 0.376,0.472 l 0.194,0.244 0.2,-0.24 c 2.39,-2.857 4.692,-5.609 6.812,-8.143 l -0.383,-0.015 c 2.102,2.932 4.06,5.663 5.818,8.115 l 0.171,0.238 0.166,-0.238 c 2.304,-3.292 4.262,-6.087 5.727,-8.18 l -0.208,0.007 c 1.044,1.251 1.873,2.246 2.477,2.969 0.269,0.312 0.488,0.565 0.664,0.769 C -0.092,-0.076 -0.009,0.008 0,0"
               style="fill:#f5f5f5;fill-opacity:1;fill-rule:nonzero;stroke:none"
               id="path92" /></g><g
             id="g94"
             transform="translate(91.6564,82.3464)"><path
               d="m 0,0 c 0,-0.141 -10.243,-0.255 -22.875,-0.255 -12.638,0 -22.878,0.114 -22.878,0.255 0,0.141 10.24,0.254 22.878,0.254 C -10.243,0.254 0,0.141 0,0"
               style="fill:#f5f5f5;fill-opacity:1;fill-rule:nonzero;stroke:none"
               id="path96" /></g><g
             id="g98"
             transform="translate(378.6432,401.4797)"><path
               d="m 0,0 -8.38,-0.045 -0.224,41.699 8.38,0.045 z"
               style="fill:#e1e1e1;fill-opacity:1;fill-rule:nonzero;stroke:none"
               id="path100" /></g><g
             id="g102"
             transform="translate(319.2643,420.0495)"><path
               d="m 0,0 -21.701,-0.116 -0.124,23.02 21.702,0.117 z"
               style="fill:#ececec;fill-opacity:1;fill-rule:nonzero;stroke:none"
               id="path104" /></g><g
             id="g106"
             transform="translate(340.8629,420.1652)"><path
               d="m 0,0 -21.701,-0.116 -0.124,23.02 21.702,0.117 z"
               style="fill:#f5f5f5;fill-opacity:1;fill-rule:nonzero;stroke:none"
               id="path108" /></g><g
             id="g110"
             transform="translate(297.4733,436.5964)"><path
               d="M 0,0 C 14.422,-0.119 28.88,-0.035 43.301,0.199 43.598,0.204 43.596,0.659 43.298,0.66 28.876,0.74 14.418,0.669 -0.002,0.396 -0.256,0.39 -0.255,0.002 0,0"
               style="fill:#e1e1e1;fill-opacity:1;fill-rule:nonzero;stroke:none"
               id="path112" /></g><g
             id="g114"
             transform="translate(323.4371,401.673)"><path
               d="m 0,0 -39.428,-0.211 -0.1,18.76 39.427,0.211 z"
               style="fill:#ececec;fill-opacity:1;fill-rule:nonzero;stroke:none"
               id="path116" /></g><g
             id="g118"
             transform="translate(362.6793,401.8835)"><path
               d="m 0,0 -39.429,-0.211 -0.1,18.76 39.428,0.211 z"
               style="fill:#f5f5f5;fill-opacity:1;fill-rule:nonzero;stroke:none"
               id="path120" /></g><g
             id="g122"
             transform="translate(283.9371,415.0046)"><path
               d="M 0,0 C 26.192,-0.296 52.478,-0.031 78.67,0.389 78.966,0.394 78.965,0.848 78.667,0.85 52.473,0.988 26.186,0.973 -0.002,0.396 -0.257,0.39 -0.255,0.003 0,0"
               style="fill:#e1e1e1;fill-opacity:1;fill-rule:nonzero;stroke:none"
               id="path124" /></g><path
             d="M 421.949,394.741 H 269.192 v 6.721 h 152.757 z"
             style="fill:#e1e1e1;fill-opacity:1;fill-rule:nonzero;stroke:none"
             id="path126" /><path
             d="m 300.403,375.297 h -6.201 v 22.934 h 6.201 z"
             style="fill:#e1e1e1;fill-opacity:1;fill-rule:nonzero;stroke:none"
             id="path128" /><path
             d="m 392.973,375.297 h -6.201 v 22.934 h 6.201 z"
             style="fill:#e1e1e1;fill-opacity:1;fill-rule:nonzero;stroke:none"
             id="path130" /><g
             id="g132"
             transform="translate(386.9049,401.3776)"><path
               d="m 0,0 -8.38,-0.045 -0.308,57.351 8.38,0.045 z"
               style="fill:#ececec;fill-opacity:1;fill-rule:nonzero;stroke:none"
               id="path134" /></g><g
             id="g136"
             transform="translate(399.941,401.5764)"><path
               d="m 0,0 -13.021,-0.07 -0.25,46.477 13.022,0.07 z"
               style="fill:#f5f5f5;fill-opacity:1;fill-rule:nonzero;stroke:none"
               id="path138" /></g><g
             id="g140"
             transform="translate(399.6041,439.0988)"><path
               d="m 0,0 c 0,-0.125 -2.915,-0.226 -6.511,-0.226 -3.596,0 -6.51,0.101 -6.51,0.226 0,0.125 2.914,0.226 6.51,0.226 C -2.915,0.226 0,0.125 0,0"
               style="fill:#e1e1e1;fill-opacity:1;fill-rule:nonzero;stroke:none"
               id="path142" /></g><g
             id="g144"
             transform="translate(399.6041,441.0515)"><path
               d="m 0,0 c 0,-0.125 -2.915,-0.226 -6.511,-0.226 -3.596,0 -6.51,0.101 -6.51,0.226 0,0.125 2.914,0.226 6.51,0.226 C -2.915,0.226 0,0.125 0,0"
               style="fill:#e1e1e1;fill-opacity:1;fill-rule:nonzero;stroke:none"
               id="path146" /></g><g
             id="g148"
             transform="translate(399.6041,408.569)"><path
               d="m 0,0 c 0,-0.125 -2.915,-0.226 -6.511,-0.226 -3.596,0 -6.51,0.101 -6.51,0.226 0,0.125 2.914,0.226 6.51,0.226 C -2.915,0.226 0,0.125 0,0"
               style="fill:#e1e1e1;fill-opacity:1;fill-rule:nonzero;stroke:none"
               id="path150" /></g><g
             id="g152"
             transform="translate(399.6041,410.5212)"><path
               d="m 0,0 c 0,-0.125 -2.915,-0.226 -6.511,-0.226 -3.596,0 -6.51,0.101 -6.51,0.226 0,0.125 2.914,0.226 6.51,0.226 C -2.915,0.226 0,0.125 0,0"
               style="fill:#e1e1e1;fill-opacity:1;fill-rule:nonzero;stroke:none"
               id="path154" /></g><g
             id="g156"
             transform="translate(393.3033,414.7814)"><path
               d="m 0,0 c -0.125,0 -0.226,4.689 -0.226,10.472 0,5.785 0.101,10.473 0.226,10.473 0.124,0 0.226,-4.688 0.226,-10.473 C 0.226,4.689 0.124,0 0,0"
               style="fill:#e1e1e1;fill-opacity:1;fill-rule:nonzero;stroke:none"
               id="path158" /></g><path
             d="m 413.92,401.559 h -14.175 v 35.08 h 14.175 z"
             style="fill:#ececec;fill-opacity:1;fill-rule:nonzero;stroke:none"
             id="path160" /><g
             id="g162"
             transform="translate(384.693,448.9372)"><path
               d="m 0,0 c 0,-1.331 -1.078,-2.409 -2.409,-2.409 -1.33,0 -2.408,1.078 -2.408,2.409 0,1.33 1.078,2.408 2.408,2.408 C -1.078,2.408 0,1.33 0,0"
               style="fill:#e1e1e1;fill-opacity:1;fill-rule:nonzero;stroke:none"
               id="path164" /></g><path
             d="m 383.029,408.195 h -1.489 v 34.118 h 1.489 z"
             style="fill:#e1e1e1;fill-opacity:1;fill-rule:nonzero;stroke:none"
             id="path166" /></g></g><g
         id="g168"><g
           id="g170"
           clip-path="url(#clipPath174)"><g
             id="g176"
             transform="translate(415.7281,389.0847)"><path
               d="m 0,0 -2.119,3.447 c -17.86,29.061 -50.15,46.58 -84.194,44.454 -4.375,-0.273 -8.733,-0.858 -13.032,-1.767 -30.953,-6.542 -57.885,-29.656 -69.049,-59.258 -6.565,-17.409 -8.4,-37.454 -20.859,-51.272 -16.215,-17.984 -43.745,-18.549 -67.948,-17.804 -24.203,0.745 -51.751,0.11 -67.887,-17.946 -10.106,-11.307 -13.318,-27.388 -12.503,-42.531 2.158,-40.093 30.449,-75.941 66.429,-93.76 35.981,-17.819 78.343,-19.415 117.721,-11.576 55.164,10.981 107.625,41.136 139.157,87.712 C 17.248,-113.725 25.229,-50.271 0,0"
               style="fill:#ececec;fill-opacity:1;fill-rule:nonzero;stroke:none"
               id="path178" /></g></g></g><g
         id="g180"><g
           id="g182"
           clip-path="url(#clipPath186)"><g
             id="g188"
             transform="translate(464.6569,40.6491)"><path
               d="m 0,0 c 0,-0.145 -96.113,-0.261 -214.646,-0.261 -118.576,0 -214.668,0.116 -214.668,0.261 0,0.144 96.092,0.26 214.668,0.26 C -96.113,0.26 0,0.144 0,0"
               style="fill:#1a2e35;fill-opacity:1;fill-rule:nonzero;stroke:none"
               id="path190" /></g></g></g><g
         id="g192"><g
           id="g194"
           clip-path="url(#clipPath198)"><g
             id="g200"
             transform="translate(149.2086,407.6496)"><path
               d="m 0,0 c 4.694,-5.696 7.298,-13.077 7.218,-20.458 -0.046,-4.217 -0.823,-8.869 1.631,-12.3 1.862,-2.604 5.257,-3.908 6.771,-6.729 1.819,-3.393 0.268,-7.679 1.387,-11.362 1.587,-5.223 7.704,-7.406 11.331,-11.485 3.145,-3.537 4.309,-8.713 3.042,-13.274 -1.267,-4.56 -4.903,-8.377 -9.376,-9.924 -2.402,-0.831 -5.148,-1.01 -7.422,0.124 -2.453,1.222 -3.969,3.731 -5.198,6.181 -2.415,4.815 -23.586,30.872 -24.785,36.123"
               style="fill:#1a2e35;fill-opacity:1;fill-rule:nonzero;stroke:none"
               id="path202" /></g><g
             id="g204"
             transform="translate(133.8073,413.7922)"><path
               d="m 0,0 c -8.657,1.394 -16.978,-4.354 -20.625,-12.328 -3.648,-7.974 -3.748,-17.043 -4.017,-25.808 -0.269,-8.765 -0.884,-17.914 -5.359,-25.456 -2.839,-4.787 -7.237,-8.985 -7.927,-14.508 -0.617,-4.944 1.943,-9.924 1.093,-14.835 -0.74,-4.274 -3.998,-7.994 -3.869,-12.33 0.156,-5.217 5.522,-9.148 10.739,-9.288 5.217,-0.14 10.092,2.594 14.182,5.836 6.637,5.259 12.017,12.095 15.569,19.783"
               style="fill:#1a2e35;fill-opacity:1;fill-rule:nonzero;stroke:none"
               id="path206" /></g><g
             id="g208"
             transform="translate(119.5646,393.1467)"><path
               d="m 0,0 c -1.144,9.13 5.461,17.474 14.732,18.357 8.738,0.833 16.504,-5.673 17.813,-14.353 1.148,-7.608 2.135,-15.289 2.1,-18.078 -0.107,-8.412 -5.029,-11.687 -7.024,-12.67 -0.455,-0.224 -1.711,-0.479 -2.214,-0.551 -0.031,-0.004 -0.053,-0.034 -0.046,-0.065 l 1.868,-9.656 c 0.846,-6.327 -2.685,-11.969 -9.001,-12.89 C 11.89,-50.83 6.936,-45.971 5.969,-39.64 Z"
               style="fill:#ffbf9d;fill-opacity:1;fill-rule:nonzero;stroke:none"
               id="path210" /></g><g
             id="g212"
             transform="translate(150.3898,393.466)"><path
               d="m 0,0 c -0.139,-0.197 -1.25,0.399 -2.673,0.187 -1.425,-0.19 -2.363,-1.075 -2.543,-0.923 -0.087,0.066 0.034,0.402 0.441,0.799 0.4,0.395 1.117,0.828 2.004,0.954 0.888,0.124 1.682,-0.094 2.16,-0.366 C -0.125,0.379 0.069,0.089 0,0"
               style="fill:#1a2e35;fill-opacity:1;fill-rule:nonzero;stroke:none"
               id="path214" /></g><g
             id="g216"
             transform="translate(137.7272,390.3898)"><path
               d="m 0,0 c -0.139,-0.197 -1.251,0.399 -2.673,0.187 -1.425,-0.19 -2.363,-1.075 -2.543,-0.923 -0.087,0.066 0.033,0.402 0.442,0.799 0.399,0.396 1.116,0.828 2.003,0.954 0.888,0.124 1.682,-0.094 2.16,-0.366 C -0.125,0.379 0.069,0.089 0,0"
               style="fill:#1a2e35;fill-opacity:1;fill-rule:nonzero;stroke:none"
               id="path218" /></g><g
             id="g220"
             transform="translate(142.9186,382.7565)"><path
               d="M 0,0 C -0.019,0.08 0.844,0.362 2.252,0.754 2.61,0.845 2.943,0.967 2.969,1.225 3.016,1.5 2.807,1.869 2.569,2.267 2.099,3.097 1.606,3.967 1.09,4.878 -0.978,8.603 -2.531,11.687 -2.38,11.769 -2.23,11.851 -0.432,8.898 1.636,5.174 2.137,4.254 2.616,3.378 3.072,2.539 3.27,2.146 3.575,1.712 3.469,1.14 3.411,0.854 3.172,0.618 2.949,0.521 2.726,0.416 2.522,0.382 2.344,0.345 0.912,0.057 0.017,-0.08 0,0"
               style="fill:#1a2e35;fill-opacity:1;fill-rule:nonzero;stroke:none"
               id="path222" /></g><g
             id="g224"
             transform="translate(144.9142,365.8434)"><path
               d="m 0,0 c 0,0 -5.432,-1.252 -12.911,1.878 0,0 3.229,-6.951 13.414,-4.48 z"
               style="fill:#ff9a6c;fill-opacity:1;fill-rule:nonzero;stroke:none"
               id="path226" /></g><g
             id="g228"
             transform="translate(137.0109,394.1198)"><path
               d="m 0,0 c -0.084,-0.407 -1.533,-0.431 -3.174,-0.876 -1.65,-0.412 -2.926,-1.097 -3.198,-0.783 -0.123,0.152 0.059,0.551 0.549,1.005 0.485,0.453 1.295,0.934 2.281,1.192 0.987,0.256 1.929,0.231 2.573,0.072 C -0.319,0.452 0.034,0.193 0,0"
               style="fill:#1a2e35;fill-opacity:1;fill-rule:nonzero;stroke:none"
               id="path230" /></g><g
             id="g232"
             transform="translate(149.2218,396.6213)"><path
               d="m 0,0 c -0.204,-0.36 -1.233,-0.167 -2.416,-0.324 -1.187,-0.114 -2.146,-0.534 -2.425,-0.23 -0.125,0.15 -0.014,0.497 0.377,0.866 0.385,0.368 1.068,0.723 1.883,0.816 0.814,0.093 1.559,-0.098 2.018,-0.37 C -0.098,0.487 0.087,0.174 0,0"
               style="fill:#1a2e35;fill-opacity:1;fill-rule:nonzero;stroke:none"
               id="path234" /></g><g
             id="g236"
             transform="translate(134.6417,388.5515)"><path
               d="m 0,0 c 0.098,-0.618 0.701,-1.045 1.349,-0.955 0.646,0.09 1.092,0.663 0.995,1.281 C 2.246,0.944 1.642,1.372 0.996,1.282 0.348,1.192 -0.098,0.618 0,0"
               style="fill:#1a2e35;fill-opacity:1;fill-rule:nonzero;stroke:none"
               id="path238" /></g><g
             id="g240"
             transform="translate(147.2492,391.279)"><path
               d="m 0,0 c 0.097,-0.618 0.701,-1.045 1.349,-0.955 0.646,0.09 1.092,0.663 0.994,1.281 C 2.246,0.944 1.642,1.372 0.996,1.282 0.348,1.192 -0.098,0.618 0,0"
               style="fill:#1a2e35;fill-opacity:1;fill-rule:nonzero;stroke:none"
               id="path242" /></g><g
             id="g244"
             transform="translate(145.1579,379.9841)"><path
               d="m 0,0 c -0.916,0.265 -1.704,-0.198 -2.076,-0.863 -0.372,-0.664 -0.283,-1.573 0.252,-2.114 0.535,-0.542 1.487,-0.627 2.078,-0.147 0.4,0.326 0.601,0.846 0.653,1.36 0.047,0.475 -0.031,0.983 -0.324,1.359 -0.292,0.377 -0.835,0.579 -1.271,0.385"
               style="fill:#ff9a6c;fill-opacity:1;fill-rule:nonzero;stroke:none"
               id="path246" /></g><g
             id="g248"
             transform="translate(151.0001,403.9567)"><path
               d="m 0,0 c -0.651,3.164 -2.83,5.863 -5.482,7.707 -2.253,1.567 -4.917,2.603 -7.66,2.687 -2.743,0.084 -5.554,-0.838 -7.536,-2.737 -1.465,-1.403 -2.215,-3.39 -2.283,-5.417 l 0.159,1.399 c -0.411,-1.149 -0.41,-2.395 0.017,-3.524 l 0.002,-0.007 -10e-4,0.005 c 0.232,-0.613 0.511,-1.225 0.757,-1.84 0.699,-1.747 2.055,-3.223 3.738,-4.067 0.775,-0.39 1.634,-0.65 2.5,-0.609 0.867,0.041 1.74,0.414 2.267,1.104 0.751,0.985 0.664,2.351 0.541,3.584 0.744,-1.162 1.534,-2.368 2.73,-3.056 1.195,-0.687 2.923,-0.663 3.764,0.43 0.815,1.059 0.493,2.58 0.021,3.829 0.764,-1.165 1.859,-2.111 3.123,-2.698 0.699,-0.325 1.524,-0.539 2.232,-0.233 0.6,0.26 1.005,0.861 1.158,1.497 C 0.2,-1.31 0.132,-0.641 0,0"
               style="fill:#1a2e35;fill-opacity:1;fill-rule:nonzero;stroke:none"
               id="path250" /></g><g
             id="g252"
             transform="translate(143.7746,401.3444)"><path
               d="m 0,0 c -0.09,-0.003 -0.075,1.186 -0.46,3.03 -0.386,1.813 -1.304,4.375 -3.454,6.269 -1.058,0.935 -2.276,1.582 -3.46,1.868 -1.185,0.293 -2.312,0.258 -3.219,0.081 -1.84,-0.374 -2.73,-1.247 -2.785,-1.155 -0.018,0.02 0.173,0.254 0.613,0.573 0.438,0.317 1.142,0.699 2.091,0.941 0.945,0.234 2.14,0.313 3.411,0.027 1.272,-0.28 2.576,-0.957 3.695,-1.945 2.272,-2.004 3.17,-4.721 3.47,-6.59 C 0.055,2.146 0.088,1.367 0.082,0.832 0.075,0.295 0.033,0 0,0"
               style="fill:#375a64;fill-opacity:1;fill-rule:nonzero;stroke:none"
               id="path254" /></g><g
             id="g256"
             transform="translate(235.8742,284.7541)"><path
               d="m 0,0 -38.451,15.243 c 0,0 -19.698,25.831 -19.287,26.332 L -71.564,26.432 -51.468,-0.772 -4.901,-11.673 17.153,-11.851 C 15.447,-3.369 0,0 0,0"
               style="fill:#ffbf9d;fill-opacity:1;fill-rule:nonzero;stroke:none"
               id="path258" /></g><g
             id="g260"
             transform="translate(152.067,358.4416)"><path
               d="m 0,0 -5.235,2.03 -22.621,-2.869 v -3.996 l -0.648,-0.08 c 0,0 -7.026,-1.277 -13.857,-5.378 -8.271,-4.966 -12.57,-14.544 -11.038,-24.07 0.92,-5.72 2.703,-12.673 6.138,-16.691 6.57,-7.685 12.57,1.813 12.57,1.813 0,0 4.123,-9.405 3.886,-13.854 -0.198,-3.725 -1.846,-11.487 -2.376,-13.911 -0.089,-0.409 0.179,-0.803 0.591,-0.879 l 47.718,-8.822 0.233,11.663 -1.517,47.972 -2.106,18.631 c 0,0 0.067,8.901 -11.738,8.441"
               style="fill:#ff4f5b;fill-opacity:1;fill-rule:nonzero;stroke:none"
               id="path262" /></g><g
             id="g264"
             transform="translate(163.0729,353.1003)"><path
               d="M 0,0 18.194,-26.288 3.546,-44.131 Z"
               style="fill:#ff4f5b;fill-opacity:1;fill-rule:nonzero;stroke:none"
               id="path266" /></g><g
             id="g268"
             transform="translate(166.9733,297.78)"><path
               d="m 0,0 c -0.036,0.001 -0.06,0.605 -0.071,1.696 -0.015,1.179 -0.034,2.737 -0.058,4.619 -0.094,3.896 -0.314,9.284 -1.09,15.177 -0.754,5.898 -1.9,11.167 -2.777,14.966 -0.431,1.833 -0.788,3.35 -1.057,4.497 -0.25,1.063 -0.371,1.655 -0.336,1.665 0.035,0.009 0.222,-0.566 0.532,-1.613 0.311,-1.047 0.733,-2.57 1.219,-4.463 0.97,-3.781 2.178,-9.059 2.935,-14.985 C 0.077,15.638 0.239,10.225 0.239,6.319 0.22,4.365 0.192,2.784 0.131,1.693 0.081,0.602 0.036,-0.001 0,0"
               style="fill:#1a2e35;fill-opacity:1;fill-rule:nonzero;stroke:none"
               id="path270" /></g><g
             id="g272"
             transform="translate(122.2033,337.7507)"><path
               d="m 0,0 c -0.003,-0.084 -1.381,-0.067 -3.596,-0.186 -2.215,-0.116 -5.269,-0.419 -8.58,-1.102 -3.312,-0.689 -6.235,-1.623 -8.314,-2.397 -2.08,-0.771 -3.337,-1.334 -3.373,-1.258 -0.016,0.033 0.282,0.207 0.837,0.496 0.551,0.293 1.371,0.674 2.402,1.105 2.059,0.867 4.996,1.868 8.342,2.564 3.346,0.69 6.44,0.938 8.673,0.961 1.117,0.013 2.021,-0.011 2.644,-0.061 C -0.342,0.078 0.001,0.036 0,0"
               style="fill:#fafafa;fill-opacity:1;fill-rule:nonzero;stroke:none"
               id="path274" /></g><g
             id="g276"
             transform="translate(164.3483,325.715)"><path
               d="m 0,0 c 0.01,-0.067 -0.852,-0.276 -2.269,-0.493 -1.415,-0.217 -3.387,-0.426 -5.573,-0.503 -2.187,-0.073 -4.169,0 -5.596,0.121 -1.428,0.12 -2.302,0.269 -2.296,0.336 0.006,0.076 0.89,0.057 2.315,0.032 1.424,-0.026 3.39,-0.041 5.559,0.032 2.169,0.075 4.129,0.225 5.548,0.348 C -0.893,-0.005 -0.012,0.075 0,0"
               style="fill:#fafafa;fill-opacity:1;fill-rule:nonzero;stroke:none"
               id="path278" /></g><g
             id="g280"
             transform="translate(172.7008,337.613)"><path
               d="m 0,0 c 0.092,-0.097 -1.518,-1.706 -3.903,-3.158 -2.38,-1.463 -4.546,-2.163 -4.589,-2.037 -0.058,0.143 1.984,1.046 4.317,2.482 C -1.835,-1.291 -0.101,0.116 0,0"
               style="fill:#fafafa;fill-opacity:1;fill-rule:nonzero;stroke:none"
               id="path282" /></g><g
             id="g284"
             transform="translate(165.3473,349.8019)"><path
               d="m 0,0 c 0.089,-0.088 -2.056,-2.018 -5.299,-3.378 -3.234,-1.383 -6.112,-1.581 -6.113,-1.455 -0.028,0.16 2.755,0.583 5.91,1.935 C -2.336,-1.573 -0.096,0.131 0,0"
               style="fill:#fafafa;fill-opacity:1;fill-rule:nonzero;stroke:none"
               id="path286" /></g><g
             id="g288"
             transform="translate(166.3405,305.364)"><path
               d="m 0,0 c 0.014,-0.033 -0.323,-0.208 -0.945,-0.497 -0.62,-0.294 -1.54,-0.67 -2.693,-1.093 -2.302,-0.847 -5.579,-1.792 -9.289,-2.366 -3.712,-0.566 -7.122,-0.648 -9.573,-0.531 -1.226,0.057 -2.216,0.14 -2.896,0.235 -0.681,0.088 -1.054,0.154 -1.05,0.19 0.008,0.085 1.517,-0.037 3.955,-0.057 2.438,-0.022 5.809,0.117 9.485,0.678 3.673,0.568 6.931,1.447 9.249,2.2 2.32,0.75 3.723,1.32 3.757,1.241"
               style="fill:#fafafa;fill-opacity:1;fill-rule:nonzero;stroke:none"
               id="path290" /></g><g
             id="g292"
             transform="translate(166.7106,291.8058)"><path
               d="m 0,0 c 0.008,-0.017 -0.14,-0.099 -0.426,-0.242 -0.345,-0.163 -0.762,-0.362 -1.267,-0.601 -1.1,-0.522 -2.729,-1.199 -4.769,-1.961 -2.038,-0.772 -4.509,-1.569 -7.288,-2.332 -2.786,-0.737 -5.883,-1.424 -9.168,-1.944 -3.291,-0.5 -6.451,-0.783 -9.33,-0.926 -2.879,-0.114 -5.477,-0.103 -7.652,0.014 -2.175,0.109 -3.933,0.261 -5.139,0.425 -0.553,0.075 -1.011,0.137 -1.389,0.189 -0.317,0.048 -0.482,0.083 -0.48,0.101 0.003,0.018 0.172,0.018 0.492,0.003 0.379,-0.025 0.84,-0.055 1.396,-0.091 1.21,-0.102 2.966,-0.197 5.133,-0.259 2.169,-0.07 4.753,-0.043 7.616,0.098 2.861,0.167 6.001,0.464 9.272,0.961 3.268,0.517 6.349,1.186 9.126,1.893 2.771,0.734 5.242,1.49 7.287,2.214 2.047,0.715 3.691,1.338 4.814,1.802 0.519,0.203 0.948,0.371 1.303,0.51 C -0.169,-0.035 -0.007,0.016 0,0"
               style="fill:#fafafa;fill-opacity:1;fill-rule:nonzero;stroke:none"
               id="path294" /></g><g
             id="g296"
             transform="translate(78.9674,79.2233)"><path
               d="m 0,0 -5.405,-24.434 -9.847,-18.091 c -0.709,-1.305 -0.166,-2.937 1.183,-3.556 0.755,-0.347 1.624,-0.311 2.344,0.105 4.581,2.648 21.386,12.468 21.682,14.279 0.342,2.096 7.412,25.394 7.412,25.394 z"
               style="fill:#ff4f5b;fill-opacity:1;fill-rule:nonzero;stroke:none"
               id="path298" /></g><g
             id="g300"><g
               id="g302" /><g
               id="g314"><g
                 clip-path="url(#clipPath306)"
                 opacity="0.600006"
                 id="g312"><g
                   transform="translate(64.8981,33.1423)"
                   id="g310"><path
                     d="M 0,0 24.429,16.023 24.176,14.994 C 23.958,14.104 23.434,13.318 22.691,12.782 20.703,11.348 15.126,7.505 2.418,0.087 1.679,-0.345 0.768,-0.378 0,0"
                     style="fill:#ffffff;fill-opacity:1;fill-rule:nonzero;stroke:none"
                     id="path308" /></g></g></g></g><g
             id="g316"><g
               id="g318" /><g
               id="g330"><g
                 clip-path="url(#clipPath322)"
                 opacity="0.600006"
                 id="g328"><g
                   transform="translate(86.2623,58.2292)"
                   id="g326"><path
                     d="m 0,0 c -0.712,-0.271 -1.137,-1.144 -0.895,-1.866 0.242,-0.723 1.125,-1.162 1.842,-0.904 0.717,0.259 1.259,1.291 0.938,1.982 -0.322,0.69 -1.387,1.15 -2.021,0.727"
                     style="fill:#ffffff;fill-opacity:1;fill-rule:nonzero;stroke:none"
                     id="path324" /></g></g></g></g><g
             id="g332"
             transform="translate(73.0578,42.3972)"><path
               d="M 0,0 C -0.154,-0.033 -0.39,1.374 -1.667,2.414 -2.914,3.491 -4.34,3.478 -4.334,3.635 -4.34,3.7 -3.986,3.813 -3.398,3.754 -2.814,3.699 -2.012,3.418 -1.314,2.835 -0.619,2.25 -0.202,1.509 -0.046,0.943 0.115,0.374 0.065,0.006 0,0"
               style="fill:#1a2e35;fill-opacity:1;fill-rule:nonzero;stroke:none"
               id="path334" /></g><g
             id="g336"
             transform="translate(70.5285,39.5681)"><path
               d="M 0,0 C -0.142,-0.077 -0.728,0.905 -1.896,1.573 -3.05,2.268 -4.193,2.301 -4.195,2.461 -4.234,2.603 -2.938,2.831 -1.618,2.047 -0.29,1.277 0.143,0.034 0,0"
               style="fill:#1a2e35;fill-opacity:1;fill-rule:nonzero;stroke:none"
               id="path338" /></g><g
             id="g340"
             transform="translate(77.3034,45.778)"><path
               d="M 0,0 C -0.142,-0.087 -1.037,1.427 -2.763,2.626 -4.471,3.852 -6.196,4.187 -6.162,4.351 -6.169,4.49 -4.281,4.385 -2.446,3.075 -0.598,1.784 0.134,0.04 0,0"
               style="fill:#1a2e35;fill-opacity:1;fill-rule:nonzero;stroke:none"
               id="path342" /></g><g
             id="g344"
             transform="translate(79.567,53.0681)"><path
               d="M 0,0 C -0.101,-0.129 -1.306,0.761 -3.037,1.253 -4.762,1.769 -6.256,1.664 -6.271,1.828 -6.31,1.963 -4.739,2.33 -2.883,1.78 -1.024,1.247 0.104,0.095 0,0"
               style="fill:#1a2e35;fill-opacity:1;fill-rule:nonzero;stroke:none"
               id="path346" /></g><g
             id="g348"
             transform="translate(81.3351,60.2009)"><path
               d="m 0,0 c -0.11,-0.122 -1.261,1.019 -3.127,1.387 -1.858,0.41 -3.369,-0.174 -3.421,-0.019 -0.027,0.061 0.313,0.301 0.953,0.487 0.635,0.188 1.577,0.278 2.58,0.07 1.002,-0.211 1.83,-0.671 2.337,-1.098 C -0.167,0.4 0.049,0.044 0,0"
               style="fill:#1a2e35;fill-opacity:1;fill-rule:nonzero;stroke:none"
               id="path350" /></g><g
             id="g352"
             transform="translate(78.5841,62.9352)"><path
               d="M 0,0 C -0.031,0.007 -0.006,0.348 0.192,0.928 0.391,1.503 0.774,2.327 1.514,3.156 1.887,3.543 2.303,4.057 3.06,4.21 3.437,4.289 3.924,4.103 4.133,3.71 4.342,3.327 4.335,2.906 4.249,2.519 3.845,0.982 2.154,-0.185 0.365,0.02 c -1.789,0.236 -3.123,1.618 -3.487,3.119 -0.066,0.382 -0.066,0.83 0.223,1.194 0.287,0.369 0.821,0.413 1.155,0.268 C -1.049,4.315 -0.696,3.788 -0.348,3.376 0.325,2.497 0.669,1.662 0.848,1.081 1.026,0.496 1.046,0.156 1.015,0.149 0.915,0.106 0.694,1.493 -0.65,3.132 -0.996,3.518 -1.386,3.995 -1.894,4.17 -2.141,4.258 -2.384,4.21 -2.524,4.028 -2.665,3.854 -2.689,3.537 -2.624,3.234 -2.309,2.001 -1.086,0.741 0.43,0.564 1.936,0.378 3.42,1.406 3.757,2.64 3.833,2.938 3.828,3.258 3.711,3.475 3.597,3.688 3.37,3.795 3.123,3.759 2.604,3.685 2.161,3.251 1.797,2.891 0.336,1.357 0.102,-0.051 0,0"
               style="fill:#1a2e35;fill-opacity:1;fill-rule:nonzero;stroke:none"
               id="path354" /></g><g
             id="g356"><g
               id="g358" /><g
               id="g370"><g
                 clip-path="url(#clipPath362)"
                 opacity="0.300003"
                 id="g368"><g
                   transform="translate(78.3371,76.572)"
                   id="g366"><path
                     d="M 0,0 -1.169,-5.604 16.523,-8.539 17.999,-3.651 0.63,2.651 Z"
                     style="fill:#000000;fill-opacity:1;fill-rule:nonzero;stroke:none"
                     id="path364" /></g></g></g></g><g
             id="g372"
             transform="translate(158.0231,70.1813)"><path
               d="m 0,0 -1.461,-19.524 c 0,0 19.355,-8.041 19.436,-11.676 l -37.957,1.472 1.027,30.514 z"
               style="fill:#ff4f5b;fill-opacity:1;fill-rule:nonzero;stroke:none"
               id="path374" /></g><g
             id="g376"><g
               id="g378" /><g
               id="g390"><g
                 clip-path="url(#clipPath382)"
                 opacity="0.600006"
                 id="g388"><g
                   transform="translate(144.8888,52.7575)"
                   id="g386"><path
                     d="m 0,0 c -0.742,-0.173 -1.282,-0.979 -1.14,-1.728 0.141,-0.749 0.956,-1.304 1.702,-1.145 0.745,0.159 1.423,1.107 1.198,1.836 -0.224,0.727 -1.218,1.328 -1.903,0.995"
                     style="fill:#ffffff;fill-opacity:1;fill-rule:nonzero;stroke:none"
                     id="path384" /></g></g></g></g><g
             id="g392"><g
               id="g394" /><g
               id="g406"><g
                 clip-path="url(#clipPath398)"
                 opacity="0.600006"
                 id="g404"><g
                   transform="translate(138.0407,40.4538)"
                   id="g402"><path
                     d="m 0,0 0.224,3.071 36.309,-2.56 c 0,0 1.662,-0.801 1.425,-1.984 z"
                     style="fill:#ffffff;fill-opacity:1;fill-rule:nonzero;stroke:none"
                     id="path400" /></g></g></g></g><g
             id="g408"
             transform="translate(157.1847,50.8268)"><path
               d="m 0,0 c -0.013,-0.186 -0.943,-0.233 -1.878,-0.794 -0.95,-0.536 -1.451,-1.321 -1.619,-1.241 -0.17,0.043 0.15,1.14 1.294,1.799 C -1.065,0.433 0.047,0.168 0,0"
               style="fill:#1a2e35;fill-opacity:1;fill-rule:nonzero;stroke:none"
               id="path410" /></g><g
             id="g412"
             transform="translate(161.1022,49.0251)"><path
               d="m 0,0 c 0.036,-0.181 -0.779,-0.465 -1.439,-1.225 -0.683,-0.74 -0.874,-1.581 -1.059,-1.566 -0.175,-0.022 -0.261,1.068 0.578,1.997 C -1.09,0.142 0.003,0.178 0,0"
               style="fill:#1a2e35;fill-opacity:1;fill-rule:nonzero;stroke:none"
               id="path414" /></g><g
             id="g416"
             transform="translate(163.1784,44.1725)"><path
               d="m 0,0 c -0.17,-0.033 -0.392,0.903 0.124,1.9 0.508,1 1.397,1.367 1.47,1.209 C 1.693,2.953 1.109,2.431 0.698,1.605 0.269,0.791 0.185,0.012 0,0"
               style="fill:#1a2e35;fill-opacity:1;fill-rule:nonzero;stroke:none"
               id="path418" /></g><g
             id="g420"
             transform="translate(157.0241,55.3132)"><path
               d="m 0,0 c -0.084,-0.166 -0.924,0.122 -1.975,0.092 -1.051,-0.009 -1.88,-0.329 -1.97,-0.166 -0.102,0.137 0.72,0.793 1.958,0.811 C -0.75,0.766 0.097,0.142 0,0"
               style="fill:#1a2e35;fill-opacity:1;fill-rule:nonzero;stroke:none"
               id="path422" /></g><g
             id="g424"><g
               id="g426" /><g
               id="g438"><g
                 clip-path="url(#clipPath430)"
                 opacity="0.300003"
                 id="g436"><g
                   transform="translate(157.7287,66.3141)"
                   id="g434"><path
                     d="m 0,0 -0.255,-3.479 -18.649,0.893 0.126,4.023 z"
                     style="fill:#000000;fill-opacity:1;fill-rule:nonzero;stroke:none"
                     id="path432" /></g></g></g></g><g
             id="g440"
             transform="translate(157.2462,59.2575)"><path
               d="m 0,0 c -0.001,-0.077 -0.738,-0.163 -1.901,0.083 -0.578,0.124 -1.257,0.341 -1.965,0.688 -0.353,0.174 -0.714,0.38 -1.069,0.622 -0.17,0.12 -0.374,0.241 -0.557,0.469 -0.197,0.201 -0.295,0.698 -0.047,0.99 0.206,0.284 0.555,0.396 0.829,0.392 0.28,-0.002 0.504,-0.067 0.709,-0.126 0.419,-0.119 0.81,-0.275 1.167,-0.452 0.712,-0.357 1.285,-0.798 1.708,-1.218 0.849,-0.849 1.122,-1.553 1.058,-1.588 C -0.155,-0.197 -0.561,0.399 -1.431,1.107 -1.865,1.46 -2.422,1.828 -3.089,2.129 -3.423,2.277 -3.785,2.407 -4.167,2.508 -4.565,2.629 -4.907,2.645 -5.018,2.47 -5.058,2.403 -5.063,2.377 -4.984,2.256 -4.901,2.144 -4.743,2.031 -4.575,1.913 -4.248,1.681 -3.917,1.478 -3.593,1.3 -2.943,0.945 -2.319,0.697 -1.782,0.524 -0.707,0.179 0.007,0.1 0,0"
               style="fill:#1a2e35;fill-opacity:1;fill-rule:nonzero;stroke:none"
               id="path442" /></g><g
             id="g444"
             transform="translate(156.9943,59.0007)"><path
               d="m 0,0 c -0.066,-0.025 -0.409,0.652 -0.43,1.855 -0.008,0.597 0.081,1.317 0.34,2.072 0.132,0.377 0.305,0.76 0.529,1.135 0.237,0.367 0.528,0.859 1.25,0.913 0.376,0 0.677,-0.306 0.773,-0.561 C 2.578,5.152 2.594,4.932 2.63,4.71 2.683,4.264 2.658,3.829 2.582,3.43 2.431,2.626 2.074,1.967 1.694,1.497 0.914,0.542 0.132,0.351 0.119,0.414 0.061,0.51 0.721,0.842 1.325,1.766 1.623,2.221 1.895,2.825 1.996,3.528 2.046,3.879 2.055,4.252 2.003,4.628 1.959,5.034 1.821,5.365 1.668,5.33 1.479,5.34 1.147,5.049 0.979,4.733 0.771,4.4 0.602,4.058 0.468,3.721 0.204,3.044 0.075,2.392 0.026,1.838 -0.069,0.727 0.102,0.024 0,0"
               style="fill:#1a2e35;fill-opacity:1;fill-rule:nonzero;stroke:none"
               id="path446" /></g><g
             id="g448"
             transform="translate(118.7228,280.696)"><path
               d="m 0,0 c 0,0 -6.027,-0.264 -9.998,-20.786 -3.971,-20.522 -34.495,-186.79 -34.495,-186.79 l 22.106,-0.199 41.705,158.076 -2.771,-162.964 22.459,-1.719 c 0,0 16.854,180.286 17.013,190.777 0.198,13.077 -7.313,26.306 -7.313,26.306 z"
               style="fill:#1a2e35;fill-opacity:1;fill-rule:nonzero;stroke:none"
               id="path450" /></g><g
             id="g452"
             transform="translate(149.1076,282.4528)"><path
               d="m 0,0 c 0.141,-0.029 -2.153,-11.753 -5.123,-26.183 -2.971,-14.435 -5.493,-26.11 -5.634,-26.081 -0.141,0.03 2.153,11.751 5.124,26.186 C -2.663,-11.648 -0.141,0.029 0,0"
               style="fill:#375a64;fill-opacity:1;fill-rule:nonzero;stroke:none"
               id="path454" /></g><g
             id="g456"
             transform="translate(152.5548,279.5251)"><path
               d="M 0,0 C -0.038,0.051 0.599,0.24 1.285,-0.374 1.6,-0.668 1.911,-1.159 1.888,-1.788 1.875,-2.423 1.395,-3.042 0.756,-3.304 c -0.634,-0.275 -1.413,-0.187 -1.877,0.249 -0.465,0.422 -0.6,0.987 -0.591,1.419 0.04,0.919 0.62,1.242 0.63,1.18 0.069,-0.052 -0.325,-0.428 -0.262,-1.17 0.034,-0.354 0.189,-0.786 0.534,-1.063 0.333,-0.285 0.876,-0.339 1.364,-0.136 0.486,0.207 0.825,0.634 0.855,1.071 C 1.451,-1.313 1.25,-0.901 1.021,-0.63 0.534,-0.066 -0.011,-0.085 0,0"
               style="fill:#375a64;fill-opacity:1;fill-rule:nonzero;stroke:none"
               id="path458" /></g><g
             id="g460"
             transform="translate(151.5968,271.3981)"><path
               d="m 0,0 c -0.013,0.063 0.622,-0.021 0.969,-0.833 0.154,-0.383 0.223,-0.937 -0.061,-1.471 -0.279,-0.547 -0.965,-0.87 -1.624,-0.811 -0.66,0.044 -1.288,0.469 -1.479,1.052 -0.199,0.573 -0.044,1.109 0.167,1.464 0.469,0.748 1.11,0.732 1.087,0.672 0.032,-0.078 -0.472,-0.202 -0.761,-0.844 -0.136,-0.307 -0.206,-0.736 -0.045,-1.119 0.147,-0.383 0.575,-0.666 1.071,-0.706 0.496,-0.037 0.964,0.176 1.168,0.532 0.218,0.353 0.216,0.787 0.129,1.111 C 0.434,-0.273 -0.044,-0.073 0,0"
               style="fill:#375a64;fill-opacity:1;fill-rule:nonzero;stroke:none"
               id="path462" /></g><g
             id="g464"
             transform="translate(130.4122,279.3185)"><path
               d="m 0,0 c 0.03,-0.009 -0.049,-0.379 -0.264,-1.027 -0.212,-0.649 -0.586,-1.569 -1.165,-2.648 -1.14,-2.153 -3.266,-4.929 -6.415,-7.003 -3.149,-2.076 -6.539,-2.935 -8.967,-3.134 -1.22,-0.106 -2.212,-0.087 -2.893,-0.027 -0.68,0.059 -1.05,0.132 -1.047,0.164 0.004,0.097 1.51,-0.073 3.899,0.229 2.376,0.289 5.658,1.183 8.722,3.202 3.063,2.019 5.179,4.682 6.38,6.75 C -0.529,-1.417 -0.092,0.034 0,0"
               style="fill:#375a64;fill-opacity:1;fill-rule:nonzero;stroke:none"
               id="path466" /></g><g
             id="g468"
             transform="translate(173.4264,264.7336)"><path
               d="m 0,0 c -0.021,-0.029 -0.255,0.114 -0.664,0.4 -0.414,0.277 -0.968,0.745 -1.603,1.372 -1.273,1.249 -2.775,3.278 -3.767,5.837 -0.982,2.563 -1.231,5.076 -1.124,6.856 0.049,0.891 0.146,1.61 0.267,2.093 0.111,0.486 0.189,0.749 0.224,0.742 0.094,-0.017 -0.119,-1.095 -0.123,-2.844 -0.01,-1.745 0.289,-4.17 1.242,-6.66 C -4.583,5.312 -3.178,3.313 -2,2.026 -0.823,0.732 0.058,0.076 0,0"
               style="fill:#375a64;fill-opacity:1;fill-rule:nonzero;stroke:none"
               id="path470" /></g><g
             id="g472"
             transform="translate(109.9318,320.2438)"><path
               d="m 0,0 9.822,-0.543 c 0.621,-3.184 2.777,-8.053 2.777,-8.053 7.906,13.723 14.035,32.11 15.557,39.499 -0.221,0.738 -0.484,1.555 -0.812,2.467 -0.378,1.054 -0.054,3.048 0.125,4.155 0.265,1.646 0.725,3.859 0.864,4.884 0.421,3.122 0.923,3.613 2.013,3.259 1.482,-0.48 -0.607,-8.768 0.607,-8.948 0.652,-0.096 1.45,2.743 1.681,5.073 0.232,2.33 1.285,9.497 2.055,9.975 1.129,0.7 2.114,-0.408 1.828,-2.728 -0.288,-2.349 -0.652,-9.352 0.579,-9.446 1.214,-0.093 2.232,11.789 2.232,11.789 0,0 -0.192,2.586 1.234,2.524 2.571,-0.112 0.562,-12.639 0.342,-13.826 -0.154,-0.826 1.182,-0.977 1.299,-0.081 0.121,0.922 0.742,11.883 3.36,11.795 2.009,-0.068 -1.557,-10.323 -0.429,-12.701 1.129,-2.376 1.912,8.074 3.831,7.93 0.714,-0.053 1.242,-0.193 -0.07,-6.107 -0.706,-3.179 -2.777,-9.023 -4.588,-13.862 -3.04,-16.4 -16.385,-68.863 -37.305,-59.26 -11.707,5.374 -17.169,31.98 -17.169,31.98 z"
               style="fill:#ffbf9d;fill-opacity:1;fill-rule:nonzero;stroke:none"
               id="path474" /></g><g
             id="g476"
             transform="translate(154.2389,347.2897)"><path
               d="m 0,0 c -0.01,0.004 0.023,0.125 0.1,0.359 0.089,0.265 0.205,0.605 0.35,1.032 0.326,0.945 0.785,2.271 1.368,3.959 0.584,1.722 1.3,3.83 2.012,6.307 0.364,1.237 0.66,2.576 0.935,4.013 0.133,0.718 0.27,1.457 0.353,2.216 0.035,0.377 0.075,0.765 0.053,1.137 -0.028,0.39 -0.088,0.708 -0.395,0.714 C 4.457,19.823 4.244,19.56 4.025,19.229 3.825,18.896 3.668,18.512 3.529,18.12 3.249,17.333 3.029,16.494 2.812,15.636 2.594,14.778 2.393,13.896 2.132,12.997 1.974,12.543 1.905,12.104 1.532,11.617 1.462,11.558 1.399,11.479 1.258,11.452 1.104,11.413 0.99,11.472 0.882,11.537 c -0.144,0.128 -0.213,0.257 -0.276,0.377 -0.113,0.253 -0.181,0.512 -0.211,0.763 -0.179,2.007 0.279,3.947 0.592,5.961 0.172,1.004 0.354,2.02 0.485,3.049 C 1.536,22.2 1.59,22.719 1.597,23.23 1.616,23.704 1.532,24.344 1.325,24.435 1.069,24.531 0.605,24.241 0.361,23.817 0.085,23.399 -0.119,22.905 -0.294,22.399 -0.641,21.382 -0.867,20.298 -1.063,19.2 -1.253,18.099 -1.402,16.977 -1.525,15.84 -1.581,15.271 -1.637,14.698 -1.693,14.123 L -1.769,13.255 C -1.79,13.02 -1.79,12.529 -2.166,12.247 -2.513,11.986 -2.978,11.958 -3.349,12.2 c -0.186,0.12 -0.331,0.343 -0.359,0.569 -0.024,0.114 -0.003,0.22 0.005,0.32 l 0.038,0.214 c 0.089,0.58 0.178,1.163 0.268,1.748 0.165,1.175 0.308,2.362 0.421,3.559 0.112,1.197 0.196,2.406 0.214,3.619 0.002,1.2 -0.007,2.458 -0.352,3.557 -0.114,0.334 -0.298,0.637 -0.505,0.724 -0.212,0.076 -0.518,-0.001 -0.675,-0.216 C -4.64,25.808 -4.698,25.005 -4.67,24.352 L -4.669,24.32 -4.67,24.302 c -0.214,-2.35 -0.47,-4.659 -0.809,-6.929 -0.174,-1.135 -0.359,-2.259 -0.645,-3.37 -0.071,-0.277 -0.156,-0.555 -0.254,-0.832 -0.133,-0.277 -0.169,-0.559 -0.566,-0.864 -0.344,-0.164 -0.599,0.023 -0.735,0.162 -0.146,0.153 -0.205,0.303 -0.272,0.451 -0.116,0.295 -0.174,0.579 -0.225,0.863 -0.318,2.254 -0.186,4.423 -0.059,6.55 0.042,1.069 0.302,2.127 0.162,3.065 -0.068,0.465 -0.25,0.932 -0.558,1.139 -0.152,0.1 -0.326,0.123 -0.513,0.079 -0.093,-0.029 -0.187,-0.062 -0.279,-0.117 -0.09,-0.075 -0.072,-0.047 -0.14,-0.173 -0.39,-0.817 -0.579,-1.85 -0.789,-2.785 -0.197,-0.957 -0.364,-1.908 -0.518,-2.848 -0.151,-0.939 -0.287,-1.867 -0.406,-2.781 -0.125,-0.907 -0.187,-1.826 -0.365,-2.719 -0.17,-0.89 -0.376,-1.756 -0.7,-2.587 -0.081,-0.207 -0.176,-0.412 -0.289,-0.614 -0.14,-0.188 -0.219,-0.433 -0.602,-0.55 -0.219,-0.06 -0.408,0.089 -0.506,0.214 -0.084,0.129 -0.125,0.252 -0.158,0.369 -0.051,0.231 -0.073,0.452 -0.081,0.666 -0.022,1.705 0.231,3.267 0.316,4.776 0.047,0.749 0.081,1.489 -0.006,2.173 -0.044,0.32 -0.148,0.697 -0.331,0.772 -0.268,0.107 -0.614,0.163 -0.815,0.018 -0.442,-0.319 -0.595,-1.051 -0.74,-1.637 -0.141,-0.618 -0.205,-1.231 -0.319,-1.822 -0.416,-2.366 -0.857,-4.397 -1.07,-6.057 -0.098,-0.83 -0.138,-1.579 -0.032,-2.203 0.139,-0.606 0.341,-1.141 0.458,-1.562 0.119,-0.398 0.213,-0.716 0.287,-0.966 0.062,-0.218 0.088,-0.331 0.078,-0.334 -0.01,-0.003 -0.056,0.104 -0.136,0.316 -0.088,0.245 -0.202,0.556 -0.343,0.947 -0.139,0.426 -0.348,0.913 -0.519,1.566 -0.129,0.655 -0.105,1.418 -0.025,2.261 0.181,1.69 0.586,3.707 0.969,6.077 0.106,0.589 0.163,1.216 0.301,1.852 0.071,0.319 0.141,0.643 0.263,0.969 0.127,0.315 0.263,0.679 0.626,0.917 0.388,0.242 0.817,0.154 1.181,0.016 0.468,-0.268 0.485,-0.719 0.567,-1.071 0.102,-0.748 0.071,-1.495 0.031,-2.258 -0.074,-1.518 -0.31,-3.113 -0.276,-4.728 0.008,-0.199 0.032,-0.394 0.072,-0.572 0.042,-0.195 0.142,-0.269 0.122,-0.232 0.035,-0.007 0.187,0.166 0.273,0.323 0.094,0.172 0.179,0.358 0.254,0.552 0.299,0.779 0.498,1.633 0.657,2.499 0.167,0.864 0.222,1.766 0.344,2.694 0.115,0.921 0.246,1.854 0.394,2.8 0.149,0.946 0.313,1.905 0.508,2.874 0.222,0.974 0.364,1.937 0.837,2.952 0.029,0.102 0.236,0.33 0.351,0.385 0.127,0.075 0.27,0.132 0.421,0.176 0.305,0.081 0.678,0.036 0.955,-0.151 0.551,-0.388 0.724,-0.992 0.817,-1.527 0.083,-0.549 0.055,-1.105 -0.008,-1.634 -0.059,-0.513 -0.101,-1.036 -0.139,-1.56 -0.121,-2.093 -0.236,-4.284 0.07,-6.406 0.046,-0.259 0.103,-0.519 0.192,-0.74 0.045,-0.104 0.098,-0.214 0.149,-0.26 0.026,-0.035 0.042,-0.033 0.05,-0.039 l 0.004,-10e-4 0.001,-0.004 c -0.018,-0.234 -0.002,-0.049 -0.007,-0.095 -0.002,0.044 -0.013,0.035 -0.04,0.086 0.051,0.042 0.211,0.317 0.289,0.549 0.088,0.249 0.167,0.509 0.235,0.775 0.272,1.067 0.456,2.184 0.627,3.307 0.332,2.25 0.585,4.557 0.796,6.891 v -0.049 c -0.012,0.769 -0.025,1.575 0.506,2.372 0.31,0.393 0.87,0.606 1.395,0.408 0.52,-0.243 0.713,-0.709 0.859,-1.094 0.396,-1.28 0.383,-2.534 0.386,-3.772 -0.019,-1.238 -0.105,-2.46 -0.219,-3.668 -0.116,-1.209 -0.261,-2.404 -0.429,-3.587 -0.091,-0.59 -0.182,-1.179 -0.273,-1.765 -0.074,-0.372 -0.056,-0.384 0.055,-0.494 0.12,-0.091 0.352,-0.077 0.466,0.018 0.127,0.086 0.142,0.26 0.169,0.585 l 0.077,0.868 c 0.058,0.579 0.116,1.155 0.173,1.728 0.126,1.147 0.28,2.281 0.476,3.398 0.203,1.115 0.435,2.219 0.802,3.287 0.187,0.532 0.402,1.059 0.727,1.551 0.166,0.242 0.359,0.484 0.642,0.663 0.289,0.166 0.607,0.317 1.04,0.151 C 1.975,24.73 2.045,24.35 2.11,24.073 2.153,23.782 2.171,23.498 2.163,23.224 2.153,22.673 2.095,22.141 2.027,21.615 1.889,20.566 1.701,19.547 1.524,18.544 1.199,16.552 0.748,14.569 0.905,12.749 c 0.024,-0.225 0.083,-0.43 0.159,-0.61 0.046,-0.092 0.098,-0.167 0.129,-0.2 0.005,0.011 -0.007,0.018 -0.024,-0.044 -0.009,-0.081 0.002,0.017 -0.01,0.004 -0.038,0.062 -0.01,0.044 0.006,0.067 0.21,0.259 0.359,0.76 0.49,1.173 0.26,0.873 0.468,1.756 0.693,2.616 0.225,0.861 0.452,1.707 0.749,2.522 0.149,0.407 0.313,0.807 0.545,1.187 0.127,0.186 0.25,0.377 0.456,0.53 0.09,0.082 0.225,0.139 0.357,0.177 0.155,0.024 0.281,0.02 0.384,0.001 0.235,-0.01 0.554,-0.216 0.632,-0.464 C 5.568,19.475 5.588,19.256 5.599,19.046 5.619,18.625 5.573,18.23 5.533,17.838 5.439,17.059 5.294,16.316 5.153,15.595 4.862,14.157 4.546,12.799 4.163,11.561 3.416,9.08 2.666,6.981 2.046,5.27 1.424,3.559 0.918,2.24 0.567,1.348 0.398,0.93 0.264,0.596 0.159,0.337 0.063,0.111 0.01,-0.003 0,0"
               style="fill:#ff9a6c;fill-opacity:1;fill-rule:nonzero;stroke:none"
               id="path478" /></g><g
             id="g480"
             transform="translate(99.6539,319.1081)"><path
               d="m 0,0 c 1.9,-6.704 5.611,-17.062 9.602,-27.982 0.577,-1.579 2.773,-1.681 3.491,-0.162 l 9.784,20.684 c 0,0 -2.356,16.993 -2.156,16.394 C 20.92,8.334 0.535,6.735 0.535,6.735 Z"
               style="fill:#ff4f5b;fill-opacity:1;fill-rule:nonzero;stroke:none"
               id="path482" /></g><g
             id="g484"
             transform="translate(121.6881,322.4421)"><path
               d="m 0,0 c 0.022,-0.083 -1.215,-0.442 -3.152,-1.181 -1.936,-0.736 -4.556,-1.905 -7.258,-3.54 -2.699,-1.641 -4.948,-3.424 -6.495,-4.8 -1.551,-1.376 -2.441,-2.307 -2.504,-2.25 -0.027,0.025 0.17,0.282 0.548,0.727 0.375,0.449 0.956,1.065 1.706,1.793 1.497,1.459 3.74,3.313 6.475,4.976 2.738,1.656 5.418,2.788 7.404,3.441 0.993,0.328 1.807,0.559 2.379,0.684 C -0.328,-0.021 -0.009,0.035 0,0"
               style="fill:#fafafa;fill-opacity:1;fill-rule:nonzero;stroke:none"
               id="path486" /></g><g
             id="g488"
             transform="translate(125.5661,317.2839)"><path
               d="m 0,0 c -0.051,-0.038 -0.717,0.748 -1.632,2.136 -0.914,1.386 -2.047,3.397 -3.022,5.743 -0.971,2.349 -1.593,4.571 -1.927,6.198 -0.336,1.628 -0.421,2.653 -0.358,2.663 0.079,0.014 0.292,-0.987 0.716,-2.578 0.423,-1.591 1.092,-3.766 2.05,-6.084 C -3.21,5.762 -2.145,3.752 -1.318,2.329 -0.492,0.904 0.065,0.046 0,0"
               style="fill:#1a2e35;fill-opacity:1;fill-rule:nonzero;stroke:none"
               id="path490" /></g><g
             id="g492"
             transform="translate(132.0924,408.8962)"><path
               d="m 0,0 c -3.422,-5.531 -4.149,-12.687 -1.911,-18.808 1.005,-2.747 2.597,-5.462 2.306,-8.377 -0.299,-2.986 -2.564,-5.806 -1.764,-8.696 0.473,-1.708 1.94,-2.975 2.502,-4.655 0.659,-1.972 -0.028,-4.106 -0.342,-6.164 -0.8,-5.237 0.874,-10.503 1.289,-15.785 0.415,-5.283 -1.011,-11.466 -5.722,-13.77 -1.433,-0.701 -3.304,-0.902 -4.495,0.166 -1.512,1.355 -1.091,3.791 -0.677,5.792 4.14,20.019 -8.649,39.519 -5.729,59.756 0.468,3.244 2.28,8.748 4.616,11.018 2.335,2.27 8.794,1.994 11.004,-0.401"
               style="fill:#1a2e35;fill-opacity:1;fill-rule:nonzero;stroke:none"
               id="path494" /></g><g
             id="g496"
             transform="translate(112.3947,350.8835)"><path
               d="m 0,0 c -0.042,0.034 0.601,0.72 1.501,2.139 0.897,1.409 2.024,3.61 2.613,6.548 0.285,1.468 0.412,3.103 0.308,4.864 -0.077,1.761 -0.325,3.655 -0.206,5.681 0.041,1.014 0.258,2.046 0.574,3.065 0.354,1.005 0.814,1.991 1.373,2.937 1.119,1.892 2.536,3.654 3.833,5.537 1.296,1.875 2.373,3.862 2.721,5.961 0.35,2.099 -0.028,4.178 -0.349,6.137 -0.346,1.959 -0.585,3.889 -0.441,5.682 0.114,1.792 0.472,3.437 0.959,4.88 0.982,2.895 2.433,4.946 3.534,6.223 0.555,0.642 1.023,1.107 1.361,1.397 0.334,0.296 0.515,0.444 0.527,0.43 0.038,-0.04 -0.674,-0.652 -1.731,-1.957 -1.042,-1.302 -2.423,-3.354 -3.342,-6.208 -0.454,-1.423 -0.784,-3.038 -0.877,-4.789 -0.121,-1.756 0.124,-3.616 0.483,-5.578 0.331,-1.953 0.74,-4.083 0.38,-6.299 C 12.86,34.436 11.737,32.374 10.426,30.477 9.111,28.57 7.701,26.82 6.602,24.975 6.054,24.052 5.607,23.102 5.261,22.139 4.956,21.164 4.741,20.185 4.694,19.201 4.565,17.239 4.793,15.35 4.854,13.569 4.94,11.785 4.79,10.102 4.475,8.613 3.827,5.625 2.629,3.418 1.671,2.027 1.19,1.328 0.772,0.818 0.478,0.484 0.177,0.154 0.013,-0.012 0,0"
               style="fill:#375a64;fill-opacity:1;fill-rule:nonzero;stroke:none"
               id="path498" /></g><g
             id="g500"
             transform="translate(102.9098,349.3859)"><path
               d="m 0,0 c -0.016,0.008 0.092,0.239 0.311,0.67 0.245,0.475 0.568,1.099 0.971,1.877 0.837,1.632 2.091,3.977 3.322,7.008 1.208,3.019 2.406,6.801 2.442,11.112 0.007,1.074 -0.071,2.173 -0.244,3.282 -0.172,1.11 -0.43,2.244 -0.597,3.427 -0.161,1.18 -0.238,2.437 0.075,3.678 0.31,1.245 1.093,2.353 2.035,3.211 1.886,1.713 4.16,2.83 5.334,4.836 1.204,1.971 1.47,4.284 1.773,6.413 0.261,2.151 0.673,4.222 1.377,6.041 0.68,1.83 1.589,3.418 2.537,4.772 1.909,2.717 4.032,4.429 5.559,5.446 0.769,0.508 1.392,0.863 1.83,1.071 0.435,0.215 0.666,0.32 0.674,0.304 0.027,-0.05 -0.896,-0.487 -2.389,-1.542 -1.477,-1.058 -3.533,-2.79 -5.371,-5.489 C 18.726,54.772 17.853,53.203 17.204,51.404 16.531,49.61 16.147,47.607 15.898,45.45 15.603,43.321 15.358,40.946 14.084,38.834 12.811,36.674 10.457,35.526 8.67,33.883 7.769,33.06 7.069,32.061 6.782,30.924 6.493,29.789 6.556,28.597 6.71,27.446 6.87,26.291 7.123,25.159 7.294,24.024 7.466,22.887 7.54,21.76 7.526,20.664 7.461,16.258 6.205,12.44 4.945,9.415 3.659,6.379 2.353,4.055 1.46,2.451 1.021,1.691 0.67,1.083 0.402,0.62 0.154,0.205 0.016,-0.009 0,0"
               style="fill:#375a64;fill-opacity:1;fill-rule:nonzero;stroke:none"
               id="path502" /></g></g></g><g
         id="g504"><g
           id="g506"
           clip-path="url(#clipPath510)"><g
             id="g512"
             transform="translate(433.7731,66.82)"><path
               d="m 0,0 c -0.01,0.005 0.05,0.147 0.175,0.422 0.139,0.299 0.327,0.698 0.566,1.208 0.482,1.067 1.108,2.684 1.665,4.836 1.102,4.3 1.487,10.871 -0.141,18.676 -0.757,3.908 -1.976,8.099 -3.464,12.544 -1.467,4.452 -3.169,9.175 -4.56,14.282 -1.376,5.094 -2.461,10.624 -2.252,16.421 0.211,5.807 1.931,11.605 3.822,17.376 1.887,5.781 3.838,11.43 4.423,17.114 0.662,5.673 -0.552,11.241 -3.137,15.805 -2.503,4.611 -5.653,8.555 -8.009,12.641 -2.394,4.071 -3.891,8.259 -4.814,12.153 -1.789,7.851 -1.162,14.467 -0.305,18.827 0.928,4.383 1.965,6.649 1.965,6.649 0.009,-0.004 -0.03,-0.153 -0.117,-0.441 -0.098,-0.316 -0.229,-0.738 -0.397,-1.276 -0.347,-1.119 -0.796,-2.792 -1.222,-4.976 -0.782,-4.351 -1.336,-10.921 0.489,-18.687 0.941,-3.85 2.445,-7.982 4.83,-11.998 2.351,-4.037 5.514,-7.965 8.067,-12.631 2.639,-4.613 3.907,-10.364 3.235,-16.126 C 0.23,97.04 -1.736,91.353 -3.619,85.58 -5.51,79.813 -7.209,74.076 -7.424,68.366 -7.638,62.658 -6.579,57.182 -5.226,52.112 -3.857,47.03 -2.175,42.306 -0.727,37.842 0.743,33.384 1.947,29.158 2.681,25.223 4.266,17.359 3.813,10.723 2.633,6.408 2.035,4.248 1.37,2.635 0.851,1.579 0.589,1.079 0.383,0.687 0.229,0.394 0.086,0.128 0.009,-0.006 0,0"
               style="fill:#1a2e35;fill-opacity:1;fill-rule:nonzero;stroke:none"
               id="path514" /></g><g
             id="g516"
             transform="translate(426.0621,194.114)"><path
               d="m 0,0 c 0,0 -4.786,15.304 3.799,24.265 0.302,0.314 0.832,0.166 0.91,-0.263 C 5.167,21.475 5.74,13.776 0,0"
               style="fill:#ff4f5b;fill-opacity:1;fill-rule:nonzero;stroke:none"
               id="path518" /></g><g
             id="g520"
             transform="translate(428.9293,213.279)"><path
               d="m 0,0 c 0.081,-0.016 -0.056,-1.093 -0.322,-2.823 -0.315,-1.945 -0.684,-4.228 -1.092,-6.75 -0.4,-2.523 -0.763,-4.805 -1.071,-6.749 -0.263,-1.729 -0.419,-2.801 -0.507,-2.794 -0.078,0.006 -0.07,1.095 0.086,2.845 0.158,1.749 0.467,4.154 0.9,6.794 0.432,2.641 0.892,5.018 1.267,6.732 C -0.365,-1.032 -0.081,0.017 0,0"
               style="fill:#1a2e35;fill-opacity:1;fill-rule:nonzero;stroke:none"
               id="path522" /></g><g
             id="g524"
             transform="translate(431.6842,158.0202)"><path
               d="m 0,0 c 0,0 2.927,15.765 14.705,19.671 0.413,0.137 0.813,-0.243 0.681,-0.658 C 14.609,16.564 11.516,9.492 0,0"
               style="fill:#ff4f5b;fill-opacity:1;fill-rule:nonzero;stroke:none"
               id="path526" /></g><g
             id="g528"
             transform="translate(443.1813,173.6188)"><path
               d="m 0,0 c 0.063,-0.052 -0.561,-0.939 -1.605,-2.345 -1.188,-1.571 -2.582,-3.417 -4.123,-5.455 -1.533,-2.043 -2.921,-3.89 -4.103,-5.466 -1.04,-1.404 -1.68,-2.278 -1.754,-2.231 -0.066,0.041 0.45,1 1.406,2.474 0.957,1.471 2.355,3.454 3.973,5.585 1.617,2.131 3.136,4.018 4.269,5.357 C -0.807,-0.741 -0.064,0.053 0,0"
               style="fill:#1a2e35;fill-opacity:1;fill-rule:nonzero;stroke:none"
               id="path530" /></g><g
             id="g532"
             transform="translate(428.5006,118.4704)"><path
               d="M 0,0 C 0,0 -1.777,15.936 8.358,23.094 8.715,23.345 9.207,23.098 9.201,22.662 9.169,20.094 8.263,12.428 0,0"
               style="fill:#ff4f5b;fill-opacity:1;fill-rule:nonzero;stroke:none"
               id="path534" /></g><g
             id="g536"
             transform="translate(434.9713,136.736)"><path
               d="m 0,0 c 0.077,-0.031 -0.263,-1.062 -0.854,-2.71 -0.68,-1.849 -1.478,-4.019 -2.36,-6.418 -0.875,-2.399 -1.666,-4.571 -2.34,-6.421 -0.587,-1.646 -0.945,-2.669 -1.03,-2.645 -0.075,0.02 0.141,1.088 0.627,2.776 0.489,1.686 1.251,3.988 2.181,6.498 0.926,2.51 1.833,4.756 2.527,6.365 C -0.556,-0.944 -0.076,0.031 0,0"
               style="fill:#1a2e35;fill-opacity:1;fill-rule:nonzero;stroke:none"
               id="path538" /></g><g
             id="g540"
             transform="translate(437.3737,78.6891)"><path
               d="m 0,0 c 0,0 -1.207,15.988 9.18,22.779 0.365,0.239 0.847,-0.026 0.827,-0.462 C 9.883,19.753 8.702,12.124 0,0"
               style="fill:#ff4f5b;fill-opacity:1;fill-rule:nonzero;stroke:none"
               id="path542" /></g><g
             id="g544"
             transform="translate(444.4948,96.7116)"><path
               d="m 0,0 c 0.075,-0.034 -0.302,-1.052 -0.952,-2.678 -0.745,-1.824 -1.621,-3.965 -2.588,-6.329 -0.959,-2.367 -1.828,-4.509 -2.567,-6.334 -0.646,-1.624 -1.041,-2.633 -1.125,-2.606 -0.074,0.023 0.179,1.082 0.726,2.752 0.549,1.668 1.393,3.941 2.411,6.416 1.017,2.474 2.003,4.686 2.754,6.27 C -0.59,-0.924 -0.076,0.034 0,0"
               style="fill:#1a2e35;fill-opacity:1;fill-rule:nonzero;stroke:none"
               id="path546" /></g><g
             id="g548"
             transform="translate(419.1842,207.5602)"><path
               d="m 0,0 c 0,0 -14.213,7.422 -14.491,19.828 -0.01,0.436 0.47,0.706 0.828,0.458 C -11.551,18.826 -5.697,13.794 0,0"
               style="fill:#ff4f5b;fill-opacity:1;fill-rule:nonzero;stroke:none"
               id="path550" /></g><g
             id="g552"
             transform="translate(407.6442,223.1276)"><path
               d="m 0,0 c 0.068,0.046 0.733,-0.812 1.771,-2.223 1.154,-1.596 2.509,-3.47 4.006,-5.541 1.503,-2.065 2.863,-3.934 4.021,-5.526 1.039,-1.406 1.686,-2.274 1.619,-2.331 -0.059,-0.051 -0.824,0.724 -1.952,2.069 -1.126,1.348 -2.611,3.265 -4.174,5.438 -1.564,2.17 -2.922,4.176 -3.87,5.65 C 0.473,-0.988 -0.069,-0.047 0,0"
               style="fill:#1a2e35;fill-opacity:1;fill-rule:nonzero;stroke:none"
               id="path554" /></g><g
             id="g556"
             transform="translate(434.4459,174.694)"><path
               d="m 0,0 c 0,0 -14.637,6.546 -15.669,18.912 -0.036,0.434 0.427,0.734 0.8,0.508 C -12.672,18.09 -6.523,13.423 0,0"
               style="fill:#ff4f5b;fill-opacity:1;fill-rule:nonzero;stroke:none"
               id="path558" /></g><g
             id="g560"
             transform="translate(421.9821,189.5309)"><path
               d="m 0,0 c 0.065,0.051 0.781,-0.765 1.902,-2.11 1.249,-1.524 2.716,-3.312 4.336,-5.287 1.625,-1.971 3.096,-3.753 4.349,-5.272 1.122,-1.341 1.821,-2.168 1.758,-2.229 -0.056,-0.054 -0.866,0.672 -2.074,1.947 -1.207,1.276 -2.805,3.1 -4.498,5.174 C 4.081,-5.706 2.604,-3.786 1.568,-2.371 0.532,-0.957 -0.066,-0.05 0,0"
               style="fill:#1a2e35;fill-opacity:1;fill-rule:nonzero;stroke:none"
               id="path562" /></g><g
             id="g564"
             transform="translate(426.024,138.0339)"><path
               d="m 0,0 c 0,0 -10.05,12.494 -5.336,23.973 0.165,0.403 0.714,0.459 0.942,0.088 C -3.043,21.876 0.305,14.921 0,0"
               style="fill:#ff4f5b;fill-opacity:1;fill-rule:nonzero;stroke:none"
               id="path566" /></g><g
             id="g568"
             transform="translate(421.6852,156.9196)"><path
               d="m 0,0 c 0.081,0.015 0.348,-1.037 0.732,-2.746 0.418,-1.925 0.91,-4.185 1.453,-6.682 0.548,-2.494 1.046,-4.751 1.47,-6.674 0.388,-1.704 0.634,-2.759 0.549,-2.785 -0.073,-0.022 -0.465,0.994 -0.96,2.68 -0.492,1.685 -1.085,4.036 -1.646,6.653 C 1.034,-6.938 0.594,-4.557 0.315,-2.826 0.037,-1.095 -0.082,-0.015 0,0"
               style="fill:#1a2e35;fill-opacity:1;fill-rule:nonzero;stroke:none"
               id="path570" /></g><g
             id="g572"
             transform="translate(435.9791,94.8923)"><path
               d="m 0,0 c 0,0 -14.525,6.791 -15.35,19.173 -0.028,0.434 0.44,0.725 0.808,0.494 C -12.366,18.301 -6.298,13.53 0,0"
               style="fill:#ff4f5b;fill-opacity:1;fill-rule:nonzero;stroke:none"
               id="path574" /></g><g
             id="g576"
             transform="translate(423.7653,109.9372)"><path
               d="m 0,0 c 0.067,0.049 0.77,-0.778 1.867,-2.143 1.224,-1.545 2.66,-3.356 4.246,-5.359 1.593,-1.997 3.033,-3.805 4.26,-5.344 1.1,-1.359 1.785,-2.198 1.721,-2.258 -0.057,-0.053 -0.856,0.687 -2.042,1.982 C 8.867,-11.826 7.3,-9.976 5.643,-7.874 3.985,-5.774 2.541,-3.83 1.529,-2.398 0.517,-0.967 -0.066,-0.05 0,0"
               style="fill:#1a2e35;fill-opacity:1;fill-rule:nonzero;stroke:none"
               id="path578" /></g><g
             id="g580"
             transform="translate(464.9117,157.9343)"><path
               d="M 0,0 C 0.014,-0.001 0.02,-0.121 0.019,-0.354 0.012,-0.632 0.003,-0.969 -0.007,-1.378 -0.05,-2.342 -0.107,-3.643 -0.179,-5.266 -0.366,-8.685 -0.627,-13.45 -0.939,-19.15 l -0.001,-0.014 -0.004,-0.02 c -1.036,-5.801 -3.992,-12.233 -7.961,-18.476 -2.911,-4.6 -5.963,-8.781 -8.596,-12.671 -2.649,-3.878 -4.886,-7.47 -6.444,-10.652 -1.57,-3.179 -2.482,-5.911 -3.015,-7.819 -0.256,-0.957 -0.447,-1.704 -0.558,-2.216 -0.12,-0.508 -0.192,-0.775 -0.212,-0.771 -0.021,0.004 0.012,0.276 0.093,0.795 0.073,0.52 0.229,1.278 0.45,2.251 0.467,1.937 1.327,4.715 2.86,7.944 1.523,3.234 3.738,6.874 6.368,10.778 2.614,3.916 5.65,8.104 8.547,12.68 3.948,6.213 6.888,12.546 7.963,18.255 l -0.004,-0.032 c 0.4,5.695 0.735,10.456 0.974,13.871 0.132,1.62 0.237,2.918 0.315,3.879 0.041,0.407 0.074,0.742 0.102,1.019 C -0.034,-0.118 -0.014,0.001 0,0"
               style="fill:#1a2e35;fill-opacity:1;fill-rule:nonzero;stroke:none"
               id="path582" /></g><g
             id="g584"
             transform="translate(456.2633,121.4675)"><path
               d="M 0,0 C 0,0 6.151,14.808 -1.587,24.508 -1.858,24.849 -2.4,24.748 -2.517,24.329 -3.202,21.854 -4.47,14.239 0,0"
               style="fill:#ff4f5b;fill-opacity:1;fill-rule:nonzero;stroke:none"
               id="path586" /></g><g
             id="g588"
             transform="translate(455.1422,140.8132)"><path
               d="m 0,0 c 0.083,0.009 0.271,-1.062 0.488,-2.802 0.218,-1.739 0.461,-4.149 0.653,-6.818 0.192,-2.669 0.282,-5.093 0.281,-6.848 -0.004,-1.757 -0.095,-2.842 -0.173,-2.841 -0.087,0.001 -0.146,1.082 -0.251,2.828 -0.132,1.964 -0.286,4.27 -0.456,6.819 C 0.364,-7.113 0.203,-4.807 0.065,-2.841 -0.043,-1.094 -0.082,-0.009 0,0"
               style="fill:#1a2e35;fill-opacity:1;fill-rule:nonzero;stroke:none"
               id="path590" /></g><g
             id="g592"><g
               id="g594" /><g
               id="g606"><g
                 clip-path="url(#clipPath598)"
                 opacity="0.300003"
                 id="g604"><g
                   transform="translate(456.2633,121.4675)"
                   id="g602"><path
                     d="M 0,0 C 0,0 6.151,14.808 -1.587,24.508 -1.858,24.849 -2.4,24.748 -2.517,24.329 -3.202,21.854 -4.47,14.239 0,0"
                     style="fill:#000000;fill-opacity:1;fill-rule:nonzero;stroke:none"
                     id="path600" /></g></g></g></g><g
             id="g608"
             transform="translate(437.2086,85.7839)"><path
               d="M 0,0 C 0,0 4.932,15.258 -3.568,24.299 -3.867,24.617 -4.398,24.473 -4.48,24.045 -4.963,21.522 -5.608,13.83 0,0"
               style="fill:#ff4f5b;fill-opacity:1;fill-rule:nonzero;stroke:none"
               id="path610" /></g><g
             id="g612"
             transform="translate(434.524,104.9753)"><path
               d="m 0,0 c 0.081,0.016 0.355,-1.036 0.713,-2.753 0.358,-1.716 0.796,-4.098 1.203,-6.742 0.408,-2.645 0.694,-5.054 0.836,-6.804 0.139,-1.751 0.136,-2.84 0.059,-2.845 -0.088,-0.005 -0.235,1.068 -0.481,2.798 -0.29,1.948 -0.631,4.234 -1.007,6.76 -0.385,2.525 -0.731,4.812 -1.028,6.76 C 0.045,-1.093 -0.082,-0.016 0,0"
               style="fill:#1a2e35;fill-opacity:1;fill-rule:nonzero;stroke:none"
               id="path614" /></g><g
             id="g616"><g
               id="g618" /><g
               id="g630"><g
                 clip-path="url(#clipPath622)"
                 opacity="0.300003"
                 id="g628"><g
                   transform="translate(437.2086,85.7839)"
                   id="g626"><path
                     d="M 0,0 C 0,0 4.932,15.258 -3.568,24.299 -3.867,24.617 -4.398,24.473 -4.48,24.045 -4.963,21.522 -5.608,13.83 0,0"
                     style="fill:#000000;fill-opacity:1;fill-rule:nonzero;stroke:none"
                     id="path624" /></g></g></g></g><g
             id="g632"
             transform="translate(464.0973,139.5632)"><path
               d="m 0,0 c 0,0 13.136,9.196 11.811,21.534 -0.047,0.434 -0.558,0.64 -0.881,0.348 C 9.023,20.16 3.868,14.415 0,0"
               style="fill:#ff4f5b;fill-opacity:1;fill-rule:nonzero;stroke:none"
               id="path634" /></g><g
             id="g636"><g
               id="g638" /><g
               id="g650"><g
                 clip-path="url(#clipPath642)"
                 opacity="0.300003"
                 id="g648"><g
                   transform="translate(464.0973,139.5632)"
                   id="g646"><path
                     d="m 0,0 c 0,0 13.136,9.196 11.811,21.534 -0.047,0.434 -0.558,0.64 -0.881,0.348 C 9.023,20.16 3.868,14.415 0,0"
                     style="fill:#000000;fill-opacity:1;fill-rule:nonzero;stroke:none"
                     id="path644" /></g></g></g></g><g
             id="g652"
             transform="translate(473.5309,156.4909)"><path
               d="m 0,0 c 0.074,-0.037 -0.341,-1.042 -1.091,-2.626 -0.75,-1.585 -1.837,-3.75 -3.108,-6.103 -1.269,-2.357 -2.494,-4.45 -3.437,-5.931 -0.945,-1.481 -1.604,-2.348 -1.669,-2.305 -0.073,0.048 0.456,0.992 1.305,2.521 0.943,1.728 2.05,3.757 3.273,6 1.217,2.246 2.32,4.279 3.258,6.011 C -0.623,-0.899 -0.074,0.036 0,0"
               style="fill:#1a2e35;fill-opacity:1;fill-rule:nonzero;stroke:none"
               id="path654" /></g><g
             id="g656"
             transform="translate(442.5055,100.9099)"><path
               d="m 0,0 c 0,0 15.844,2.471 20.087,14.132 0.149,0.409 -0.219,0.819 -0.638,0.699 C 16.98,14.126 9.821,11.237 0,0"
               style="fill:#ff4f5b;fill-opacity:1;fill-rule:nonzero;stroke:none"
               id="path658" /></g><g
             id="g660"><g
               id="g662" /><g
               id="g674"><g
                 clip-path="url(#clipPath666)"
                 opacity="0.300003"
                 id="g672"><g
                   transform="translate(442.5055,100.9099)"
                   id="g670"><path
                     d="m 0,0 c 0,0 15.844,2.471 20.087,14.132 0.149,0.409 -0.219,0.819 -0.638,0.699 C 16.98,14.126 9.821,11.237 0,0"
                     style="fill:#000000;fill-opacity:1;fill-rule:nonzero;stroke:none"
                     id="path668" /></g></g></g></g><g
             id="g676"
             transform="translate(458.4303,111.9518)"><path
               d="m 0,0 c 0.051,-0.065 -0.765,-0.784 -2.137,-1.877 -1.37,-1.093 -3.3,-2.557 -5.477,-4.11 -2.178,-1.557 -4.199,-2.897 -5.698,-3.811 -1.501,-0.913 -2.474,-1.401 -2.513,-1.334 -0.045,0.075 0.846,0.69 2.281,1.689 1.608,1.136 3.495,2.469 5.581,3.944 2.082,1.48 3.968,2.82 5.572,3.962 C -0.955,-0.533 -0.05,0.065 0,0"
               style="fill:#1a2e35;fill-opacity:1;fill-rule:nonzero;stroke:none"
               id="path678" /></g><g
             id="g680"
             transform="translate(427.3922,71.7536)"><path
               d="M 0,0 -4.622,-31.104 H 24.179 L 20.445,0 Z"
               style="fill:#375a64;fill-opacity:1;fill-rule:nonzero;stroke:none"
               id="path682" /></g><g
             id="g684"
             transform="translate(448.9889,62.1159)"><path
               d="m 0,0 c 0,-0.166 -5.2,-0.3 -11.613,-0.3 -6.415,0 -11.615,0.134 -11.615,0.3 0,0.165 5.2,0.3 11.615,0.3 C -5.2,0.3 0,0.165 0,0"
               style="fill:#1a2e35;fill-opacity:1;fill-rule:nonzero;stroke:none"
               id="path686" /></g><g
             id="g688"
             transform="translate(449.5592,59.6403)"><path
               d="m 0,0 c 0,-0.165 -5.37,-0.3 -11.993,-0.3 -6.626,0 -11.995,0.135 -11.995,0.3 0,0.166 5.369,0.3 11.995,0.3 C -5.37,0.3 0,0.166 0,0"
               style="fill:#1a2e35;fill-opacity:1;fill-rule:nonzero;stroke:none"
               id="path690" /></g></g></g><g
         id="g692"><g
           id="g694"
           clip-path="url(#clipPath698)"><g
             id="g700"
             transform="translate(337.5651,373.4587)"><path
               d="m 0,0 c 0,0 -0.266,-0.005 -0.781,0.01 -0.517,0.022 -1.283,0.058 -2.288,-0.012 -1.996,-0.112 -4.994,-0.488 -8.523,-1.965 -3.489,-1.474 -7.573,-4.079 -10.822,-8.434 -1.611,-2.167 -2.958,-4.774 -3.777,-7.729 -0.791,-2.959 -1.059,-6.241 -0.682,-9.62 0.427,-3.367 1.457,-6.852 3.345,-10.052 0.936,-1.595 2.046,-3.146 3.403,-4.513 1.311,-1.407 2.857,-2.652 4.601,-3.6 1.74,-0.941 3.733,-1.535 5.772,-1.453 2.023,0.066 4.109,0.779 5.59,2.255 1.491,1.465 2.227,3.617 2.228,5.764 0.011,2.163 -0.739,4.315 -2.028,6.127 -2.597,3.649 -6.795,6.104 -11.261,7.427 -4.509,1.314 -9.463,1.348 -14.204,0.196 -2.362,-0.615 -4.67,-1.517 -6.841,-2.719 -2.169,-1.209 -4.142,-2.786 -5.872,-4.607 -0.41,-0.476 -0.877,-0.907 -1.242,-1.423 l -1.129,-1.524 c -0.659,-1.082 -1.335,-2.162 -1.841,-3.337 -1.06,-2.319 -1.804,-4.806 -2.174,-7.369 -0.671,-5.122 -0.051,-10.398 2.019,-15.002 1.999,-4.611 5.408,-8.569 9.655,-10.954 2.12,-1.185 4.462,-1.949 6.838,-2.078 2.371,-0.147 4.736,0.464 6.747,1.62 2.009,1.153 3.687,2.886 4.567,4.973 0.874,2.087 0.858,4.468 0.103,6.539 -0.743,2.094 -2.135,3.882 -3.759,5.317 -1.635,1.434 -3.541,2.508 -5.532,3.214 -4.034,1.317 -8.331,1.246 -12.174,0.211 -3.853,-1.049 -7.288,-3.033 -9.985,-5.568 -2.693,-2.55 -4.583,-5.678 -5.724,-8.872 -2.308,-6.438 -1.721,-12.973 0.261,-17.967 2.04,-5.035 5.281,-8.621 8.239,-10.991 2.986,-2.387 5.705,-3.676 7.57,-4.409 0.94,-0.358 1.665,-0.612 2.162,-0.752 0.493,-0.154 0.742,-0.246 0.742,-0.246 0,0 -0.259,0.058 -0.757,0.195 -0.504,0.123 -1.235,0.362 -2.185,0.705 -1.884,0.705 -4.632,1.97 -7.658,4.349 -2.999,2.363 -6.292,5.957 -8.383,11.041 -2.033,5.045 -2.657,11.657 -0.339,18.199 1.148,3.245 3.058,6.434 5.796,9.04 2.739,2.587 6.226,4.615 10.149,5.693 3.913,1.062 8.289,1.151 12.435,-0.195 2.05,-0.723 4.006,-1.821 5.691,-3.294 1.675,-1.474 3.12,-3.318 3.903,-5.508 0.794,-2.168 0.819,-4.684 -0.104,-6.889 -0.926,-2.205 -2.682,-4.015 -4.769,-5.216 -2.088,-1.204 -4.555,-1.844 -7.023,-1.693 -2.464,0.132 -4.883,0.922 -7.059,2.136 -4.358,2.444 -7.838,6.487 -9.881,11.192 -2.113,4.696 -2.746,10.065 -2.061,15.284 0.377,2.61 1.135,5.146 2.218,7.513 0.517,1.199 1.207,2.303 1.882,3.408 l 1.154,1.558 c 0.374,0.527 0.85,0.968 1.27,1.454 1.768,1.862 3.786,3.469 5.997,4.701 2.214,1.225 4.565,2.142 6.97,2.766 4.828,1.17 9.868,1.131 14.467,-0.214 4.557,-1.359 8.826,-3.849 11.516,-7.63 1.332,-1.875 2.121,-4.138 2.103,-6.402 -0.003,-2.247 -0.779,-4.524 -2.375,-6.089 -1.585,-1.571 -3.785,-2.309 -5.896,-2.374 -2.134,-0.081 -4.206,0.545 -5.993,1.519 -1.792,0.979 -3.366,2.255 -4.697,3.69 -1.378,1.396 -2.503,2.976 -3.45,4.601 -1.908,3.256 -2.941,6.795 -3.363,10.21 -0.37,3.428 -0.086,6.754 0.728,9.751 0.843,2.992 2.222,5.63 3.864,7.815 3.31,4.39 7.45,6.99 10.978,8.447 3.567,1.46 6.589,1.804 8.595,1.883 1.01,0.053 1.779,0 2.296,-0.04 C -0.263,0.03 0,0 0,0"
               style="fill:#1a2e35;fill-opacity:1;fill-rule:nonzero;stroke:none"
               id="path702" /></g><path
             d="M 370.964,165.256 H 230.753 v 108.142 h 140.211 z"
             style="fill:#ff4f5b;fill-opacity:1;fill-rule:nonzero;stroke:none"
             id="path704" /><g
             id="g706"
             transform="translate(230.7526,273.3976)"><path
               d="M 0,0 25.897,-24.155 H 163.73 L 140.211,0 Z"
               style="fill:#ff4f5b;fill-opacity:1;fill-rule:nonzero;stroke:none"
               id="path708" /></g><g
             id="g710"
             transform="translate(230.7526,273.3976)"><path
               d="m 0,0 c 2.529,0.005 60.44,0.11 140.211,0.256 h 0.107 l 0.076,-0.078 c 7.511,-7.712 15.306,-15.715 23.281,-23.903 0.082,-0.084 0.164,-0.168 0.242,-0.248 l 0.432,-0.443 -0.619,0.001 c -56.518,0.042 -106.68,0.08 -137.833,0.103 h -0.061 l -0.045,0.042 C 9.586,-9.02 0.851,-0.8 0,0 0.857,-0.792 9.665,-8.935 26.005,-24.04 l -0.108,0.042 c 31.153,0.023 81.315,0.061 137.833,0.103 l -0.186,-0.441 c -0.078,0.08 -0.16,0.164 -0.242,0.248 -7.972,8.19 -15.765,16.195 -23.275,23.91 l 0.184,-0.077 C 60.44,-0.11 2.528,-0.004 0,0"
               style="fill:#1a2e35;fill-opacity:1;fill-rule:nonzero;stroke:none"
               id="path712" /></g><g
             id="g714"
             transform="translate(272.8658,223.5319)"><path
               d="m 0,0 c -1.483,-0.003 -2.838,-1.335 -2.863,-2.819 -0.026,-1.484 1.281,-2.863 2.764,-2.916 1.483,-0.053 2.886,1.227 2.967,2.709 0.082,1.481 -1.172,2.909 -2.652,3.018"
               style="fill:#1a2e35;fill-opacity:1;fill-rule:nonzero;stroke:none"
               id="path716" /></g><g
             id="g718"
             transform="translate(305.9723,223.5319)"><path
               d="m 0,0 c -1.483,-0.003 -2.838,-1.335 -2.863,-2.819 -0.026,-1.484 1.281,-2.863 2.764,-2.916 1.483,-0.053 2.886,1.227 2.967,2.709 0.082,1.481 -1.172,2.909 -2.652,3.018"
               style="fill:#1a2e35;fill-opacity:1;fill-rule:nonzero;stroke:none"
               id="path720" /></g><g
             id="g722"
             transform="translate(306.1852,197.6452)"><path
               d="m 0,0 c -0.15,-0.062 -0.371,2.706 -2.775,6.217 -1.182,1.74 -2.95,3.586 -5.297,5.082 -2.333,1.496 -5.296,2.573 -8.497,2.689 -3.204,0.06 -6.222,-0.853 -8.634,-2.219 -2.426,-1.366 -4.293,-3.112 -5.568,-4.786 -2.592,-3.372 -2.965,-6.124 -3.111,-6.053 -0.017,0.004 0.011,0.166 0.081,0.472 0.085,0.302 0.15,0.77 0.367,1.328 0.362,1.141 1.097,2.741 2.37,4.476 1.264,1.737 3.148,3.556 5.625,4.98 2.461,1.425 5.569,2.385 8.884,2.323 3.313,-0.12 6.362,-1.248 8.742,-2.807 2.395,-1.557 4.175,-3.475 5.342,-5.279 1.176,-1.803 1.823,-3.441 2.121,-4.6 0.187,-0.57 0.226,-1.04 0.294,-1.345 C -0.002,0.167 0.018,0.003 0,0"
               style="fill:#1a2e35;fill-opacity:1;fill-rule:nonzero;stroke:none"
               id="path724" /></g><g
             id="g726"><g
               id="g728" /><g
               id="g740"><g
                 clip-path="url(#clipPath732)"
                 opacity="0.5"
                 id="g738"><g
                   transform="translate(231.0704,272.2082)"
                   id="g736"><path
                     d="m 0,0 24.796,-31.439 h 115.097 v 8.474 H 25.58 Z"
                     style="fill:#000000;fill-opacity:1;fill-rule:nonzero;stroke:none"
                     id="path734" /></g></g></g></g><g
             id="g742"
             transform="translate(343.3151,165.5036)"><path
               d="m 0,0 c -0.145,0 -0.261,18.81 -0.261,42.008 0,23.206 0.116,42.013 0.261,42.013 0.144,0 0.26,-18.807 0.26,-42.013 C 0.26,18.81 0.144,0 0,0"
               style="fill:#1a2e35;fill-opacity:1;fill-rule:nonzero;stroke:none"
               id="path744" /></g><path
             d="m 365.331,176.048 h -12.359 v 13.971 h 12.359 z"
             style="fill:#f5f5f5;fill-opacity:1;fill-rule:nonzero;stroke:none"
             id="path746" /><g
             id="g748"
             transform="translate(230.7526,273.3976)"><path
               d="M 0,0 -28.786,-24.155 H 0 Z"
               style="fill:#ff4f5b;fill-opacity:1;fill-rule:nonzero;stroke:none"
               id="path750" /></g><g
             id="g752"><g
               id="g754" /><g
               id="g766"><g
                 clip-path="url(#clipPath758)"
                 opacity="0.399994"
                 id="g764"><g
                   transform="translate(230.7526,273.3976)"
                   id="g762"><path
                     d="M 0,0 -28.786,-24.155 H 0 Z"
                     style="fill:#000000;fill-opacity:1;fill-rule:nonzero;stroke:none"
                     id="path760" /></g></g></g></g><path
             d="M 375.101,40.918 H 213.892 v 124.338 h 161.209 z"
             style="fill:#ff4f5b;fill-opacity:1;fill-rule:nonzero;stroke:none"
             id="path768" /><g
             id="g770"><g
               id="g772" /><g
               id="g782"><g
                 clip-path="url(#clipPath776)"
                 opacity="0.300003"
                 id="g780"><path
                   d="M 375.101,40.918 H 213.892 v 124.338 h 161.209 z"
                   style="fill:#000000;fill-opacity:1;fill-rule:nonzero;stroke:none"
                   id="path778" /></g></g></g><g
             id="g784"
             transform="translate(334.7106,41.7956)"><path
               d="m 0,0 c -0.144,0 -0.26,27.715 -0.26,61.895 0,34.192 0.116,61.901 0.26,61.901 0.145,0 0.261,-27.709 0.261,-61.901 C 0.261,27.715 0.145,0 0,0"
               style="fill:#1a2e35;fill-opacity:1;fill-rule:nonzero;stroke:none"
               id="path786" /></g><path
             d="m 361.432,55.248 h -12.358 v 13.971 h 12.358 z"
             style="fill:#f5f5f5;fill-opacity:1;fill-rule:nonzero;stroke:none"
             id="path788" /><path
             d="m 263.073,138.404 h 18.311 v 26.531 h -18.311 z"
             style="fill:#1a2e35;fill-opacity:1;fill-rule:nonzero;stroke:none"
             id="path790" /><path
             d="m 263.073,41.288 h 18.311 v 26.53 h -18.311 z"
             style="fill:#1a2e35;fill-opacity:1;fill-rule:nonzero;stroke:none"
             id="path792" /><g
             id="g794"
             transform="translate(373.6959,165.2556)"><path
               d="M 0,0 C 0,-0.009 -0.141,-0.018 -0.413,-0.026 -0.71,-0.033 -1.111,-0.042 -1.624,-0.053 -2.716,-0.064 -4.279,-0.08 -6.28,-0.102 c -4.071,-0.019 -9.914,-0.047 -17.123,-0.082 -14.483,-0.019 -34.446,-0.045 -56.495,-0.075 -22.057,0.03 -42.022,0.056 -56.504,0.075 -7.209,0.035 -13.053,0.063 -17.123,0.082 -2,0.022 -3.563,0.038 -4.655,0.049 -0.513,0.011 -0.914,0.02 -1.211,0.027 -0.273,0.008 -0.413,0.017 -0.413,0.026 0,0.009 0.14,0.018 0.413,0.026 0.297,0.007 0.698,0.015 1.211,0.027 1.092,0.01 2.655,0.027 4.655,0.049 4.07,0.019 9.914,0.047 17.123,0.083 14.482,0.019 34.447,0.046 56.504,0.077 C -57.849,0.231 -37.886,0.204 -23.403,0.185 -16.194,0.149 -10.351,0.121 -6.28,0.102 -4.279,0.08 -2.716,0.063 -1.624,0.053 -1.111,0.041 -0.71,0.033 -0.413,0.026 -0.141,0.018 0,0.009 0,0"
               style="fill:#1a2e35;fill-opacity:1;fill-rule:nonzero;stroke:none"
               id="path796" /></g></g></g><g
         id="g798"><g
           id="g800"
           clip-path="url(#clipPath804)"><g
             id="g806"
             transform="translate(97.4176,380.5319)"><path
               d="m 0,0 c -1.16,0.285 -6.747,1.658 -17.554,4.313 l 0.129,0.02 c -3.86,-2.461 -9.09,-4.448 -15.153,-4.542 -3.015,0.011 -6.206,0.373 -9.389,1.371 -3.181,0.99 -6.309,2.634 -9.151,4.85 -5.687,4.399 -10.115,11.449 -11.071,19.564 -0.488,4.031 -0.162,8.269 1.093,12.326 1.278,4.047 3.481,7.882 6.45,11.11 1.504,1.705 3.276,3.121 5.083,4.429 0.95,0.586 1.885,1.195 2.863,1.71 l 1.493,0.719 0.744,0.358 0.774,0.282 c 4.09,1.587 8.443,2.2 12.621,1.922 4.182,-0.268 8.188,-1.439 11.692,-3.283 3.51,-1.839 6.519,-4.337 8.881,-7.173 2.369,-2.838 4.09,-6.01 5.185,-9.211 1.095,-3.206 1.593,-6.431 1.622,-9.478 0.036,-6.121 -1.877,-11.372 -4.205,-15.206 l 10e-4,0.159 C -3.01,5.432 -0.544,0.982 0,0 -0.563,0.971 -3.115,5.373 -8.166,14.084 l -0.045,0.079 0.047,0.08 c 2.27,3.814 4.12,9.008 4.051,15.042 -0.045,3.003 -0.552,6.175 -1.641,9.325 -1.091,3.145 -2.795,6.258 -5.131,9.038 -2.331,2.78 -5.293,5.225 -8.742,7.023 -3.444,1.801 -7.375,2.941 -11.478,3.199 -4.1,0.266 -8.366,-0.341 -12.374,-1.898 l -0.758,-0.278 -0.729,-0.351 -1.463,-0.705 c -0.959,-0.506 -1.875,-1.104 -2.806,-1.678 -1.77,-1.283 -3.508,-2.67 -4.982,-4.343 -2.91,-3.164 -5.072,-6.922 -6.327,-10.887 -1.232,-3.975 -1.557,-8.132 -1.084,-12.086 0.926,-7.958 5.253,-14.887 10.827,-19.227 2.786,-2.186 5.855,-3.813 8.979,-4.8 3.128,-0.994 6.266,-1.365 9.238,-1.392 5.974,0.063 11.145,1.986 14.982,4.389 l 0.062,0.038 0.068,-0.018 C -6.715,1.781 -1.153,0.306 0,0"
               style="fill:#1a2e35;fill-opacity:1;fill-rule:nonzero;stroke:none"
               id="path808" /></g><g
             id="g810"
             transform="translate(61.9606,422.6999)"><path
               d="m 0,0 0.929,-14.663 c 0.075,-1.199 1.033,-2.153 2.233,-2.225 1.265,-0.075 2.367,0.854 2.506,2.114 L 7.296,-0.037 C 7.419,1.079 6.537,2.05 5.414,2.035 L 1.837,1.985 C 0.77,1.97 -0.067,1.065 0,0"
               style="fill:#ff4f5b;fill-opacity:1;fill-rule:nonzero;stroke:none"
               id="path812" /></g><g
             id="g814"
             transform="translate(69.0089,397.5646)"><path
               d="M 0,0 C -0.623,-1.876 -2.648,-2.892 -4.524,-2.269 -6.4,-1.646 -7.416,0.379 -6.793,2.255 -6.17,4.131 -4.145,5.147 -2.269,4.524 -0.393,3.901 0.623,1.876 0,0"
               style="fill:#ff4f5b;fill-opacity:1;fill-rule:nonzero;stroke:none"
               id="path816" /></g></g></g><text
         xml:space="preserve"
         style="font-style:normal;font-weight:normal;font-size:20px;line-height:1.25;font-family:sans-serif;fill:#b33740;fill-opacity:1;stroke:none;stroke-width:0.75"
         x="72.637543"
         y="-12.799265"
         id="text820"
         transform="scale(1,-1)"><tspan
           id="tspan818"
           x="72.637543"
           y="-12.799265"
           style="font-size:20px;fill:#b33740;fill-opacity:1;stroke-width:0.75">Maaf! Tidak ada produk yang tersedia</tspan></text></g></g></svg>
