<?xml version="1.0" encoding="UTF-8" standalone="no"?>
<svg
   xmlns:dc="http://purl.org/dc/elements/1.1/"
   xmlns:cc="http://creativecommons.org/ns#"
   xmlns:rdf="http://www.w3.org/1999/02/22-rdf-syntax-ns#"
   xmlns:svg="http://www.w3.org/2000/svg"
   xmlns="http://www.w3.org/2000/svg"
   xmlns:sodipodi="http://sodipodi.sourceforge.net/DTD/sodipodi-0.dtd"
   xmlns:inkscape="http://www.inkscape.org/namespaces/inkscape"
   inkscape:version="1.0 (4035a4fb49, 2020-05-01)"
   sodipodi:docname="no-shipping-addresses-available.svg"
   viewBox="0 0 666.66669 666.66669"
   height="666.66669"
   width="666.66669"
   xml:space="preserve"
   id="svg16"
   version="1.1"><metadata
     id="metadata22"><rdf:RDF><cc:Work
         rdf:about=""><dc:format>image/svg+xml</dc:format><dc:type
           rdf:resource="http://purl.org/dc/dcmitype/StillImage" /><dc:title></dc:title></cc:Work></rdf:RDF></metadata><defs
     id="defs20"><clipPath
       id="clipPath32"
       clipPathUnits="userSpaceOnUse"><path
         id="path30"
         d="M 0,500 H 500 V 0 H 0 Z" /></clipPath><clipPath
       id="clipPath60"
       clipPathUnits="userSpaceOnUse"><path
         id="path58"
         d="M 0,500 H 500 V 0 H 0 Z" /></clipPath><clipPath
       id="clipPath72"
       clipPathUnits="userSpaceOnUse"><path
         id="path70"
         d="M 0,500 H 500 V 0 H 0 Z" /></clipPath><clipPath
       id="clipPath108"
       clipPathUnits="userSpaceOnUse"><path
         id="path106"
         d="M 0,500 H 500 V 0 H 0 Z" /></clipPath><clipPath
       id="clipPath124"
       clipPathUnits="userSpaceOnUse"><path
         id="path122"
         d="M 275.637,328.31 H 358.38 V 274.657 H 275.637 Z" /></clipPath><clipPath
       id="clipPath144"
       clipPathUnits="userSpaceOnUse"><path
         id="path142"
         d="M 276.526,330.476 H 351.84 V 278.527 H 276.526 Z" /></clipPath><clipPath
       id="clipPath180"
       clipPathUnits="userSpaceOnUse"><path
         id="path178"
         d="m 283.502,365.254 h 85.456 v -29.281 h -85.456 z" /></clipPath><clipPath
       id="clipPath200"
       clipPathUnits="userSpaceOnUse"><path
         id="path198"
         d="m 284.645,366.244 h 81.574 v -25.619 h -81.574 z" /></clipPath><clipPath
       id="clipPath236"
       clipPathUnits="userSpaceOnUse"><path
         id="path234"
         d="m 273.595,409.919 h 87.259 v -27.306 h -87.259 z" /></clipPath><clipPath
       id="clipPath256"
       clipPathUnits="userSpaceOnUse"><path
         id="path254"
         d="m 273.441,409.66 h 81.842 v -26.739 h -81.842 z" /></clipPath><clipPath
       id="clipPath288"
       clipPathUnits="userSpaceOnUse"><path
         id="path286"
         d="M 0,500 H 500 V 0 H 0 Z" /></clipPath><clipPath
       id="clipPath300"
       clipPathUnits="userSpaceOnUse"><path
         id="path298"
         d="M 0,500 H 500 V 0 H 0 Z" /></clipPath><clipPath
       id="clipPath336"
       clipPathUnits="userSpaceOnUse"><path
         id="path334"
         d="m 314.175,223.895 h 25.658 v -55.574 h -25.658 z" /></clipPath><clipPath
       id="clipPath420"
       clipPathUnits="userSpaceOnUse"><path
         id="path418"
         d="M 0,500 H 500 V 0 H 0 Z" /></clipPath><clipPath
       id="clipPath440"
       clipPathUnits="userSpaceOnUse"><path
         id="path438"
         d="m 127.519,49.3185 h 17.69 v -3.8923 h -17.69 z" /></clipPath><clipPath
       id="clipPath492"
       clipPathUnits="userSpaceOnUse"><path
         id="path490"
         d="m 167.661,44.52 h 18.546 v -4.3848 h -18.546 z" /></clipPath><clipPath
       id="clipPath632"
       clipPathUnits="userSpaceOnUse"><path
         id="path630"
         d="m 156.027,283.275 h 26.136 v -50.944 h -26.136 z" /></clipPath><clipPath
       id="clipPath648"
       clipPathUnits="userSpaceOnUse"><path
         id="path646"
         d="m 106.357,281.417 h 14.22 v -22.204 h -14.22 z" /></clipPath><clipPath
       id="clipPath664"
       clipPathUnits="userSpaceOnUse"><path
         id="path662"
         d="m 192.134,323.958 h 13.294 v -4.61 h -13.294 z" /></clipPath><clipPath
       id="clipPath688"
       clipPathUnits="userSpaceOnUse"><path
         id="path686"
         d="m 146.551,211.328 h 6.526 v -16.157 h -6.526 z" /></clipPath></defs><sodipodi:namedview
     inkscape:current-layer="g24"
     inkscape:window-maximized="1"
     inkscape:window-y="-8"
     inkscape:window-x="-8"
     inkscape:cy="184.63445"
     inkscape:cx="394.8893"
     inkscape:zoom="0.80699998"
     showgrid="false"
     id="namedview18"
     inkscape:window-height="706"
     inkscape:window-width="1366"
     inkscape:pageshadow="2"
     inkscape:pageopacity="0"
     guidetolerance="10"
     gridtolerance="10"
     objecttolerance="10"
     borderopacity="1"
     bordercolor="#666666"
     pagecolor="#ffffff" /><g
     transform="matrix(1.3333333,0,0,-1.3333333,0,666.66667)"
     inkscape:label="3610109"
     inkscape:groupmode="layer"
     id="g24"><g
       transform="translate(1.8587362,-17.657994)"
       id="g1299"><g
         id="g994"
         transform="matrix(0.937131,0,0,0.937131,18.828966,65.708845)"><g
           id="g26"><g
             clip-path="url(#clipPath32)"
             id="g28"><g
               transform="translate(451.318,292.2834)"
               id="g34"><path
                 id="path36"
                 style="fill:#ececec;fill-opacity:1;fill-rule:nonzero;stroke:none"
                 d="M 0,0 C -7.03,12.457 -19.146,23.136 -33.815,25.089 -48.908,27.1 -63.704,19.703 -75.548,10.54 -87.486,1.303 -97.69,-9.975 -105.531,-22.598 c -4.63,-7.455 -9.357,-16.117 -18.067,-18.543 -8.201,-2.283 -16.823,2.005 -23.432,7.175 -6.61,5.171 -12.552,11.503 -20.516,14.454 -20.765,7.694 -43.918,-10.751 -65.481,-5.43 -18.569,4.583 -27.464,24.031 -39.023,38.653 -19.062,24.113 -52.177,38.057 -83.357,33.009 -31.18,-5.048 -54.896,-57.479 -59.202,-87.416 l 427.094,0.14 C 9.805,-26.637 7.03,-12.457 0,0" /></g><g
               transform="translate(117.3483,400.3923)"
               id="g38"><path
                 id="path40"
                 style="fill:#f5f5f5;fill-opacity:1;fill-rule:nonzero;stroke:none"
                 d="m 0,0 c 0.384,2.787 -3.55,5.08 -6.505,5.318 -1.41,0.114 -2.874,-0.102 -4.21,0.364 -2.893,1.008 -4.049,4.746 -6.871,5.937 -2.111,0.89 -4.541,0.097 -6.587,-0.932 -2.046,-1.03 -4.068,-2.326 -6.354,-2.472 -1.989,-0.128 -4.148,0.61 -5.887,-0.361 -1.296,-0.724 -1.976,-2.218 -3.17,-3.099 -1.169,-0.862 -2.694,-1.045 -4.145,-1.124 -1.45,-0.079 -2.952,-0.093 -4.272,-0.698 -1.321,-0.605 -2.413,-2.001 -2.139,-3.428 z" /></g><g
               transform="translate(250.2296,373.86)"
               id="g42"><path
                 id="path44"
                 style="fill:#f5f5f5;fill-opacity:1;fill-rule:nonzero;stroke:none"
                 d="m 0,0 c 0.384,2.787 -3.55,5.08 -6.506,5.318 -1.409,0.114 -2.873,-0.102 -4.209,0.364 -2.893,1.008 -4.049,4.746 -6.871,5.937 -2.111,0.89 -4.541,0.097 -6.587,-0.932 -2.046,-1.03 -4.068,-2.326 -6.354,-2.473 -1.989,-0.127 -4.148,0.611 -5.887,-0.36 -1.296,-0.725 -1.976,-2.218 -3.17,-3.1 -1.169,-0.861 -2.694,-1.044 -4.145,-1.123 -1.45,-0.079 -2.952,-0.093 -4.272,-0.698 -1.321,-0.605 -2.414,-2.001 -2.139,-3.428 z" /></g><g
               transform="translate(468.0992,375.4997)"
               id="g46"><path
                 id="path48"
                 style="fill:#ececec;fill-opacity:1;fill-rule:nonzero;stroke:none"
                 d="m 0,0 c 0.691,5.02 -6.394,9.149 -11.717,9.579 -2.539,0.204 -5.177,-0.184 -7.581,0.654 -5.211,1.816 -7.293,8.549 -12.377,10.693 -3.802,1.603 -8.178,0.176 -11.863,-1.678 -3.686,-1.855 -7.327,-4.189 -11.444,-4.453 -3.581,-0.229 -7.471,1.099 -10.604,-0.65 -2.335,-1.304 -3.558,-3.995 -5.71,-5.582 -2.105,-1.553 -4.851,-1.881 -7.464,-2.023 -2.612,-0.143 -5.316,-0.169 -7.695,-1.258 -2.379,-1.089 -4.347,-3.604 -3.853,-6.174 z" /></g><g
               transform="translate(262.5406,425.2795)"
               id="g50"><path
                 id="path52"
                 style="fill:#ececec;fill-opacity:1;fill-rule:nonzero;stroke:none"
                 d="m 0,0 c 0.874,6.347 -8.084,11.569 -14.815,12.111 -3.211,0.259 -6.545,-0.232 -9.586,0.828 -6.589,2.297 -9.221,10.809 -15.65,13.521 -4.806,2.027 -10.34,0.222 -15,-2.123 -4.659,-2.345 -9.264,-5.296 -14.47,-5.629 -4.528,-0.291 -9.446,1.389 -13.408,-0.823 -2.952,-1.649 -4.498,-5.051 -7.219,-7.057 -2.663,-1.964 -6.135,-2.38 -9.438,-2.559 -3.303,-0.18 -6.723,-0.213 -9.73,-1.59 -3.008,-1.377 -5.496,-4.558 -4.871,-7.806 z" /></g></g></g><g
           id="g54"><g
             clip-path="url(#clipPath60)"
             id="g56"><g
               transform="translate(432.4645,368.4836)"
               id="g62"><path
                 id="path64"
                 style="fill:#f5f5f5;fill-opacity:1;fill-rule:nonzero;stroke:none"
                 d="m 0,0 c -16.682,19.907 -46.162,27.945 -70.64,19.261 -17.089,-6.063 -31.821,-19.382 -49.899,-20.784 -13.449,-1.044 -26.624,4.883 -37.355,13.058 -10.73,8.175 -19.535,18.553 -29.02,28.145 -17.969,18.173 -39.133,33.966 -63.579,41.414 -24.447,7.448 -52.541,5.634 -73.554,-8.91 -26.528,-18.36 -37.137,-53.357 -35.45,-85.575 1.354,-25.864 9.774,-51.807 26.473,-71.604 16.699,-19.798 42.15,-32.783 68.024,-31.619 l 130.216,1.799 c 25.006,-3.122 54.673,-1.385 79.508,2.888 24.836,4.272 49.429,17.097 61.881,39.007 C 19.438,-50.339 16.682,-19.908 0,0" /></g></g></g><g
           id="g66"><g
             clip-path="url(#clipPath72)"
             id="g68"><g
               transform="translate(18.6256,135.6218)"
               id="g74"><path
                 id="path76"
                 style="fill:#e1e1e1;fill-opacity:1;fill-rule:nonzero;stroke:none"
                 d="M 0,0 3.182,29.17 184.616,17.295 c 8.159,-0.534 15.345,5.326 16.464,13.427 l 11.831,85.709 h 41.137 l 17.786,-87.614 c 1.529,-7.53 8.317,-12.825 15.993,-12.473 l 170.434,7.804 V -6.474 L 308.625,-32.026 c -14.733,-1.473 -25.282,-14.909 -23.216,-29.571 l 7.031,-49.9 -105.486,-0.049 4.271,45.697 c 1.636,17.512 -10.589,33.292 -27.955,36.082 z" /></g><g
               transform="translate(259.9537,173.0485)"
               id="g78"><path
                 id="path80"
                 style="fill:#f5f5f5;fill-opacity:1;fill-rule:nonzero;stroke:none"
                 d="m 0,0 h -9.954 l 2.362,42.723 4.313,-0.01 z" /></g><g
               transform="translate(263.5328,74.446)"
               id="g82"><path
                 id="path84"
                 style="fill:#f5f5f5;fill-opacity:1;fill-rule:nonzero;stroke:none"
                 d="m 0,0 h -13.533 l 2.412,52.901 7.394,-0.016 z" /></g><g
               transform="translate(324.5221,125.1794)"
               id="g86"><path
                 id="path88"
                 style="fill:#f5f5f5;fill-opacity:1;fill-rule:nonzero;stroke:none"
                 d="m 0,0 -0.958,8.268 52.721,4.617 1.428,-5.49 z" /></g><g
               transform="translate(431.3854,136.5534)"
               id="g90"><path
                 id="path92"
                 style="fill:#f5f5f5;fill-opacity:1;fill-rule:nonzero;stroke:none"
                 d="m 0,0 -0.959,8.268 46.46,4.069 V 6.325 Z" /></g><g
               transform="translate(188.6271,130.111)"
               id="g94"><path
                 id="path96"
                 style="fill:#f5f5f5;fill-opacity:1;fill-rule:nonzero;stroke:none"
                 d="m 0,0 0.958,8.268 -52.72,4.617 -1.429,-5.49 z" /></g><g
               transform="translate(71.8161,142.9958)"
               id="g98"><path
                 id="path100"
                 style="fill:#f5f5f5;fill-opacity:1;fill-rule:nonzero;stroke:none"
                 d="m 0,0 0.765,6.603 -51.71,6.603 -0.659,-6.032 z" /></g></g></g><g
           id="g102"><g
             clip-path="url(#clipPath108)"
             id="g104"><g
               transform="translate(320.7155,170.8083)"
               id="g110"><path
                 id="path112"
                 style="fill:#1a2e35;fill-opacity:1;fill-rule:nonzero;stroke:none"
                 d="m 0,0 h -8.598 v 260.798 c 0,2.374 1.925,4.299 4.299,4.299 2.374,0 4.299,-1.925 4.299,-4.299 z" /></g><g
               transform="translate(275.6364,326.0993)"
               id="g114"><path
                 id="path116"
                 style="fill:#ff4f5b;fill-opacity:1;fill-rule:nonzero;stroke:none"
                 d="m 0,0 23.834,2.21 58.909,-31.706 -3.936,-7.315 -7.434,0.028 4.946,-4.649 -5.387,-10.01 -58.526,31.498 z" /></g><g
               id="g118"><g
                 id="g120" /><g
                 id="g132"><g
                   id="g130"
                   opacity="0.300003"
                   clip-path="url(#clipPath124)"><g
                     id="g128"
                     transform="translate(275.6364,326.0993)"><path
                       id="path126"
                       style="fill:#000000;fill-opacity:1;fill-rule:nonzero;stroke:none"
                       d="m 0,0 23.834,2.21 58.909,-31.706 -3.936,-7.315 -7.434,0.028 4.946,-4.649 -5.387,-10.01 -58.526,31.498 z" /></g></g></g></g><g
               transform="translate(274.9108,329.1345)"
               id="g134"><path
                 id="path136"
                 style="fill:#ff4f5b;fill-opacity:1;fill-rule:nonzero;stroke:none"
                 d="m 0,0 16.817,1.56 c 1.893,0.175 3.796,-0.212 5.471,-1.113 l 56.343,-30.324 -3.938,-7.316 -7.433,0.028 4.946,-4.648 -5.388,-10.011 -56.258,30.279 c -1.486,0.799 -2.735,1.973 -3.625,3.404 L -1.931,-3.889 C -2.934,-2.278 -1.89,-0.175 0,0" /></g><g
               id="g138"><g
                 id="g140" /><g
                 id="g168"><g
                   id="g166"
                   opacity="0.199997"
                   clip-path="url(#clipPath144)"><g
                     id="g148"
                     transform="translate(339.3073,278.527)"><path
                       id="path146"
                       style="fill:#000000;fill-opacity:1;fill-rule:nonzero;stroke:none"
                       d="m 0,0 c -0.07,-0.022 -0.092,0.979 -0.983,2.43 -0.874,1.462 -2.731,3.124 -5.261,4.828 -4.991,3.512 -12.22,7.94 -20.773,11.649 -4.267,1.867 -8.468,3.326 -12.254,4.762 -3.789,1.424 -7.162,2.84 -9.885,4.258 -2.733,1.4 -4.806,2.789 -6.161,3.839 -0.695,0.504 -1.185,0.958 -1.528,1.251 -0.339,0.297 -0.51,0.46 -0.499,0.474 0.035,0.042 0.754,-0.576 2.147,-1.562 1.384,-0.994 3.471,-2.325 6.208,-3.674 2.726,-1.367 6.094,-2.74 9.887,-4.137 3.787,-1.408 8.002,-2.857 12.293,-4.733 8.592,-3.726 15.827,-8.227 20.778,-11.826 2.51,-1.747 4.381,-3.492 5.222,-5.025 0.427,-0.755 0.64,-1.402 0.726,-1.848 0.057,-0.22 0.061,-0.395 0.078,-0.51 C 0.007,0.061 0.009,0.001 0,0" /></g><g
                     id="g152"
                     transform="translate(276.9137,329.0397)"><path
                       id="path150"
                       style="fill:#000000;fill-opacity:1;fill-rule:nonzero;stroke:none"
                       d="m 0,0 c 0.08,-0.001 -0.477,-1.16 -0.087,-3.259 0.2,-1.034 0.665,-2.266 1.523,-3.496 0.854,-1.234 2.084,-2.446 3.565,-3.634 2.98,-2.369 6.705,-4.982 11.019,-7.589 4.309,-2.617 9.198,-5.24 14.382,-7.894 10.363,-5.295 19.741,-10.086 26.581,-13.582 3.358,-1.742 6.089,-3.159 8.031,-4.167 0.91,-0.484 1.633,-0.87 2.171,-1.156 0.494,-0.269 0.749,-0.419 0.741,-0.434 -0.009,-0.017 -0.28,0.101 -0.789,0.34 -0.548,0.265 -1.286,0.621 -2.215,1.07 -1.959,0.971 -4.716,2.339 -8.105,4.019 -6.859,3.461 -16.262,8.204 -26.652,13.447 -5.189,2.656 -10.085,5.298 -14.395,7.947 -4.317,2.64 -8.033,5.293 -11.002,7.714 -1.481,1.218 -2.72,2.473 -3.573,3.755 -0.858,1.28 -1.307,2.558 -1.481,3.624 -0.18,1.069 -0.088,1.92 0.024,2.474 C -0.139,-0.267 0,0 0,0" /></g><g
                     id="g156"
                     transform="translate(300.066,318.113)"><path
                       id="path154"
                       style="fill:#000000;fill-opacity:1;fill-rule:nonzero;stroke:none"
                       d="m 0,0 c -0.017,-0.009 -0.185,0.236 -0.494,0.708 -0.326,0.459 -0.797,1.146 -1.492,1.958 -1.379,1.61 -3.669,3.808 -7.14,5.407 -0.867,0.387 -1.795,0.77 -2.797,0.983 -0.993,0.212 -2.094,0.258 -3.095,-0.139 -0.985,-0.385 -1.918,-1.207 -2.119,-2.313 -0.219,-1.108 0.3,-2.276 0.986,-3.291 2.875,-4.147 7.446,-7.528 12.508,-10.393 1.269,-0.719 2.538,-1.432 3.794,-2.072 1.255,-0.623 2.575,-1.121 3.903,-1.119 1.316,-0.015 2.64,0.468 3.4,1.465 0.764,0.993 0.982,2.318 0.824,3.516 C 8.116,-4.074 7.609,-2.948 7.032,-1.915 6.444,-0.882 5.799,0.091 5.166,1.017 3.88,2.856 2.514,4.448 1.15,5.783 c -2.73,2.677 -5.435,4.265 -7.345,5.21 -0.958,0.476 -1.723,0.807 -2.246,1.016 -0.523,0.214 -0.794,0.335 -0.788,0.352 0.005,0.017 0.289,-0.071 0.825,-0.254 0.538,-0.178 1.318,-0.48 2.297,-0.931 C -4.158,10.281 -1.393,8.725 1.406,6.048 2.803,4.714 4.203,3.115 5.52,1.266 6.168,0.333 6.821,-0.637 7.431,-1.69 8.028,-2.744 8.571,-3.917 8.754,-5.226 8.928,-6.523 8.713,-7.97 7.848,-9.111 6.974,-10.263 5.477,-10.796 4.053,-10.78 c -1.456,-0.005 -2.845,0.529 -4.131,1.163 -1.286,0.653 -2.543,1.359 -3.823,2.085 -5.091,2.884 -9.723,6.311 -12.649,10.579 -0.704,1.057 -1.296,2.338 -1.036,3.646 0.256,1.309 1.328,2.213 2.412,2.626 1.119,0.431 2.299,0.361 3.337,0.13 C -10.788,9.213 -9.85,8.811 -8.972,8.407 -5.456,6.735 -3.175,4.461 -1.83,2.795 -1.151,1.955 -0.705,1.244 -0.405,0.764 -0.123,0.272 0.015,0.009 0,0" /></g><g
                     id="g160"
                     transform="translate(351.8395,295.9343)"><path
                       id="path158"
                       style="fill:#000000;fill-opacity:1;fill-rule:nonzero;stroke:none"
                       d="m 0,0 c -0.02,-0.051 -0.809,0.34 -2.343,0.642 -1.529,0.312 -3.807,0.412 -6.584,0.051 -2.776,-0.31 -6.048,-1.167 -9.817,-1.207 -1.879,-0.008 -3.871,0.294 -5.801,0.985 -1.934,0.681 -3.814,1.706 -5.563,2.983 -3.487,2.592 -6.121,5.851 -8.106,9.005 -1.993,3.162 -3.426,6.206 -4.64,8.737 -1.205,2.54 -2.2,4.58 -2.931,5.97 -0.347,0.654 -0.627,1.184 -0.846,1.598 -0.193,0.366 -0.287,0.563 -0.271,0.572 0.015,0.01 0.139,-0.169 0.362,-0.519 0.226,-0.348 0.54,-0.872 0.933,-1.554 0.788,-1.363 1.837,-3.387 3.085,-5.905 1.256,-2.512 2.717,-5.525 4.713,-8.641 1.985,-3.107 4.593,-6.304 8.009,-8.843 3.409,-2.526 7.374,-3.951 11.057,-3.908 3.682,0.01 6.967,0.825 9.774,1.093 2.808,0.318 5.13,0.16 6.669,-0.219 C -1.526,0.666 -0.952,0.438 -0.565,0.287 -0.187,0.115 0.008,0.017 0,0" /></g><g
                     id="g164"
                     transform="translate(331.2086,306.0114)"><path
                       id="path162"
                       style="fill:#000000;fill-opacity:1;fill-rule:nonzero;stroke:none"
                       d="M 0,0 C -0.007,-0.016 -0.213,0.056 -0.595,0.217 -0.977,0.376 -1.533,0.63 -2.235,0.986 -2.937,1.345 -3.783,1.809 -4.731,2.404 -5.206,2.701 -5.706,3.031 -6.227,3.396 -6.724,3.765 -7.358,4.113 -7.733,4.811 -7.93,5.126 -7.979,5.7 -7.61,6.027 c 0.365,0.338 0.861,0.297 1.243,0.22 0.778,-0.205 1.509,-0.466 2.3,-0.738 C -2.505,4.959 -0.858,4.301 0.831,3.513 2.522,2.73 4.256,1.816 5.995,0.771 6.859,0.262 7.796,-0.334 8.397,-1.303 8.695,-1.777 8.85,-2.432 8.653,-3.021 8.478,-3.617 7.976,-4.069 7.447,-4.3 6.367,-4.776 5.24,-4.695 4.201,-4.658 c -1.055,0.051 -2.09,0.191 -3.091,0.397 -2.006,0.404 -3.871,1.094 -5.541,1.949 -3.358,1.715 -5.819,4.175 -7.447,6.479 -1.632,2.321 -2.481,4.481 -2.929,5.989 -0.227,0.755 -0.357,1.354 -0.43,1.762 -0.072,0.409 -0.101,0.624 -0.083,0.628 0.049,0.01 0.208,-0.847 0.707,-2.329 0.501,-1.473 1.392,-3.581 3.034,-5.836 1.64,-2.237 4.073,-4.612 7.366,-6.266 1.639,-0.824 3.465,-1.489 5.424,-1.876 0.978,-0.197 1.988,-0.332 3.017,-0.38 1.025,-0.04 2.094,-0.093 3.003,0.315 0.445,0.199 0.796,0.53 0.926,0.961 0.141,0.428 0.042,0.893 -0.205,1.298 C 7.444,-0.743 6.592,-0.17 5.731,0.334 4.012,1.376 2.299,2.291 0.628,3.079 -1.042,3.871 -2.669,4.539 -4.214,5.103 -4.979,5.377 -5.751,5.658 -6.452,5.854 -6.797,5.934 -7.153,5.934 -7.346,5.747 -7.556,5.559 -7.553,5.26 -7.404,4.978 -7.117,4.402 -6.535,4.046 -6.033,3.666 -5.525,3.293 -5.037,2.956 -4.574,2.649 -3.648,2.035 -2.822,1.549 -2.14,1.165 -1.456,0.783 -0.917,0.502 -0.55,0.312 -0.184,0.121 0.008,0.017 0,0" /></g></g></g></g><g
               transform="translate(368.9576,350.4992)"
               id="g170"><path
                 id="path172"
                 style="fill:#ff4f5b;fill-opacity:1;fill-rule:nonzero;stroke:none"
                 d="m 0,0 -0.128,0.114 -16.849,9.964 -66.737,4.677 -0.581,-8.288 6.299,-3.947 -6.665,-1.287 -0.795,-11.341 62.558,-4.384 c 2.452,-0.172 4.907,0.301 7.12,1.371 l 12.366,5.983 C -0.808,-5.878 0,-2.982 0,0" /></g><g
               id="g174"><g
                 id="g176" /><g
                 id="g188"><g
                   id="g186"
                   opacity="0.300003"
                   clip-path="url(#clipPath180)"><g
                     id="g184"
                     transform="translate(368.9576,350.4992)"><path
                       id="path182"
                       style="fill:#000000;fill-opacity:1;fill-rule:nonzero;stroke:none"
                       d="m 0,0 -0.128,0.114 -16.849,9.964 -66.737,4.677 -0.581,-8.288 6.299,-3.947 -6.665,-1.287 -0.795,-11.341 62.558,-4.384 c 2.452,-0.172 4.907,0.301 7.12,1.371 l 12.366,5.983 C -0.681,-4.997 0,-2.982 0,0" /></g></g></g></g><g
               transform="translate(367.9625,351.842)"
               id="g190"><path
                 id="path192"
                 style="fill:#ff4f5b;fill-opacity:1;fill-rule:nonzero;stroke:none"
                 d="m 0,0 -13.382,10.304 c -1.506,1.16 -3.322,1.85 -5.219,1.983 l -63.828,4.473 -0.581,-8.288 6.299,-3.948 -6.665,-1.286 -0.795,-11.341 63.734,-4.466 c 1.681,-0.119 3.365,0.206 4.882,0.94 l 15.11,7.31 C 1.263,-3.493 1.503,-1.158 0,0" /></g><g
               id="g194"><g
                 id="g196" /><g
                 id="g224"><g
                   id="g222"
                   opacity="0.199997"
                   clip-path="url(#clipPath200)"><g
                     id="g204"
                     transform="translate(286.4889,343.4733)"><path
                       id="path202"
                       style="fill:#000000;fill-opacity:1;fill-rule:nonzero;stroke:none"
                       d="M 0,0 C -0.007,0.006 0.026,0.055 0.099,0.146 0.174,0.234 0.271,0.38 0.437,0.536 0.748,0.867 1.273,1.3 2.038,1.71 c 1.53,0.846 4.044,1.322 7.099,1.457 6.108,0.396 14.629,0.335 23.882,-1.106 4.629,-0.707 8.966,-1.735 12.92,-2.568 3.952,-0.846 7.533,-1.484 10.568,-1.786 3.034,-0.322 5.509,-0.312 7.211,-0.211 1.703,0.088 2.641,0.227 2.648,0.172 0.003,-0.017 -0.229,-0.063 -0.675,-0.133 -0.446,-0.065 -1.103,-0.186 -1.959,-0.242 -1.707,-0.163 -4.202,-0.23 -7.259,0.047 -3.06,0.257 -6.668,0.862 -10.632,1.683 -3.967,0.81 -8.297,1.821 -12.902,2.523 C 23.729,2.981 15.251,3.1 9.156,2.799 6.106,2.71 3.649,2.297 2.129,1.529 0.601,0.778 0.048,-0.056 0,0" /></g><g
                     id="g208"
                     transform="translate(366.2194,352.8322)"><path
                       id="path206"
                       style="fill:#000000;fill-opacity:1;fill-rule:nonzero;stroke:none"
                       d="M 0,0 C 0,0 -0.026,-0.3 -0.218,-0.834 -0.419,-1.362 -0.796,-2.13 -1.52,-2.939 -2.235,-3.747 -3.299,-4.587 -4.708,-5.21 c -1.405,-0.628 -3.124,-1.027 -5.025,-1.265 -3.804,-0.46 -8.363,-0.716 -13.422,-0.642 -5.059,0.064 -10.61,0.447 -16.414,0.974 -11.584,1.121 -22.068,2.135 -29.714,2.875 -3.762,0.39 -6.823,0.707 -8.998,0.933 -1.026,0.118 -1.839,0.211 -2.445,0.28 -0.557,0.07 -0.85,0.115 -0.848,0.133 0.002,0.018 0.297,0.007 0.858,-0.028 0.608,-0.046 1.425,-0.107 2.453,-0.183 2.179,-0.186 5.245,-0.447 9.014,-0.768 7.65,-0.701 18.138,-1.662 29.726,-2.724 5.8,-0.526 11.335,-0.922 16.376,-1.012 5.04,-0.101 9.583,0.117 13.368,0.528 1.887,0.213 3.574,0.579 4.956,1.166 1.382,0.582 2.433,1.374 3.154,2.141 C -0.217,-1.235 -0.068,0.042 0,0" /></g><g
                     id="g212"
                     transform="translate(340.8112,355.9665)"><path
                       id="path210"
                       style="fill:#000000;fill-opacity:1;fill-rule:nonzero;stroke:none"
                       d="m 0,0 c -0.009,0.016 0.249,0.165 0.75,0.43 0.51,0.245 1.268,0.607 2.29,0.955 2.026,0.69 5.169,1.393 9.034,0.928 0.959,-0.127 1.968,-0.29 2.98,-0.651 1.001,-0.359 2.035,-0.93 2.751,-1.892 0.695,-0.929 1.119,-2.266 0.635,-3.509 -0.479,-1.245 -1.664,-2.01 -2.823,-2.529 -4.754,-2.044 -10.501,-2.466 -16.345,-2.183 -1.469,0.071 -2.909,0.145 -4.345,0.281 -1.426,0.151 -2.886,0.442 -4.114,1.223 -1.211,0.748 -2.192,1.999 -2.315,3.439 -0.122,1.427 0.469,2.765 1.31,3.768 0.853,1.01 1.939,1.711 3.007,2.282 1.078,0.565 2.148,1.035 3.195,1.477 2.101,0.86 4.139,1.463 6.032,1.845 3.796,0.767 6.966,0.605 9.092,0.32 1.067,-0.142 1.888,-0.304 2.438,-0.44 0.551,-0.132 0.837,-0.21 0.833,-0.227 C 14.401,5.5 14.107,5.542 13.552,5.641 12.997,5.744 12.174,5.873 11.11,5.982 8.99,6.204 5.855,6.307 2.116,5.503 0.252,5.104 -1.754,4.488 -3.824,3.62 -4.854,3.176 -5.919,2.698 -6.969,2.139 -8.008,1.574 -9.037,0.894 -9.824,-0.048 c -0.774,-0.929 -1.298,-2.165 -1.183,-3.412 0.11,-1.248 0.971,-2.365 2.092,-3.055 1.121,-0.712 2.502,-0.996 3.895,-1.14 1.406,-0.131 2.859,-0.206 4.315,-0.276 5.81,-0.283 11.481,0.132 16.127,2.102 1.122,0.492 2.185,1.201 2.592,2.255 0.421,1.043 0.071,2.236 -0.556,3.087 -0.634,0.871 -1.589,1.42 -2.541,1.772 -0.962,0.355 -1.95,0.527 -2.89,0.663 C 8.239,2.451 5.129,1.817 3.103,1.192 2.081,0.877 1.316,0.548 0.795,0.334 0.281,0.101 0.008,-0.016 0,0" /></g><g
                     id="g216"
                     transform="translate(285.1969,364.884)"><path
                       id="path214"
                       style="fill:#000000;fill-opacity:1;fill-rule:nonzero;stroke:none"
                       d="m 0,0 c 0.002,0.018 0.219,-0.003 0.632,-0.06 0.407,-0.078 1.014,-0.193 1.761,-0.46 1.503,-0.501 3.55,-1.608 5.753,-3.377 2.231,-1.728 4.571,-4.171 7.679,-6.146 3.089,-2.005 7.202,-2.919 11.434,-2.606 4.244,0.321 8.157,1.63 11.495,3.195 3.352,1.569 6.197,3.334 8.601,4.786 2.401,1.462 4.369,2.612 5.763,3.343 0.696,0.367 1.242,0.642 1.619,0.815 0.375,0.177 0.576,0.262 0.583,0.246 0.009,-0.016 -0.175,-0.132 -0.535,-0.339 -0.406,-0.232 -0.926,-0.531 -1.568,-0.899 -1.361,-0.784 -3.293,-1.977 -5.668,-3.479 -2.379,-1.492 -5.216,-3.299 -8.591,-4.907 -3.362,-1.606 -7.33,-2.952 -11.663,-3.28 -2.161,-0.145 -4.297,-0.007 -6.296,0.451 -2.001,0.447 -3.846,1.256 -5.43,2.267 -3.165,2.048 -5.472,4.52 -7.654,6.266 C 5.763,-2.396 3.782,-1.263 2.323,-0.71 0.865,-0.145 -0.011,-0.054 0,0" /></g><g
                     id="g220"
                     transform="translate(308.0201,362.3781)"><path
                       id="path218"
                       style="fill:#000000;fill-opacity:1;fill-rule:nonzero;stroke:none"
                       d="m 0,0 c 0.003,0.019 0.22,0.004 0.632,-0.031 0.411,-0.035 1.017,-0.085 1.8,-0.128 0.781,-0.039 1.739,-0.07 2.849,-0.046 0.556,0.012 1.15,0.036 1.778,0.08 0.627,0.053 1.309,0.042 1.859,0.375 C 9.194,0.41 9.356,0.661 9.28,0.933 9.217,1.193 8.915,1.384 8.581,1.5 7.885,1.709 7.082,1.884 6.288,2.062 4.682,2.411 2.949,2.715 1.114,2.938 -0.72,3.164 -2.656,3.307 -4.666,3.345 -5.663,3.378 -6.689,3.349 -7.559,2.924 -7.984,2.714 -8.316,2.374 -8.426,1.937 c -0.121,-0.434 0,-0.901 0.269,-1.308 0.551,-0.83 1.482,-1.357 2.371,-1.87 0.895,-0.51 1.82,-0.936 2.753,-1.291 1.862,-0.719 3.761,-1.134 5.587,-1.312 3.668,-0.363 6.993,0.344 9.574,1.361 2.593,1.028 4.473,2.333 5.684,3.311 1.213,0.986 1.806,1.625 1.841,1.59 C 19.666,2.406 19.526,2.239 19.248,1.932 18.968,1.626 18.538,1.189 17.942,0.672 16.759,-0.362 14.887,-1.734 12.266,-2.825 9.66,-3.902 6.265,-4.667 2.51,-4.322 c -1.868,0.169 -3.815,0.583 -5.726,1.313 -0.956,0.361 -1.905,0.795 -2.824,1.317 -0.897,0.523 -1.895,1.057 -2.553,2.037 -0.323,0.477 -0.506,1.128 -0.336,1.725 0.149,0.603 0.629,1.074 1.135,1.316 1.025,0.497 2.136,0.5 3.138,0.469 C -2.627,3.81 -0.674,3.655 1.175,3.414 3.023,3.176 4.767,2.853 6.382,2.483 7.195,2.291 7.952,2.12 8.72,1.878 9.084,1.74 9.525,1.509 9.653,1.028 9.79,0.554 9.441,0.096 9.107,-0.065 8.418,-0.455 7.694,-0.411 7.077,-0.457 6.443,-0.487 5.844,-0.499 5.284,-0.497 4.164,-0.493 3.201,-0.432 2.417,-0.361 1.633,-0.287 1.027,-0.204 0.618,-0.135 0.21,-0.066 -0.003,-0.017 0,0" /></g></g></g></g><g
               transform="translate(273.5953,395.131)"
               id="g226"><path
                 id="path228"
                 style="fill:#ff4f5b;fill-opacity:1;fill-rule:nonzero;stroke:none"
                 d="m 0,0 20.401,-12.518 66.857,2.399 -0.298,8.303 -6.68,3.26 6.492,1.983 -0.408,11.362 -66.42,-2.384 z" /></g><g
               id="g230"><g
                 id="g232" /><g
                 id="g244"><g
                   id="g242"
                   opacity="0.300003"
                   clip-path="url(#clipPath236)"><g
                     id="g240"
                     transform="translate(273.5953,395.131)"><path
                       id="path238"
                       style="fill:#000000;fill-opacity:1;fill-rule:nonzero;stroke:none"
                       d="m 0,0 20.401,-12.518 66.857,2.399 -0.298,8.303 -6.68,3.26 6.492,1.983 -0.408,11.362 -66.42,-2.384 z" /></g></g></g></g><g
               transform="translate(271.6022,392.7297)"
               id="g246"><path
                 id="path248"
                 style="fill:#ff4f5b;fill-opacity:1;fill-rule:nonzero;stroke:none"
                 d="m 0,0 14.396,-8.833 c 1.62,-0.994 3.499,-1.488 5.399,-1.42 l 63.943,2.294 -0.298,8.303 -6.68,3.26 6.492,1.983 -0.407,11.362 -63.85,-2.291 C 17.311,14.597 15.671,14.097 14.239,13.207 L -0.013,4.342 C -1.624,3.34 -1.617,0.992 0,0" /></g><g
               id="g250"><g
                 id="g252" /><g
                 id="g280"><g
                   id="g278"
                   opacity="0.199997"
                   clip-path="url(#clipPath256)"><g
                     id="g260"
                     transform="translate(351.736,409.6579)"><path
                       id="path258"
                       style="fill:#000000;fill-opacity:1;fill-rule:nonzero;stroke:none"
                       d="m 0,0 c 0.008,-0.005 -0.021,-0.058 -0.082,-0.156 -0.066,-0.095 -0.147,-0.251 -0.296,-0.423 -0.274,-0.362 -0.751,-0.848 -1.468,-1.337 -1.431,-1.002 -3.882,-1.741 -6.904,-2.198 -6.033,-1.04 -14.512,-1.879 -23.866,-1.424 -4.678,0.214 -9.1,0.778 -13.119,1.189 -4.019,0.423 -7.648,0.681 -10.698,0.66 -3.05,0 -5.511,-0.272 -7.193,-0.552 -1.685,-0.268 -2.603,-0.505 -2.615,-0.451 -0.005,0.017 0.221,0.087 0.657,0.204 0.437,0.111 1.077,0.301 1.923,0.447 1.68,0.343 4.154,0.672 7.223,0.72 3.071,0.068 6.722,-0.153 10.75,-0.551 4.031,-0.385 8.443,-0.933 13.097,-1.145 9.311,-0.454 17.752,0.323 23.781,1.267 3.024,0.41 5.424,1.08 6.854,2.004 C -0.515,-0.838 -0.053,0.051 0,0" /></g><g
                     id="g264"
                     transform="translate(273.441,391.9289)"><path
                       id="path262"
                       style="fill:#000000;fill-opacity:1;fill-rule:nonzero;stroke:none"
                       d="m 0,0 c 0,0 -0.006,0.301 0.128,0.853 0.144,0.545 0.437,1.349 1.071,2.23 0.628,0.879 1.596,1.826 2.932,2.595 1.331,0.773 2.998,1.351 4.864,1.789 3.734,0.859 8.239,1.596 13.278,2.056 5.038,0.471 10.597,0.676 16.425,0.766 11.638,0.109 22.169,0.208 29.852,0.279 3.782,0.01 6.859,0.017 9.047,0.023 1.031,-0.008 1.85,-0.015 2.459,-0.02 0.562,-0.01 0.858,-0.025 0.858,-0.043 0,-0.018 -0.295,-0.039 -0.856,-0.062 C 79.449,10.447 78.63,10.421 77.599,10.388 75.412,10.343 72.335,10.279 68.554,10.2 60.873,10.089 50.343,9.937 38.707,9.768 32.884,9.679 27.339,9.488 22.316,9.045 17.294,8.613 12.799,7.916 9.078,7.108 7.225,6.697 5.586,6.154 4.273,5.425 2.961,4.7 1.999,3.801 1.362,2.962 0.084,1.251 0.072,-0.034 0,0" /></g><g
                     id="g268"
                     transform="translate(299.0377,391.4958)"><path
                       id="path266"
                       style="fill:#000000;fill-opacity:1;fill-rule:nonzero;stroke:none"
                       d="m 0,0 c 0.01,-0.015 -0.23,-0.189 -0.701,-0.506 -0.481,-0.298 -1.195,-0.738 -2.175,-1.192 -1.943,-0.9 -4.994,-1.931 -8.887,-1.877 -0.966,0.025 -1.986,0.08 -3.031,0.332 -1.033,0.251 -2.122,0.709 -2.935,1.591 -0.79,0.85 -1.353,2.135 -1.003,3.423 0.344,1.288 1.442,2.174 2.541,2.812 4.51,2.535 10.18,3.562 16.022,3.897 C 1.3,8.565 2.739,8.644 4.182,8.661 5.616,8.661 7.098,8.526 8.401,7.878 9.685,7.263 10.792,6.123 11.067,4.703 11.339,3.297 10.893,1.905 10.163,0.818 9.42,-0.276 8.415,-1.087 7.413,-1.769 6.401,-2.444 5.386,-3.025 4.392,-3.575 2.394,-4.652 0.431,-5.467 -1.411,-6.047 c -3.694,-1.163 -6.863,-1.337 -9.007,-1.278 -1.077,0.028 -1.911,0.102 -2.472,0.18 -0.561,0.073 -0.854,0.12 -0.852,0.137 0.002,0.018 0.3,0.007 0.862,-0.033 0.563,-0.043 1.395,-0.084 2.464,-0.081 2.131,0.003 5.26,0.232 8.893,1.426 1.812,0.595 3.742,1.419 5.709,2.501 0.975,0.55 1.985,1.138 2.969,1.804 0.974,0.672 1.926,1.457 2.61,2.477 0.671,1.005 1.061,2.289 0.815,3.518 C 10.339,5.833 9.364,6.853 8.177,7.42 6.986,8.01 5.583,8.146 4.183,8.143 2.771,8.125 1.319,8.045 -0.137,7.961 -5.944,7.629 -11.539,6.617 -15.951,4.168 -17.015,3.561 -17.997,2.742 -18.29,1.651 c -0.309,-1.081 0.164,-2.231 0.878,-3.011 0.723,-0.799 1.73,-1.244 2.715,-1.493 0.993,-0.251 1.994,-0.318 2.943,-0.354 3.82,-0.101 6.846,0.859 8.795,1.694 0.982,0.421 1.708,0.829 2.204,1.097 C -0.27,-0.13 -0.01,0.016 0,0" /></g><g
                     id="g272"
                     transform="translate(355.2828,388.5036)"><path
                       id="path270"
                       style="fill:#000000;fill-opacity:1;fill-rule:nonzero;stroke:none"
                       d="m 0,0 c -0.001,-0.018 -0.218,-0.02 -0.635,-0.007 -0.413,0.035 -1.029,0.085 -1.8,0.271 -1.547,0.34 -3.7,1.224 -6.078,2.751 -2.4,1.482 -4.985,3.664 -8.284,5.3 -3.284,1.667 -7.472,2.142 -11.645,1.383 -4.187,-0.767 -7.94,-2.482 -11.094,-4.391 -3.168,-1.914 -5.81,-3.97 -8.048,-5.667 -2.231,-1.709 -4.067,-3.06 -5.377,-3.934 -0.654,-0.439 -1.167,-0.77 -1.523,-0.981 -0.355,-0.216 -0.545,-0.321 -0.555,-0.306 -0.01,0.015 0.161,0.15 0.496,0.393 0.38,0.274 0.865,0.626 1.465,1.06 1.27,0.922 3.065,2.313 5.268,4.059 2.209,1.734 4.839,3.83 8.025,5.786 3.174,1.952 6.978,3.711 11.252,4.494 2.133,0.372 4.271,0.461 6.308,0.217 2.038,-0.234 3.956,-0.843 5.638,-1.681 3.364,-1.703 5.92,-3.917 8.274,-5.423 C -5.983,1.773 -3.895,0.856 -2.385,0.46 -0.876,0.052 0.005,0.055 0,0" /></g><g
                     id="g276"
                     transform="translate(332.3229,388.5842)"><path
                       id="path274"
                       style="fill:#000000;fill-opacity:1;fill-rule:nonzero;stroke:none"
                       d="m 0,0 c -0.001,-0.019 -0.219,-0.027 -0.632,-0.036 -0.413,-0.008 -1.021,-0.023 -1.804,-0.063 -0.781,-0.043 -1.736,-0.113 -2.838,-0.255 -0.551,-0.07 -1.138,-0.157 -1.758,-0.267 -0.618,-0.119 -1.298,-0.181 -1.811,-0.57 -0.258,-0.188 -0.392,-0.455 -0.287,-0.716 0.09,-0.253 0.41,-0.411 0.755,-0.491 0.715,-0.135 1.531,-0.224 2.34,-0.316 1.634,-0.178 3.389,-0.298 5.236,-0.325 1.848,-0.031 3.789,0.032 5.792,0.206 0.994,0.072 2.012,0.209 2.832,0.724 0.402,0.253 0.695,0.627 0.758,1.073 C 8.657,-0.592 8.488,-0.14 8.177,0.236 7.542,1.004 6.56,1.428 5.622,1.845 4.678,2.258 3.713,2.583 2.749,2.838 0.82,3.357 -1.111,3.568 -2.945,3.553 -6.631,3.526 -9.864,2.471 -12.323,1.188 c -2.47,-1.296 -4.201,-2.792 -5.302,-3.893 -1.103,-1.108 -1.625,-1.806 -1.663,-1.776 -0.015,0.011 0.106,0.191 0.351,0.526 0.247,0.334 0.627,0.814 1.166,1.391 1.067,1.154 2.785,2.716 5.275,4.078 2.477,1.346 5.773,2.465 9.543,2.519 C -1.077,4.062 0.901,3.856 2.879,3.332 3.868,3.074 4.858,2.743 5.827,2.321 6.775,1.896 7.822,1.469 8.58,0.565 8.952,0.125 9.202,-0.503 9.098,-1.115 9.013,-1.73 8.585,-2.25 8.107,-2.543 7.14,-3.146 6.037,-3.267 5.036,-3.342 3.015,-3.51 1.056,-3.563 -0.808,-3.519 c -1.864,0.041 -3.631,0.178 -5.277,0.376 -0.829,0.105 -1.6,0.195 -2.388,0.355 -0.377,0.099 -0.84,0.281 -1.018,0.746 -0.186,0.457 0.112,0.949 0.428,1.146 0.643,0.459 1.368,0.492 1.976,0.602 0.628,0.098 1.223,0.172 1.779,0.23 1.115,0.114 2.079,0.155 2.867,0.168 0.787,0.009 1.398,-0.01 1.811,-0.035 C -0.216,0.044 0,0.018 0,0" /></g></g></g></g></g></g><g
           id="g282"><g
             clip-path="url(#clipPath288)"
             id="g284"><g
               transform="translate(446.7028,252.0524)"
               id="g290"><path
                 id="path292"
                 style="fill:#1a2e35;fill-opacity:1;fill-rule:nonzero;stroke:none"
                 d="m 0,0 c 0,-0.144 -87.278,-0.26 -194.918,-0.26 -107.677,0 -194.937,0.116 -194.937,0.26 0,0.144 87.26,0.26 194.937,0.26 C -87.278,0.26 0,0.144 0,0" /></g></g></g><g
           id="g294"><g
             clip-path="url(#clipPath300)"
             id="g296"><g
               transform="translate(67.1657,88.612)"
               id="g302"><path
                 id="path304"
                 style="fill:#1a2e35;fill-opacity:1;fill-rule:nonzero;stroke:none"
                 d="m 0,0 c -0.083,-0.018 -0.441,1.481 -1.177,3.853 -0.732,2.371 -1.897,5.601 -3.536,9.012 -1.646,3.408 -3.447,6.333 -4.845,8.384 -1.396,2.053 -2.345,3.267 -2.278,3.32 0.027,0.023 0.293,-0.257 0.75,-0.786 0.461,-0.524 1.089,-1.316 1.829,-2.322 1.484,-2.009 3.352,-4.931 5.013,-8.37 1.655,-3.442 2.775,-6.724 3.421,-9.136 0.325,-1.206 0.552,-2.19 0.676,-2.878 C -0.019,0.391 0.035,0.008 0,0" /></g><g
               transform="translate(73.7545,84.2995)"
               id="g306"><path
                 id="path308"
                 style="fill:#1a2e35;fill-opacity:1;fill-rule:nonzero;stroke:none"
                 d="m 0,0 c -0.138,-0.039 -2.66,8.363 -5.631,18.765 -2.973,10.406 -5.27,18.87 -5.132,18.91 0.138,0.039 2.659,-8.362 5.632,-18.767 C -2.159,8.506 0.138,0.04 0,0" /></g><g
               transform="translate(79.1325,106.8395)"
               id="g310"><path
                 id="path312"
                 style="fill:#1a2e35;fill-opacity:1;fill-rule:nonzero;stroke:none"
                 d="m 0,0 c 0.077,-0.015 -0.12,-1.308 -0.388,-3.399 -0.269,-2.091 -0.584,-4.987 -0.759,-8.196 -0.172,-3.211 -0.171,-6.124 -0.129,-8.231 0.041,-2.109 0.097,-3.415 0.019,-3.421 -0.035,-0.003 -0.093,0.32 -0.166,0.908 -0.077,0.587 -0.153,1.441 -0.221,2.497 -0.137,2.113 -0.196,5.044 -0.023,8.275 0.176,3.229 0.551,6.136 0.915,8.222 0.181,1.044 0.349,1.884 0.488,2.46 C -0.127,-0.309 -0.036,0.007 0,0" /></g><g
               transform="translate(364.4674,278.3898)"
               id="g314"><path
                 id="path316"
                 style="fill:#1a2e35;fill-opacity:1;fill-rule:nonzero;stroke:none"
                 d="m 0,0 c 0.138,0.04 1.949,-5.833 4.044,-13.114 2.097,-7.285 3.683,-13.22 3.545,-13.26 C 7.45,-26.414 5.64,-20.543 3.544,-13.258 1.448,-5.977 -0.139,-0.04 0,0" /></g><g
               transform="translate(376.3463,276.5309)"
               id="g318"><path
                 id="path320"
                 style="fill:#1a2e35;fill-opacity:1;fill-rule:nonzero;stroke:none"
                 d="m 0,0 c 0.081,-0.024 -0.292,-1.363 -0.73,-3.556 -0.44,-2.192 -0.89,-5.253 -0.998,-8.66 -0.098,-3.408 0.166,-6.492 0.472,-8.706 0.305,-2.216 0.597,-3.574 0.514,-3.593 -0.035,-0.008 -0.144,0.323 -0.309,0.93 -0.171,0.606 -0.369,1.497 -0.568,2.606 -0.403,2.216 -0.73,5.332 -0.629,8.779 0.108,3.445 0.622,6.535 1.158,8.723 0.267,1.095 0.518,1.972 0.726,2.567 C -0.163,-0.313 -0.035,0.01 0,0" /></g><g
               transform="translate(383.7379,271.8581)"
               id="g322"><path
                 id="path324"
                 style="fill:#1a2e35;fill-opacity:1;fill-rule:nonzero;stroke:none"
                 d="m 0,0 c 0.069,-0.051 -0.619,-1.035 -1.566,-2.717 -0.95,-1.679 -2.107,-4.089 -2.987,-6.894 -0.873,-2.809 -1.293,-5.45 -1.468,-7.37 -0.177,-1.922 -0.17,-3.123 -0.257,-3.125 -0.035,-0.002 -0.073,0.297 -0.107,0.842 -0.041,0.544 -0.046,1.334 -0.003,2.309 0.082,1.948 0.451,4.644 1.338,7.499 0.894,2.851 2.125,5.278 3.166,6.927 0.52,0.826 0.973,1.473 1.317,1.897 C -0.229,-0.204 -0.029,0.021 0,0" /></g><g
               transform="translate(318.4274,182.7468)"
               id="g326"><path
                 id="path328"
                 style="fill:#ff4f5b;fill-opacity:1;fill-rule:nonzero;stroke:none"
                 d="m 0,0 c -0.528,2.048 0.814,4.103 2.318,5.588 1.505,1.485 3.304,2.815 4.087,4.779 1.268,3.182 -0.437,7.301 1.728,9.955 1.272,1.563 3.555,2.085 4.685,3.753 0.593,0.875 0.785,1.95 1.018,2.982 1.187,5.257 3.819,10.182 7.53,14.091 0.258,-4.682 -0.774,-9.429 -2.955,-13.581 -0.876,-1.669 -1.952,-3.296 -2.242,-5.159 -0.472,-3.024 1.216,-6.14 0.474,-9.109 -0.85,-3.397 -4.665,-5.67 -4.846,-9.166 -0.153,-2.956 2.423,-5.551 2.23,-8.504 -0.081,-1.258 -0.665,-2.426 -1.314,-3.505 -2.286,-3.8 -5.643,-6.417 -10.732,-6.332 l -6.233,-0.218 z" /></g><g
               id="g330"><g
                 id="g332" /><g
                 id="g344"><g
                   id="g342"
                   opacity="0.300003"
                   clip-path="url(#clipPath336)"><g
                     id="g340"
                     transform="translate(318.4274,182.7468)"><path
                       id="path338"
                       style="fill:#000000;fill-opacity:1;fill-rule:nonzero;stroke:none"
                       d="m 0,0 c -0.528,2.048 0.814,4.103 2.318,5.588 1.505,1.485 3.304,2.815 4.087,4.779 1.268,3.182 -0.437,7.301 1.728,9.955 1.272,1.563 3.555,2.085 4.685,3.753 0.593,0.875 0.785,1.95 1.018,2.982 1.187,5.257 3.819,10.182 7.53,14.091 0.258,-4.682 -0.774,-9.429 -2.955,-13.581 -0.876,-1.669 -1.952,-3.296 -2.242,-5.159 -0.472,-3.024 1.216,-6.14 0.474,-9.109 -0.85,-3.397 -4.665,-5.67 -4.846,-9.166 -0.153,-2.956 2.423,-5.551 2.23,-8.504 -0.081,-1.258 -0.665,-2.426 -1.314,-3.505 -2.286,-3.8 -5.643,-6.417 -10.732,-6.332 l -6.233,-0.218 z" /></g></g></g></g><g
               transform="translate(312.9137,168.1569)"
               id="g346"><path
                 id="path348"
                 style="fill:#1a2e35;fill-opacity:1;fill-rule:nonzero;stroke:none"
                 d="M 0,0 C 0,0 -0.595,-0.138 -1.717,0.037 -2.275,0.119 -2.963,0.268 -3.742,0.547 -4.517,0.831 -5.398,1.234 -6.243,1.917 -6.649,2.272 -7.055,2.709 -7.272,3.289 -7.487,3.865 -7.526,4.5 -7.566,5.15 -7.6,5.803 -7.6,6.48 -7.711,7.167 c -0.105,0.687 -0.375,1.36 -0.762,2.005 -0.735,1.291 -1.955,2.513 -2.349,4.266 -0.427,1.723 -0.121,3.589 0.169,5.463 0.29,1.87 0.57,3.908 -0.146,5.856 -0.668,1.949 -2.035,3.709 -2.719,5.906 -0.679,2.22 -0.363,4.607 -0.506,6.961 -0.066,1.184 -0.294,2.365 -0.813,3.461 -0.504,1.103 -1.203,2.144 -1.749,3.306 -1.106,2.347 -1.302,5.008 -1.604,7.617 -0.148,1.314 -0.297,2.641 -0.448,3.982 -0.148,1.348 -0.268,2.69 -0.692,3.987 -0.385,1.306 -0.941,2.57 -1.491,3.857 -0.27,0.647 -0.555,1.296 -0.724,2.015 -0.122,0.735 -0.157,1.422 -0.201,2.143 -0.069,1.43 -0.011,2.878 0.166,4.316 0.17,1.438 0.429,2.864 0.584,4.305 0.009,0.085 0.018,0.17 0.027,0.248 l 0.032,0.287 0.256,-0.127 c 1.334,-0.668 2.477,-1.664 3.355,-2.832 0.892,-1.16 1.543,-2.468 2.062,-3.798 1.041,-2.679 1.416,-5.485 1.941,-8.163 0.512,-2.678 1.187,-5.312 2.561,-7.539 0.683,-1.109 1.509,-2.123 2.233,-3.206 0.72,-1.075 1.355,-2.255 1.546,-3.552 0.369,-2.637 -1.083,-4.952 -0.782,-7.287 0.109,-1.161 0.57,-2.245 1.138,-3.235 0.565,-0.996 1.231,-1.92 1.862,-2.847 0.63,-0.929 1.231,-1.871 1.673,-2.876 0.449,-1.003 0.697,-2.076 0.766,-3.125 0.152,-2.102 -0.147,-4.096 0.008,-5.978 0.126,-1.886 0.788,-3.596 1.538,-5.123 0.754,-1.533 1.592,-2.92 2.295,-4.265 C 1.868,12.523 2.194,11.867 2.46,11.209 2.741,10.552 2.879,9.878 3.007,9.238 3.211,7.946 3.191,6.742 3.053,5.681 2.782,3.546 1.985,2.008 1.27,1.144 1.105,0.913 0.915,0.75 0.766,0.598 0.619,0.44 0.475,0.334 0.356,0.25 0.124,0.079 0,0 0,0 -0.028,0.032 0.513,0.318 1.207,1.194 1.893,2.063 2.654,3.589 2.898,5.7 3.023,6.749 3.031,7.937 2.819,9.206 2.688,9.833 2.547,10.493 2.268,11.131 c -0.265,0.642 -0.595,1.295 -0.951,1.96 -0.708,1.332 -1.555,2.714 -2.326,4.257 -0.763,1.535 -1.452,3.278 -1.592,5.213 -0.164,1.921 0.126,3.922 -0.033,5.975 -0.071,1.026 -0.312,2.05 -0.751,3.021 -0.431,0.973 -1.023,1.896 -1.654,2.817 -0.631,0.922 -1.304,1.85 -1.886,2.866 -0.582,1.01 -1.071,2.139 -1.189,3.367 -0.301,2.488 1.141,4.818 0.766,7.269 -0.179,1.213 -0.783,2.343 -1.494,3.398 -0.712,1.063 -1.542,2.078 -2.246,3.215 -1.416,2.29 -2.102,4.975 -2.62,7.664 -0.53,2.695 -0.905,5.471 -1.928,8.094 -0.509,1.304 -1.145,2.58 -2.008,3.699 -0.848,1.129 -1.942,2.077 -3.213,2.715 l 0.287,0.159 c -0.009,-0.079 -0.019,-0.165 -0.029,-0.251 -0.156,-1.459 -0.417,-2.887 -0.584,-4.309 -0.175,-1.421 -0.233,-2.84 -0.165,-4.248 0.04,-0.696 0.083,-1.424 0.192,-2.08 0.152,-0.656 0.431,-1.302 0.699,-1.943 0.547,-1.282 1.111,-2.565 1.503,-3.9 0.433,-1.328 0.557,-2.721 0.701,-4.052 0.149,-1.342 0.297,-2.671 0.442,-3.986 0.298,-2.619 0.494,-5.238 1.559,-7.504 0.526,-1.129 1.225,-2.173 1.743,-3.312 0.536,-1.136 0.774,-2.386 0.836,-3.589 0.136,-2.405 -0.177,-4.756 0.474,-6.887 0.646,-2.12 2.006,-3.89 2.692,-5.901 0.736,-2.032 0.431,-4.137 0.134,-6.001 -0.301,-1.876 -0.604,-3.703 -0.202,-5.36 0.36,-1.674 1.546,-2.885 2.296,-4.213 C -7.889,8.625 -7.609,7.912 -7.506,7.2 -7.397,6.49 -7.403,5.806 -7.375,5.159 -7.343,4.518 -7.307,3.888 -7.109,3.348 -6.914,2.81 -6.532,2.384 -6.143,2.036 -5.328,1.362 -4.463,0.95 -3.701,0.659 -2.935,0.37 -2.256,0.211 -1.704,0.117 -1.152,0.018 -0.724,0.003 -0.437,-0.005 -0.149,0.005 0,0 0,0" /></g><g
               transform="translate(293.2194,241.5866)"
               id="g350"><path
                 id="path352"
                 style="fill:#1a2e35;fill-opacity:1;fill-rule:nonzero;stroke:none"
                 d="m 0,0 c 0.007,0.001 0.027,-0.062 0.061,-0.188 0.036,-0.15 0.081,-0.334 0.136,-0.562 0.123,-0.49 0.27,-1.231 0.504,-2.157 0.245,-0.924 0.811,-1.969 1.294,-3.256 0.503,-1.277 1.013,-2.758 1.482,-4.421 0.475,-1.662 0.897,-3.509 1.337,-5.485 0.455,-1.974 0.908,-4.091 1.996,-6.088 0.51,-1.012 1.086,-2.037 1.543,-3.158 0.467,-1.122 0.72,-2.347 0.897,-3.577 0.299,-2.469 0.752,-4.976 1.344,-7.541 1.25,-5.107 2.44,-9.972 3.523,-14.402 1.111,-4.415 2.112,-8.393 2.954,-11.746 0.821,-3.323 1.488,-6.023 1.958,-7.928 0.217,-0.914 0.388,-1.636 0.513,-2.16 0.05,-0.229 0.09,-0.415 0.123,-0.564 0.025,-0.128 0.035,-0.195 0.029,-0.197 -0.007,-10e-4 -0.03,0.062 -0.068,0.186 -0.044,0.147 -0.097,0.33 -0.162,0.555 -0.143,0.52 -0.338,1.236 -0.586,2.141 -0.5,1.898 -1.209,4.587 -2.081,7.897 -0.867,3.347 -1.896,7.318 -3.037,11.724 -1.094,4.432 -2.295,9.297 -3.557,14.406 -0.592,2.562 -1.05,5.116 -1.342,7.573 -0.173,1.221 -0.414,2.402 -0.863,3.49 -0.44,1.092 -1.007,2.112 -1.519,3.135 -1.095,2.034 -1.552,4.216 -1.989,6.181 -0.427,1.983 -0.831,3.824 -1.286,5.482 C 2.755,-9 2.267,-7.521 1.786,-6.243 1.328,-4.96 0.78,-3.902 0.551,-2.948 0.335,-2 0.217,-1.267 0.118,-0.767 0.079,-0.535 0.046,-0.349 0.02,-0.197 0,-0.068 -0.007,-0.002 0,0" /></g><g
               transform="translate(311.8131,168.1384)"
               id="g354"><path
                 id="path356"
                 style="fill:#ff4f5b;fill-opacity:1;fill-rule:nonzero;stroke:none"
                 d="m 0,0 c -4.071,2.42 -5.239,9.765 -3.541,14.187 1.698,4.42 4.671,8.459 5.129,13.174 0.352,3.623 -0.834,7.342 0.01,10.884 1.138,4.779 5.805,8.482 5.751,13.396 -0.03,2.755 -1.599,5.35 -1.474,8.104 0.153,3.378 2.746,6.058 4.353,9.033 2.458,4.556 2.619,9.941 3.46,15.048 0.84,5.107 2.787,10.577 7.313,13.087 0.668,-4.336 1.81,-7.306 1.451,-13.18 C 22.323,81.624 19.873,77.585 19.539,72.962 19.34,70.199 19.202,67.432 19.033,64.666 18.869,61.975 18.694,59.234 17.729,56.717 16.99,54.788 15.803,53.035 15.254,51.043 14.222,47.296 15.578,43.237 14.744,39.44 14.038,36.225 11.812,33.456 11.357,30.194 10.718,25.611 13.684,20.851 12.166,16.479 11.412,14.311 9.628,12.568 9.122,10.329 8.729,8.591 9.157,6.751 8.802,5.006 8.229,2.193 2.864,0.009 -0.001,0.183" /></g><g
               transform="translate(331.692,260.7473)"
               id="g358"><path
                 id="path360"
                 style="fill:#1a2e35;fill-opacity:1;fill-rule:nonzero;stroke:none"
                 d="m 0,0 c 0.007,-0.001 0.001,-0.084 -0.018,-0.245 -0.023,-0.182 -0.053,-0.417 -0.091,-0.713 -0.094,-0.625 -0.199,-1.545 -0.411,-2.734 -0.227,-1.196 -0.843,-2.542 -1.335,-4.165 -0.52,-1.618 -1.037,-3.485 -1.494,-5.575 -0.464,-2.089 -0.853,-4.401 -1.261,-6.889 -0.422,-2.47 -0.853,-5.199 -2.087,-7.79 -0.571,-1.302 -1.212,-2.603 -1.693,-3.991 -0.493,-1.383 -0.719,-2.87 -0.858,-4.399 -0.211,-3.072 -0.619,-6.266 -1.194,-9.484 -1.247,-6.425 -2.435,-12.544 -3.516,-18.114 -1.14,-5.548 -2.166,-10.546 -3.03,-14.754 -0.872,-4.177 -1.581,-7.566 -2.076,-9.939 -0.25,-1.152 -0.446,-2.056 -0.585,-2.699 -0.068,-0.29 -0.122,-0.521 -0.163,-0.7 -0.038,-0.157 -0.061,-0.237 -0.068,-0.235 -0.007,0.001 0.003,0.084 0.028,0.244 0.032,0.181 0.073,0.414 0.123,0.707 0.123,0.646 0.293,1.556 0.511,2.714 0.466,2.379 1.132,5.776 1.952,9.965 0.841,4.212 1.838,9.215 2.947,14.77 1.07,5.568 2.247,11.686 3.482,18.109 0.574,3.221 0.982,6.369 1.198,9.453 0.142,1.537 0.378,3.069 0.888,4.487 0.496,1.417 1.146,2.725 1.717,4.016 1.226,2.551 1.657,5.217 2.097,7.696 0.421,2.483 0.828,4.802 1.312,6.895 0.477,2.095 1.015,3.965 1.557,5.583 0.517,1.628 1.152,2.963 1.396,4.128 0.232,1.167 0.364,2.096 0.483,2.714 0.054,0.293 0.097,0.526 0.13,0.706 C -0.026,-0.08 -0.007,0.001 0,0" /></g><g
               transform="translate(399.4811,74.3874)"
               id="g362"><path
                 id="path364"
                 style="fill:#ff4f5b;fill-opacity:1;fill-rule:nonzero;stroke:none"
                 d="m 0,0 c 1.972,-0.855 3.422,-2.678 4.149,-4.7 0.728,-2.023 0.793,-4.233 0.552,-6.368 -0.469,-4.132 -2.816,-8.304 -5.345,-11.606 -3.479,3.037 -4.28,8.335 -4.517,11.048 C -5.536,-7.338 -3.61,0.639 0,0" /></g><g
               transform="translate(402.8824,44.8932)"
               id="g366"><path
                 id="path368"
                 style="fill:#ff4f5b;fill-opacity:1;fill-rule:nonzero;stroke:none"
                 d="M 0,0 C -0.558,2.336 0.414,4.898 2.207,6.495 4,8.093 6.505,8.769 8.898,8.585 10.006,8.501 11.202,8.178 11.836,7.267 12.429,6.414 12.362,5.226 11.881,4.306 11.4,3.386 10.568,2.698 9.688,2.146 6.674,0.255 3.409,-1.022 0,0" /></g><g
               transform="translate(398.4196,32.2233)"
               id="g370"><path
                 id="path372"
                 style="fill:#1a2e35;fill-opacity:1;fill-rule:nonzero;stroke:none"
                 d="m 0,0 c -0.021,0.005 0.027,0.307 0.124,0.849 0.109,0.596 0.251,1.368 0.421,2.294 0.385,1.918 0.878,4.665 2.368,7.331 1.471,2.66 3.528,4.619 5.261,5.59 0.861,0.498 1.614,0.795 2.145,0.95 0.263,0.088 0.477,0.122 0.619,0.157 0.142,0.029 0.217,0.04 0.22,0.03 C 11.183,17.134 9.952,16.912 8.284,15.882 6.611,14.881 4.623,12.942 3.177,10.327 1.716,7.716 1.19,5.008 0.754,3.1 0.543,2.139 0.372,1.359 0.239,0.824 0.106,0.289 0.02,-0.004 0,0" /></g><g
               transform="translate(398.5504,68.1833)"
               id="g374"><path
                 id="path376"
                 style="fill:#1a2e35;fill-opacity:1;fill-rule:nonzero;stroke:none"
                 d="M 0,0 C 0.011,0 0.025,-0.128 0.043,-0.371 0.06,-0.646 0.08,-0.999 0.106,-1.437 0.155,-2.361 0.21,-3.7 0.263,-5.356 0.37,-8.667 0.454,-13.244 0.434,-18.299 0.41,-23.355 0.287,-27.932 0.151,-31.241 0.083,-32.896 0.018,-34.235 -0.04,-35.16 c -0.03,-0.436 -0.054,-0.789 -0.072,-1.064 -0.021,-0.243 -0.035,-0.371 -0.046,-0.37 -0.011,0 -0.016,0.128 -0.015,0.372 0.004,0.276 0.009,0.629 0.016,1.067 0.023,0.964 0.055,2.294 0.095,3.921 0.082,3.31 0.171,7.883 0.194,12.937 0.021,5.051 -0.029,9.625 -0.082,12.936 -0.026,1.628 -0.046,2.958 -0.062,3.922 -0.002,0.437 -0.005,0.791 -0.006,1.066 C -0.016,-0.129 -0.01,-0.001 0,0" /></g><g
               transform="translate(396.8619,42.3776)"
               id="g378"><path
                 id="path380"
                 style="fill:#ff4f5b;fill-opacity:1;fill-rule:nonzero;stroke:none"
                 d="m 0,0 c -0.792,5 -4.161,9.521 -8.727,11.707 -1.163,0.557 -2.681,0.921 -3.636,0.057 -0.958,-0.868 -0.743,-2.422 -0.275,-3.625 1.949,-5.007 7.184,-8.541 12.555,-8.478" /></g><g
               transform="translate(388.6989,50.1657)"
               id="g382"><path
                 id="path384"
                 style="fill:#1a2e35;fill-opacity:1;fill-rule:nonzero;stroke:none"
                 d="m 0,0 c 0.009,0.019 0.271,-0.097 0.738,-0.322 0.236,-0.112 0.522,-0.249 0.835,-0.445 0.313,-0.195 0.691,-0.385 1.062,-0.666 0.38,-0.268 0.803,-0.553 1.216,-0.915 0.432,-0.337 0.852,-0.744 1.293,-1.174 0.857,-0.884 1.72,-1.939 2.457,-3.159 0.726,-1.225 1.252,-2.484 1.619,-3.66 0.166,-0.594 0.325,-1.157 0.409,-1.699 0.117,-0.536 0.161,-1.045 0.209,-1.508 0.063,-0.461 0.042,-0.885 0.058,-1.253 0.016,-0.369 -0.007,-0.685 -0.029,-0.944 -0.038,-0.519 -0.068,-0.803 -0.089,-0.801 -0.068,0.002 0.05,1.15 -0.152,2.977 -0.061,0.455 -0.115,0.955 -0.242,1.48 -0.093,0.532 -0.26,1.084 -0.429,1.666 C 8.579,-9.271 8.056,-8.04 7.343,-6.835 6.618,-5.638 5.777,-4.597 4.944,-3.717 4.517,-3.287 4.109,-2.879 3.689,-2.539 3.29,-2.174 2.88,-1.884 2.513,-1.607 1.018,-0.536 -0.03,-0.059 0,0" /></g><g
               transform="translate(368.9957,105.2399)"
               id="g386"><path
                 id="path388"
                 style="fill:#1a2e35;fill-opacity:1;fill-rule:nonzero;stroke:none"
                 d="m 0,0 c 0.016,-0.01 -0.068,-0.176 -0.242,-0.483 -0.208,-0.355 -0.467,-0.793 -0.781,-1.329 -0.349,-0.571 -0.769,-1.272 -1.223,-2.106 -0.459,-0.832 -1.013,-1.76 -1.546,-2.829 -1.125,-2.107 -2.344,-4.679 -3.574,-7.585 -1.199,-2.92 -2.392,-6.182 -3.427,-9.674 -1.012,-3.5 -1.766,-6.89 -2.33,-9.996 -0.531,-3.111 -0.891,-5.935 -1.079,-8.315 -0.128,-1.189 -0.162,-2.27 -0.224,-3.217 -0.067,-0.947 -0.092,-1.765 -0.105,-2.433 -0.024,-0.62 -0.043,-1.129 -0.059,-1.54 -0.019,-0.352 -0.038,-0.537 -0.056,-0.538 -0.018,0 -0.035,0.185 -0.049,0.537 -0.01,0.412 -0.024,0.922 -0.039,1.543 -0.017,0.671 -0.023,1.49 0.017,2.443 0.034,0.951 0.043,2.037 0.148,3.232 0.141,2.394 0.465,5.236 0.973,8.369 0.541,3.127 1.285,6.541 2.304,10.062 1.04,3.512 2.254,6.789 3.483,9.713 1.261,2.912 2.521,5.479 3.693,7.573 0.555,1.063 1.135,1.982 1.619,2.802 0.479,0.823 0.926,1.511 1.302,2.066 0.348,0.516 0.633,0.937 0.865,1.279 C -0.128,-0.138 -0.015,0.01 0,0" /></g><g
               transform="translate(353.2135,90.8249)"
               id="g390"><path
                 id="path392"
                 style="fill:#1a2e35;fill-opacity:1;fill-rule:nonzero;stroke:none"
                 d="M 0,0 C 0.036,-0.005 0.011,-0.485 -0.064,-1.349 -0.154,-2.314 -0.269,-3.54 -0.405,-5.004 -0.699,-8.09 -1.08,-12.353 -1.4,-17.068 c -0.319,-4.718 -0.516,-8.994 -0.641,-12.09 -0.062,-1.47 -0.113,-2.7 -0.154,-3.668 -0.042,-0.866 -0.082,-1.346 -0.118,-1.345 -0.037,0 -0.065,0.48 -0.085,1.348 -0.023,0.867 -0.027,2.123 -0.011,3.674 0.031,3.103 0.17,7.389 0.489,12.116 0.321,4.724 0.761,8.99 1.149,12.069 0.193,1.539 0.367,2.782 0.505,3.64 C -0.128,-0.467 -0.035,0.004 0,0" /></g><g
               transform="translate(337.8766,77.738)"
               id="g394"><path
                 id="path396"
                 style="fill:#1a2e35;fill-opacity:1;fill-rule:nonzero;stroke:none"
                 d="m 0,0 c 0.025,0.025 0.282,-0.199 0.727,-0.63 0.448,-0.425 1.053,-1.086 1.756,-1.939 1.41,-1.702 3.129,-4.266 4.488,-7.369 1.349,-3.108 2.057,-6.114 2.346,-8.304 0.147,-1.096 0.219,-1.989 0.225,-2.607 0.014,-0.618 0.004,-0.959 -0.032,-0.961 -0.09,-0.004 -0.174,1.356 -0.557,3.51 -0.378,2.154 -1.131,5.094 -2.46,8.154 -1.338,3.055 -2.979,5.608 -4.3,7.35 C 0.875,-1.05 -0.064,-0.062 0,0" /></g><g
               transform="translate(399.1256,242.4626)"
               id="g398"><path
                 id="path400"
                 style="fill:#1a2e35;fill-opacity:1;fill-rule:nonzero;stroke:none"
                 d="m 0,0 c 0.014,0.013 0.176,-0.146 0.472,-0.458 0.33,-0.356 0.754,-0.815 1.279,-1.385 0.28,-0.307 0.585,-0.644 0.917,-1.01 0.324,-0.377 0.653,-0.808 1.019,-1.26 0.716,-0.916 1.582,-1.925 2.395,-3.146 0.421,-0.601 0.861,-1.23 1.319,-1.884 0.455,-0.659 0.868,-1.382 1.328,-2.112 0.942,-1.445 1.788,-3.084 2.709,-4.789 1.741,-3.465 3.412,-7.399 4.753,-11.673 1.3,-4.288 2.136,-8.481 2.65,-12.324 0.198,-1.93 0.423,-3.76 0.459,-5.485 0.03,-0.862 0.097,-1.693 0.093,-2.493 -0.011,-0.798 -0.02,-1.566 -0.03,-2.3 0.016,-1.467 -0.132,-2.787 -0.207,-3.948 -0.048,-0.58 -0.077,-1.121 -0.132,-1.616 -0.068,-0.488 -0.13,-0.938 -0.188,-1.35 -0.114,-0.766 -0.206,-1.384 -0.277,-1.865 -0.069,-0.424 -0.114,-0.646 -0.131,-0.643 -0.019,0.002 -0.008,0.229 0.027,0.658 0.046,0.482 0.106,1.104 0.18,1.873 0.043,0.412 0.091,0.862 0.142,1.351 0.04,0.494 0.055,1.034 0.088,1.613 0.048,1.157 0.169,2.473 0.13,3.932 -0.001,0.73 -0.003,1.494 -0.005,2.289 -0.006,0.795 -0.082,1.621 -0.122,2.476 -0.054,1.714 -0.294,3.531 -0.503,5.446 -0.537,3.815 -1.382,7.975 -2.671,12.233 -1.333,4.243 -2.978,8.155 -4.683,11.608 -0.906,1.7 -1.731,3.336 -2.652,4.783 -0.449,0.73 -0.85,1.456 -1.294,2.116 C 6.619,-8.706 6.19,-8.074 5.78,-7.471 4.99,-6.242 4.15,-5.224 3.458,-4.294 3.104,-3.835 2.788,-3.397 2.477,-3.011 2.159,-2.637 1.866,-2.291 1.599,-1.975 1.104,-1.381 0.704,-0.901 0.395,-0.528 0.123,-0.194 -0.013,-0.012 0,0" /></g><g
               transform="translate(428.9596,222.7233)"
               id="g402"><path
                 id="path404"
                 style="fill:#1a2e35;fill-opacity:1;fill-rule:nonzero;stroke:none"
                 d="m 0,0 c 0.034,-0.012 -0.106,-0.543 -0.389,-1.492 -0.289,-0.948 -0.687,-2.325 -1.156,-4.032 -0.94,-3.413 -2.073,-8.173 -2.908,-13.507 -0.827,-5.337 -1.196,-10.217 -1.339,-13.754 -0.072,-1.768 -0.111,-3.201 -0.125,-4.192 -0.02,-0.991 -0.047,-1.54 -0.083,-1.541 -0.036,0 -0.076,0.547 -0.119,1.539 -0.049,0.992 -0.067,2.429 -0.041,4.205 0.049,3.55 0.361,8.461 1.192,13.823 0.839,5.359 2.034,10.132 3.069,13.528 0.515,1.7 0.969,3.064 1.317,3.993 C -0.239,-0.497 -0.033,0.012 0,0" /></g><g
               transform="translate(431.1608,203.1393)"
               id="g406"><path
                 id="path408"
                 style="fill:#1a2e35;fill-opacity:1;fill-rule:nonzero;stroke:none"
                 d="m 0,0 c 0.144,-0.089 -1.901,-3.016 -3.289,-7.135 -1.423,-4.108 -1.595,-7.674 -1.763,-7.656 -0.063,0.003 -0.101,0.895 0.045,2.33 0.146,1.434 0.514,3.406 1.226,5.495 0.715,2.087 1.629,3.872 2.391,5.095 C -0.628,-0.646 -0.052,0.037 0,0" /></g></g></g><g
           transform="translate(145.6334,58.1198)"
           id="g410"><path
             id="path412"
             style="fill:#ff4f5b;fill-opacity:1;fill-rule:nonzero;stroke:none"
             d="m 0,0 -1.378,-32.468 -17.531,0.394 1.313,32.532 z" /></g><g
           id="g414"><g
             clip-path="url(#clipPath420)"
             id="g416"><g
               transform="translate(135.6476,27.071)"
               id="g422"><path
                 id="path424"
                 style="fill:#1a2e35;fill-opacity:1;fill-rule:nonzero;stroke:none"
                 d="M 0,0 C -0.146,0.008 0.125,7.118 0.607,15.878 1.089,24.642 1.598,31.737 1.744,31.729 1.89,31.721 1.619,24.612 1.137,15.849 0.655,7.089 0.146,-0.009 0,0" /></g><g
               transform="translate(144.3507,27.8913)"
               id="g426"><path
                 id="path428"
                 style="fill:#1a2e35;fill-opacity:1;fill-rule:nonzero;stroke:none"
                 d="m 0,0 -17.534,0.45 -0.092,-2.296 17.531,-0.393 z" /></g><g
               transform="translate(127.1442,36.4421)"
               id="g430"><path
                 id="path432"
                 style="fill:#1a2e35;fill-opacity:1;fill-rule:nonzero;stroke:none"
                 d="m 0,0 c -0.026,0.021 0.136,0.273 0.481,0.688 0.345,0.416 0.888,0.984 1.639,1.598 0.752,0.61 1.721,1.267 2.917,1.766 1.185,0.509 2.616,0.84 4.126,0.756 3.028,-0.147 5.506,-1.748 6.691,-3.286 0.618,-0.76 0.987,-1.464 1.194,-1.964 0.202,-0.503 0.272,-0.795 0.242,-0.806 -0.099,-0.049 -0.467,1.118 -1.72,2.525 -1.21,1.411 -3.565,2.859 -6.438,3 C 6.268,4.427 3.839,3.09 2.349,1.989 0.828,0.862 0.07,-0.064 0,0" /></g><g
               id="g434"><g
                 id="g436" /><g
                 id="g448"><g
                   id="g446"
                   opacity="0.300003"
                   clip-path="url(#clipPath440)"><g
                     id="g444"
                     transform="translate(127.6637,49.3181)"><path
                       id="path442"
                       style="fill:#000000;fill-opacity:1;fill-rule:nonzero;stroke:none"
                       d="m 0,0 -0.145,-3.577 17.576,-0.315 0.114,2.695 z" /></g></g></g></g><g
               transform="translate(186.902,56.1765)"
               id="g450"><path
                 id="path452"
                 style="fill:#ff4f5b;fill-opacity:1;fill-rule:nonzero;stroke:none"
                 d="m 0,0 -0.856,-19.762 c 0,0 19.799,-7.507 19.997,-11.175 l -38.376,0.284 0.069,30.846 z" /></g><g
               transform="translate(174.4469,38.0925)"
               id="g454"><path
                 id="path456"
                 style="fill:#e1e1e1;fill-opacity:1;fill-rule:nonzero;stroke:none"
                 d="m 0,0 c -0.75,-0.199 -1.273,-1.036 -1.105,-1.793 0.168,-0.758 1.015,-1.297 1.768,-1.111 0.753,0.185 1.412,1.172 1.16,1.905 -0.252,0.733 -1.281,1.312 -1.967,0.951" /></g><g
               transform="translate(167.6666,25.5251)"
               id="g458"><path
                 id="path460"
                 style="fill:#1a2e35;fill-opacity:1;fill-rule:nonzero;stroke:none"
                 d="M 0,0 0.007,3.088 37.139,1.687 c 0,0 1.715,-0.761 1.511,-1.972 z" /></g><g
               transform="translate(186.3942,36.2868)"
               id="g462"><path
                 id="path464"
                 style="fill:#1a2e35;fill-opacity:1;fill-rule:nonzero;stroke:none"
                 d="m 0,0 c -0.008,-0.189 -0.952,-0.268 -1.885,-0.868 -0.949,-0.575 -1.434,-1.389 -1.607,-1.314 -0.174,0.038 0.116,1.164 1.259,1.871 C -1.098,0.406 0.042,0.173 0,0" /></g><g
               transform="translate(190.4357,34.5798)"
               id="g466"><path
                 id="path468"
                 style="fill:#1a2e35;fill-opacity:1;fill-rule:nonzero;stroke:none"
                 d="m 0,0 c 0.042,-0.184 -0.778,-0.498 -1.425,-1.292 -0.67,-0.774 -0.838,-1.636 -1.026,-1.627 -0.178,-0.028 -0.3,1.078 0.523,2.05 C -1.114,0.109 -0.003,0.18 0,0" /></g><g
               transform="translate(192.7023,29.7106)"
               id="g470"><path
                 id="path472"
                 style="fill:#1a2e35;fill-opacity:1;fill-rule:nonzero;stroke:none"
                 d="M 0,0 C -0.172,-0.039 -0.428,0.906 0.064,1.937 0.549,2.97 1.442,3.371 1.521,3.213 1.627,3.058 1.05,2.507 0.658,1.655 0.247,0.812 0.187,0.018 0,0" /></g><g
               transform="translate(186.0871,40.8444)"
               id="g474"><path
                 id="path476"
                 style="fill:#1a2e35;fill-opacity:1;fill-rule:nonzero;stroke:none"
                 d="m 0,0 c -0.081,-0.172 -0.944,0.095 -2.012,0.03 -1.069,-0.043 -1.901,-0.394 -1.998,-0.232 -0.108,0.138 0.707,0.83 1.966,0.889 C -0.787,0.755 0.094,0.147 0,0" /></g><g
               transform="translate(186.8068,45.0974)"
               id="g478"><path
                 id="path480"
                 style="fill:#1a2e35;fill-opacity:1;fill-rule:nonzero;stroke:none"
                 d="m 0,0 c 0.001,-0.078 -0.745,-0.188 -1.936,0.024 -0.592,0.108 -1.29,0.307 -2.021,0.637 -0.364,0.166 -0.737,0.364 -1.106,0.599 -0.178,0.115 -0.388,0.232 -0.582,0.459 -0.208,0.198 -0.322,0.7 -0.079,1.005 0.201,0.296 0.551,0.421 0.83,0.425 0.285,0.007 0.516,-0.052 0.726,-0.105 0.429,-0.108 0.832,-0.254 1.2,-0.422 C -2.232,2.28 -1.635,1.851 -1.192,1.437 -0.301,0.6 0,-0.107 -0.065,-0.144 -0.151,-0.205 -0.583,0.389 -1.491,1.081 -1.943,1.426 -2.522,1.782 -3.21,2.066 -3.555,2.207 -3.926,2.328 -4.318,2.418 -4.727,2.528 -5.076,2.533 -5.182,2.353 -5.22,2.283 -5.226,2.256 -5.141,2.135 -5.053,2.024 -4.888,1.915 -4.713,1.8 -4.374,1.574 -4.031,1.378 -3.695,1.208 -3.023,0.868 -2.38,0.636 -1.829,0.477 -0.725,0.159 0.004,0.103 0,0" /></g><g
               transform="translate(186.5592,44.8288)"
               id="g482"><path
                 id="path484"
                 style="fill:#1a2e35;fill-opacity:1;fill-rule:nonzero;stroke:none"
                 d="m 0,0 c -0.067,-0.028 -0.437,0.65 -0.497,1.873 -0.028,0.606 0.04,1.341 0.28,2.117 0.121,0.388 0.286,0.783 0.501,1.172 0.23,0.381 0.51,0.89 1.242,0.969 C 1.909,6.142 2.225,5.841 2.331,5.585 2.457,5.322 2.48,5.098 2.524,4.874 2.592,4.422 2.58,3.979 2.516,3.569 2.388,2.748 2.046,2.066 1.674,1.576 0.912,0.58 0.123,0.36 0.107,0.425 0.045,0.52 0.706,0.879 1.291,1.838 1.579,2.31 1.837,2.934 1.916,3.652 1.957,4.01 1.954,4.39 1.889,4.771 1.832,5.182 1.68,5.515 1.526,5.474 1.334,5.478 1.005,5.171 0.844,4.845 0.643,4.499 0.482,4.146 0.356,3.799 0.109,3.103 -0.001,2.435 -0.032,1.87 -0.094,0.736 0.103,0.028 0,0" /></g><g
               id="g486"><g
                 id="g488" /><g
                 id="g500"><g
                   id="g498"
                   opacity="0.300003"
                   clip-path="url(#clipPath492)"><g
                     id="g496"
                     transform="translate(167.6608,44.5202)"><path
                       id="path494"
                       style="fill:#000000;fill-opacity:1;fill-rule:nonzero;stroke:none"
                       d="m 0,0 0.039,-4.385 h 18.507 v 3.978 z" /></g></g></g></g><g
               transform="translate(157.0231,181.9675)"
               id="g502"><path
                 id="path504"
                 style="fill:#1a2e35;fill-opacity:1;fill-rule:nonzero;stroke:none"
                 d="m 0,0 -5.671,-54.655 -4.07,-82.309 h -21.72 L -32.049,38.217 30.138,33.782 43.024,-58.13 31.863,-138.573 H 8.032 l 5.58,76.489 z" /></g><g
               transform="translate(157.0231,181.9675)"
               id="g506"><path
                 id="path508"
                 style="fill:#375a64;fill-opacity:1;fill-rule:nonzero;stroke:none"
                 d="M 0,0 C -0.1,-0.111 1.792,-1.977 4.225,-4.167 6.658,-6.358 8.711,-8.044 8.811,-7.933 8.911,-7.822 7.02,-5.957 4.586,-3.766 2.153,-1.575 0.1,0.11 0,0" /></g><g
               transform="translate(157.0851,183.0602)"
               id="g510"><path
                 id="path512"
                 style="fill:#375a64;fill-opacity:1;fill-rule:nonzero;stroke:none"
                 d="m 0,0 c 0.147,0.013 0.023,3.148 -0.114,7.017 -0.15,3.869 -0.258,7.004 -0.406,7.006 C -0.67,14.025 -0.803,10.876 -0.653,6.997 -0.516,3.119 -0.149,-0.013 0,0" /></g><g
               transform="translate(149.9035,203.4606)"
               id="g514"><path
                 id="path516"
                 style="fill:#375a64;fill-opacity:1;fill-rule:nonzero;stroke:none"
                 d="M 0,0 C 0.01,0.009 -0.109,0.021 -0.349,0.038 -0.636,0.056 -0.989,0.076 -1.422,0.102 -2.437,0.151 -3.82,0.22 -5.543,0.304 -9.192,0.456 -14.269,0.668 -20.268,0.919 L -20.52,0.93 V 0.676 c -0.008,-4.595 -0.017,-9.794 -0.026,-15.288 v -0.295 -0.183 l 0.169,-0.067 c 3.335,-1.336 6.552,-2.625 9.579,-3.837 l 0.09,-0.036 0.09,0.031 c 3.031,1.053 5.874,2.04 8.47,2.942 l 0.132,0.046 0.017,0.136 c 0.62,4.77 1.136,8.744 1.506,11.596 0.162,1.329 0.292,2.395 0.389,3.187 C -0.02,-0.363 0.018,0.015 0,0 -0.009,-0.008 -0.032,-0.113 -0.067,-0.312 -0.107,-0.547 -0.155,-0.83 -0.213,-1.173 -0.34,-1.975 -0.511,-3.054 -0.724,-4.398 c -0.423,-2.807 -1.012,-6.719 -1.72,-11.415 l 0.15,0.182 c -2.602,-0.883 -5.453,-1.85 -8.491,-2.882 l 0.18,-0.004 c -3.025,1.22 -6.238,2.516 -9.571,3.86 l 0.169,-0.25 v 0.295 c -0.009,5.494 -0.018,10.693 -0.026,15.288 l -0.252,-0.243 c 5.934,-0.148 10.957,-0.272 14.566,-0.362 1.75,-0.031 3.154,-0.056 4.185,-0.075 0.453,-0.004 0.825,-0.007 1.126,-0.01 C -0.149,-0.013 -0.01,-0.009 0,0" /></g><g
               transform="translate(181.2575,203.195)"
               id="g518"><path
                 id="path520"
                 style="fill:#375a64;fill-opacity:1;fill-rule:nonzero;stroke:none"
                 d="m 0,0 c 0.009,0.009 -0.098,0.02 -0.313,0.032 -0.262,0.011 -0.58,0.025 -0.968,0.042 -0.92,0.029 -2.168,0.068 -3.725,0.115 -3.311,0.078 -7.928,0.185 -13.432,0.312 l -0.247,0.006 0.008,-0.25 c 0.146,-4.537 0.314,-9.767 0.492,-15.336 l 0.005,-0.14 0.118,-0.076 c 0.492,-0.322 1.021,-0.668 1.553,-1.016 2.729,-1.779 5.371,-3.501 7.876,-5.134 l 0.137,-0.09 0.14,0.085 c 3.199,1.948 6.182,3.765 8.87,5.403 l 0.113,0.069 -0.004,0.129 C 0.456,-11.085 0.316,-7.116 0.216,-4.27 0.159,-2.942 0.113,-1.878 0.079,-1.087 0.042,-0.36 0.017,0.017 0,0 -0.008,-0.008 -0.014,-0.114 -0.017,-0.313 -0.019,-0.551 -0.02,-0.834 -0.021,-1.178 -0.016,-1.982 -0.008,-3.063 0.002,-4.412 0.044,-7.227 0.103,-11.15 0.174,-15.86 l 0.108,0.198 c -2.7,-1.619 -5.695,-3.416 -8.907,-5.343 l 0.276,-0.005 c -2.501,1.638 -5.14,3.366 -7.864,5.151 -0.533,0.347 -1.062,0.693 -1.555,1.015 l 0.122,-0.217 c -0.204,5.569 -0.394,10.797 -0.56,15.334 L -18.445,0.029 C -13,0 -8.433,-0.025 -5.158,-0.043 c 1.58,0.003 2.846,0.006 3.78,0.008 0.406,0.005 0.739,0.01 1.013,0.013 C -0.133,-0.017 -0.009,-0.009 0,0" /></g><g
               transform="translate(131.6847,178.4352)"
               id="g522"><path
                 id="path524"
                 style="fill:#375a64;fill-opacity:1;fill-rule:nonzero;stroke:none"
                 d="m 0,0 c 0.006,-0.072 1.131,-0.043 2.944,0.093 1.812,0.135 4.311,0.381 7.061,0.737 2.751,0.357 5.23,0.757 7.017,1.089 1.787,0.332 2.883,0.59 2.871,0.662 C 19.879,2.656 18.762,2.531 16.963,2.296 14.989,2.034 12.589,1.717 9.936,1.365 7.282,1.028 4.88,0.723 2.905,0.472 1.105,0.24 -0.007,0.076 0,0" /></g><g
               transform="translate(132.1891,117.5104)"
               id="g526"><path
                 id="path528"
                 style="fill:#375a64;fill-opacity:1;fill-rule:nonzero;stroke:none"
                 d="m 0,0 c -0.023,-0.011 0.088,-0.314 0.514,-0.689 0.42,-0.366 1.202,-0.754 2.221,-0.754 1.023,-0.036 2.214,0.435 3.245,1.244 1.043,0.811 1.983,1.874 2.957,2.991 1.94,2.253 3.433,4.503 4.398,6.188 0.965,1.689 1.435,2.797 1.374,2.829 -0.071,0.037 -0.66,-1.006 -1.699,-2.63 C 11.969,7.558 10.445,5.37 8.528,3.144 7.565,2.038 6.638,0.975 5.673,0.191 4.708,-0.594 3.658,-1.045 2.729,-1.062 1.799,-1.108 1.068,-0.811 0.641,-0.522 0.21,-0.227 0.039,0.029 0,0" /></g><g
               transform="translate(175.0861,115.5925)"
               id="g530"><path
                 id="path532"
                 style="fill:#375a64;fill-opacity:1;fill-rule:nonzero;stroke:none"
                 d="m 0,0 c -0.024,-0.01 0.036,-0.278 0.293,-0.698 0.254,-0.418 0.741,-0.969 1.501,-1.428 0.759,-0.451 1.797,-0.796 2.98,-0.782 1.184,0.012 2.453,0.426 3.591,1.138 2.3,1.46 3.542,3.649 4.319,5.149 0.765,1.539 1.133,2.53 1.074,2.56 C 13.684,5.977 13.19,5.036 12.348,3.561 11.495,2.118 10.238,0.054 8.078,-1.312 7.01,-1.982 5.84,-2.375 4.762,-2.411 3.681,-2.451 2.708,-2.172 1.98,-1.793 0.495,-1.011 0.086,0.067 0,0" /></g><g
               transform="translate(173.7018,123.8376)"
               id="g534"><path
                 id="path536"
                 style="fill:#375a64;fill-opacity:1;fill-rule:nonzero;stroke:none"
                 d="m 0,0 c -0.032,-0.052 0.607,-0.527 1.784,-1.038 1.172,-0.512 2.905,-0.999 4.869,-1.084 1.965,-0.078 3.733,0.266 4.942,0.68 1.215,0.411 1.891,0.833 1.864,0.886 C 13.408,-0.385 10.506,-1.771 6.675,-1.583 2.843,-1.454 0.064,0.166 0,0" /></g><g
               transform="translate(156.2213,314.8332)"
               id="g538"><path
                 id="path540"
                 style="fill:#ffbf9d;fill-opacity:1;fill-rule:nonzero;stroke:none"
                 d="m 0,0 -23.429,0.291 2.617,19.26 c 0,0 -1.602,0.33 -1.709,8.709 -0.107,8.379 -0.506,22.616 -0.506,22.616 10.047,4.168 21.643,2.761 30.308,-3.678 l 1.286,-0.956 z" /></g><g
               transform="translate(162.0685,350.7697)"
               id="g542"><path
                 id="path544"
                 style="fill:#ffbf9d;fill-opacity:1;fill-rule:nonzero;stroke:none"
                 d="M 0,0 C 0.148,0.062 5.963,1.703 5.774,-4.026 5.584,-9.754 -0.333,-8.389 -0.338,-8.225 -0.343,-8.06 0,0 0,0" /></g><g
               transform="translate(134.2023,351.966)"
               id="g546"><path
                 id="path548"
                 style="fill:#ffbf9d;fill-opacity:1;fill-rule:nonzero;stroke:none"
                 d="M 0,0 C -0.148,0.062 -5.437,1.438 -5.248,-4.29 -5.058,-10.019 0.86,-8.653 0.865,-8.489 0.87,-8.324 0,0 0,0" /></g><g
               transform="translate(163.9923,351.4089)"
               id="g550"><path
                 id="path552"
                 style="fill:#1a2e35;fill-opacity:1;fill-rule:nonzero;stroke:none"
                 d="m 0,0 c -0.886,-4.8 -0.712,-7.322 -1.532,-10.528 -1.298,-5.074 -3.907,-8.964 -8.641,-11.497 -4.735,-2.535 -11.138,-2.489 -15.204,0.961 -2.822,2.394 -4.822,5.098 -5.241,8.702 -0.418,3.604 -0.838,9.986 -0.864,13.612 -0.048,6.541 -0.502,12.794 -0.502,12.794 l 19.353,3.381 11.014,-6.322 z" /></g><g
               transform="translate(144.0294,326.4899)"
               id="g554"><path
                 id="path556"
                 style="fill:#1a2e35;fill-opacity:1;fill-rule:nonzero;stroke:none"
                 d="m 0,0 c -0.03,-0.132 1.493,-0.497 3.391,-0.289 1.9,0.197 3.303,0.872 3.245,0.996 C 6.58,0.85 5.148,0.417 3.332,0.231 1.517,0.031 0.022,0.152 0,0" /></g><g
               transform="translate(163.0573,343.2482)"
               id="g558"><path
                 id="path560"
                 style="fill:#1a2e35;fill-opacity:1;fill-rule:nonzero;stroke:none"
                 d="m 0,0 c 0.567,4.919 0.935,10.545 1.731,15.731 0.299,1.946 1.017,4.752 0.837,6.711 -0.18,1.968 -0.374,3.987 -1.272,5.762 -1.126,2.226 -3.366,3.896 -5.881,4.384 -2.516,0.488 -5.25,-0.216 -7.179,-1.849 -1.407,2.034 -4.175,3.093 -6.643,2.542 -2.468,-0.552 -4.474,-2.676 -4.813,-5.1 -1.376,1.264 -3.649,1.501 -5.273,0.548 -1.624,-0.952 -2.454,-3.008 -1.926,-4.77 -1.389,-0.223 -2.634,-1.157 -3.202,-2.401 -0.568,-1.245 -0.441,-2.762 0.326,-3.902 0.897,-1.333 2.514,-2.067 3.502,-3.338 1.138,-1.463 1.261,-3.594 0.297,-5.171" /></g><g
               transform="translate(136.1823,361.0231)"
               id="g562"><path
                 id="path564"
                 style="fill:#375a64;fill-opacity:1;fill-rule:nonzero;stroke:none"
                 d="m 0,0 c -0.018,-0.007 0.029,-0.205 0.214,-0.538 0.188,-0.328 0.528,-0.796 1.125,-1.221 0.587,-0.42 1.463,-0.8 2.517,-0.77 1.038,0.024 2.235,0.452 3.102,1.404 l -0.409,0.108 c 0.205,-1.237 1.233,-2.365 2.589,-2.867 1.349,-0.563 3.076,-0.342 4.363,0.531 1.196,0.778 2.018,1.928 2.455,3.106 l -0.469,-0.051 c 1.052,-1.54 2.829,-2.292 4.383,-2.32 1.591,-0.045 2.898,0.681 3.687,1.454 0.81,0.785 1.175,1.621 1.334,2.191 0.155,0.579 0.134,0.908 0.113,0.908 C 24.963,1.94 24.921,1.621 24.718,1.08 24.513,0.547 24.116,-0.224 23.324,-0.93 22.546,-1.627 21.331,-2.25 19.885,-2.179 18.466,-2.127 16.853,-1.405 15.93,-0.024 L 15.644,0.405 15.461,-0.076 C 15.05,-1.157 14.282,-2.216 13.199,-2.919 12.021,-3.705 10.536,-3.901 9.328,-3.413 8.11,-2.974 7.207,-1.993 7.011,-0.939 L 6.923,-0.464 6.602,-0.832 C 5.854,-1.687 4.781,-2.108 3.84,-2.159 2.888,-2.216 2.069,-1.906 1.496,-1.542 0.331,-0.781 0.067,0.049 0,0" /></g><g
               transform="translate(136.2164,363.2946)"
               id="g566"><path
                 id="path568"
                 style="fill:#375a64;fill-opacity:1;fill-rule:nonzero;stroke:none"
                 d="M 0,0 C 0.096,-0.021 -0.019,0.935 0.827,2.085 1.247,2.64 1.933,3.201 2.861,3.407 3.774,3.62 4.913,3.486 5.813,2.862 L 6.283,2.536 6.234,3.096 C 6.187,3.63 6.254,4.195 6.432,4.743 6.844,5.967 7.768,6.955 8.813,7.417 9.859,7.898 10.975,7.876 11.83,7.673 13.587,7.232 14.278,6.217 14.345,6.304 14.369,6.319 14.235,6.575 13.863,6.941 13.49,7.297 12.853,7.758 11.931,8.03 11.023,8.295 9.798,8.371 8.604,7.855 7.417,7.358 6.376,6.271 5.916,4.902 5.716,4.291 5.643,3.652 5.703,3.047 L 6.124,3.28 C 5.064,3.998 3.772,4.115 2.746,3.844 1.697,3.578 0.953,2.906 0.539,2.276 0.115,1.638 -0.021,1.032 -0.054,0.627 -0.083,0.218 -0.027,-0.002 0,0" /></g><g
               transform="translate(148.5578,363.1276)"
               id="g570"><path
                 id="path572"
                 style="fill:#375a64;fill-opacity:1;fill-rule:nonzero;stroke:none"
                 d="M 0,0 C 0.075,0.031 -0.016,0.326 0.016,0.787 0.043,1.25 0.226,1.866 0.622,2.479 1.009,3.072 1.472,3.677 1.739,3.998 2.038,4.292 2.316,4.087 2.357,4.115 2.388,4.125 2.389,4.243 2.23,4.346 2.088,4.449 1.761,4.47 1.502,4.288 1.242,4.109 1.065,3.882 0.833,3.635 0.609,3.382 0.37,3.09 0.157,2.75 -0.282,2.075 -0.447,1.305 -0.367,0.774 -0.294,0.234 -0.058,-0.032 0,0" /></g><g
               transform="translate(160.0377,370.3293)"
               id="g574"><path
                 id="path576"
                 style="fill:#375a64;fill-opacity:1;fill-rule:nonzero;stroke:none"
                 d="M 0,0 C 0.061,0.021 0.002,0.446 -0.361,1.045 -0.549,1.338 -0.821,1.679 -1.244,1.943 -1.659,2.211 -2.245,2.355 -2.817,2.275 -3.984,2.113 -4.742,1.359 -5.167,0.854 -5.6,0.324 -5.796,-0.04 -5.743,-0.083 c 0.06,-0.05 0.371,0.24 0.857,0.684 0.483,0.432 1.198,1.031 2.139,1.155 0.943,0.143 1.677,-0.44 2.073,-0.924 C -0.267,0.341 -0.076,-0.031 0,0" /></g><g
               transform="translate(157.0241,346.0368)"
               id="g578"><path
                 id="path580"
                 style="fill:#375a64;fill-opacity:1;fill-rule:nonzero;stroke:none"
                 d="M 0,0 C 0.114,-0.077 1.27,1.458 2.045,3.654 2.833,5.846 2.9,7.742 2.761,7.75 2.603,7.768 2.298,5.951 1.532,3.824 0.781,1.693 -0.137,0.08 0,0" /></g><g
               transform="translate(154.4279,344.6628)"
               id="g582"><path
                 id="path584"
                 style="fill:#375a64;fill-opacity:1;fill-rule:nonzero;stroke:none"
                 d="M 0,0 C 0.132,-0.062 0.841,1.077 1.436,2.603 2.035,4.129 2.282,5.436 2.141,5.473 1.994,5.512 1.518,4.289 0.929,2.788 0.344,1.287 -0.137,0.064 0,0" /></g><g
               transform="translate(138.1237,344.2726)"
               id="g586"><path
                 id="path588"
                 style="fill:#375a64;fill-opacity:1;fill-rule:nonzero;stroke:none"
                 d="M 0,0 C -0.129,0.029 -0.399,-2.348 0.668,-5.035 1.709,-7.732 3.54,-9.342 3.617,-9.237 3.748,-9.134 2.167,-7.433 1.175,-4.85 0.15,-2.28 0.169,0.006 0,0" /></g><g
               transform="translate(135.5231,348.4509)"
               id="g590"><path
                 id="path592"
                 style="fill:#375a64;fill-opacity:1;fill-rule:nonzero;stroke:none"
                 d="M 0,0 C -0.12,0.06 -0.874,-1.984 -0.378,-4.535 0.09,-7.092 1.541,-8.748 1.631,-8.651 1.775,-8.567 0.594,-6.864 0.155,-4.441 -0.319,-2.026 0.165,-0.03 0,0" /></g><g
               transform="translate(104.1911,268.2697)"
               id="g594"><path
                 id="path596"
                 style="fill:#ff4f5b;fill-opacity:1;fill-rule:nonzero;stroke:none"
                 d="m 0,0 v -24.03 c 0,0 17.972,-39.78 17.972,-39.174 0,0.606 6.426,25.111 6.426,25.111 L 17.164,-18.981 16.478,-6.502 1.615,23.222 c 0,0 -3.691,-19.991 -3.085,-21.202 C -0.864,0.808 0,0 0,0" /></g><g
               transform="translate(126.6051,315.9255)"
               id="g598"><path
                 id="path600"
                 style="fill:#ff4f5b;fill-opacity:1;fill-rule:nonzero;stroke:none"
                 d="m 0,0 c 0,0 -16.356,-8.481 -18.375,-11.106 -2.02,-2.625 -2.424,-13.328 -2.424,-13.328 L 0,-66.031 1.01,-82.791 c 0,0 -6.26,-13.056 -6.26,-22.178 v -1.045 l -1.01,-12.519 25.04,-2.221 c 0,0 1.413,6.865 1.413,6.26 0,-0.607 1.817,-6.26 1.817,-6.26 h 41.348 l -1.533,27.566 -7.053,42.564 c 0,0 3.005,24.404 3.153,25.295 0.263,1.585 26.482,13.213 26.482,13.213 l 12.345,6.669 c 3.217,1.739 5.223,5.101 5.223,8.758 0,3.785 -2.146,7.242 -5.538,8.921 L 61.589,29.481 53.479,15.844 64.094,9.025 71.708,3.758 50.591,1.766 c 0,0 -3.743,4.898 -5.359,4.898 -1.615,0 -14.539,-3.029 -14.539,-3.029 l 0.203,3.23 c 0,0 -3.434,3.837 -7.27,3.635 C 19.789,10.298 3.635,5.654 3.635,5.654 Z" /></g><g
               transform="translate(185.3195,340.5734)"
               id="g602"><path
                 id="path604"
                 style="fill:#ffbf9d;fill-opacity:1;fill-rule:nonzero;stroke:none"
                 d="m 0,0 v 0 l -9.085,5.292 -13.836,7.498 c 0,0 -4.56,3.459 -6.356,3.353 -1.796,-0.105 -3.63,-2.106 -3.718,-2.545 -0.082,-0.413 0.666,-1.169 1.828,-0.852 0.38,0.104 1.436,0.867 2.048,0.747 1.261,-0.246 2.292,-1.287 2.577,-1.855 0.422,-0.846 -0.498,-0.96 -0.498,-0.96 0,0 -7.828,1.977 -10.747,0.402 -0.693,-0.374 -1.091,-1.192 -0.792,-1.92 0.211,-0.515 0.766,-0.964 2.139,-0.7 2.746,0.528 7.288,-1.585 7.288,-1.585 0,0 -10.154,0.334 -11.902,-0.537 -0.681,-0.34 -1.433,-2.563 0.63,-2.787 2.447,-0.267 7.258,-0.161 7.258,-0.161 0,0 4.541,-0.634 3.802,-1.478 -0.739,-0.845 -7.693,-0.925 -8.221,-1.031 -0.528,-0.106 -2.894,0 -2.763,-1.927 0.073,-1.085 2.108,-1.774 4.753,-1.69 2.239,0.072 9.189,0.212 10.033,-1.056 0.845,-1.267 0.261,-2.194 -0.373,-2.511 -0.634,-0.317 -5.421,-0.994 -6.19,-0.994 -0.929,0 -2.13,-1.692 0.108,-2.238 2.433,-0.593 4.494,-0.11 6.607,-0.11 2.112,0 4.812,-0.167 10.727,2.157 0,0 4.004,1.803 9.448,-1.316 z" /></g><g
               transform="translate(156.3244,319.4265)"
               id="g606"><path
                 id="path608"
                 style="fill:#1a2e35;fill-opacity:1;fill-rule:nonzero;stroke:none"
                 d="m 0,0 c 0.017,-0.143 -6.375,-1.036 -14.277,-1.994 -7.904,-0.958 -14.323,-1.619 -14.34,-1.476 -0.017,0.143 6.374,1.035 14.278,1.993 C -6.438,-0.519 -0.018,0.143 0,0" /></g><g
               transform="translate(154.8996,230.9753)"
               id="g610"><path
                 id="path612"
                 style="fill:#1a2e35;fill-opacity:1;fill-rule:nonzero;stroke:none"
                 d="m 0,0 c -0.014,0.011 0.108,0.209 0.354,0.576 0.281,0.408 0.644,0.938 1.095,1.594 0.969,1.37 2.332,3.38 3.972,5.89 1.647,2.506 3.522,5.546 5.515,8.973 1.969,3.44 4.043,7.273 6.063,11.377 2.003,4.114 3.759,8.105 5.269,11.771 1.484,3.676 2.735,7.021 3.704,9.859 0.977,2.835 1.728,5.145 2.216,6.75 0.242,0.758 0.437,1.37 0.586,1.842 0.14,0.419 0.222,0.638 0.239,0.633 0.017,-0.005 -0.031,-0.233 -0.138,-0.662 -0.126,-0.479 -0.289,-1.1 -0.492,-1.871 -0.429,-1.624 -1.127,-3.954 -2.062,-6.81 C 25.395,47.063 24.176,43.697 22.712,40.001 21.224,36.315 19.476,32.307 17.467,28.181 15.441,24.065 13.348,20.227 11.35,16.792 9.33,13.369 7.418,10.342 5.728,7.856 4.046,5.367 2.634,3.386 1.614,2.051 1.129,1.418 0.739,0.908 0.438,0.515 0.165,0.167 0.015,-0.011 0,0" /></g><g
               transform="translate(120.9635,205.0593)"
               id="g614"><path
                 id="path616"
                 style="fill:#1a2e35;fill-opacity:1;fill-rule:nonzero;stroke:none"
                 d="m 0,0 c -0.015,0.001 -0.006,0.191 0.024,0.557 0.038,0.408 0.089,0.939 0.152,1.602 0.155,1.396 0.436,3.425 0.891,5.956 0.93,5.058 2.589,12.119 5.35,20.046 L 6.402,28.06 C 6.189,31.538 5.959,35.293 5.722,39.177 5.606,41.11 5.493,43.011 5.384,44.819 l 0.029,-0.103 c -4.443,8.672 -8.129,16.447 -10.639,22.083 -1.261,2.816 -2.213,5.102 -2.856,6.681 -0.294,0.76 -0.529,1.366 -0.708,1.826 -0.156,0.418 -0.231,0.64 -0.215,0.646 0.015,0.006 0.119,-0.203 0.304,-0.61 0.2,-0.45 0.462,-1.045 0.791,-1.79 0.695,-1.555 1.695,-3.817 2.996,-6.611 2.59,-5.592 6.331,-13.336 10.785,-21.987 L 5.896,44.905 5.899,44.851 C 6.009,43.042 6.124,41.142 6.242,39.209 6.472,35.323 6.694,31.568 6.901,28.09 L 6.904,28.039 6.886,27.988 C 4.11,20.115 2.388,13.079 1.377,8.056 0.88,5.54 0.551,3.523 0.344,2.137 0.248,1.479 0.17,0.952 0.11,0.547 0.052,0.186 0.015,-0.002 0,0" /></g><g
               transform="translate(148.1574,213.2165)"
               id="g618"><path
                 id="path620"
                 style="fill:#1a2e35;fill-opacity:1;fill-rule:nonzero;stroke:none"
                 d="m 0,0 c 0.143,-0.021 -0.353,-4.133 -1.105,-9.183 -0.753,-5.051 -1.479,-9.129 -1.621,-9.107 -0.143,0.021 0.352,4.132 1.105,9.184 C -0.868,-4.057 -0.142,0.021 0,0" /></g><g
               transform="translate(177.7946,298.1066)"
               id="g622"><path
                 id="path624"
                 style="fill:#1a2e35;fill-opacity:1;fill-rule:nonzero;stroke:none"
                 d="m 0,0 c -0.031,-0.019 -0.218,0.239 -0.53,0.723 -0.317,0.48 -0.735,1.202 -1.212,2.113 -0.958,1.822 -2.091,4.45 -2.936,7.484 -0.839,3.036 -1.221,5.874 -1.337,7.929 -0.06,1.027 -0.074,1.86 -0.05,2.436 0.019,0.575 0.046,0.892 0.083,0.892 0.084,10e-4 0.122,-1.267 0.334,-3.298 0.209,-2.029 0.644,-4.821 1.472,-7.82 0.834,-2.997 1.898,-5.612 2.764,-7.46 C -0.548,1.149 0.072,0.042 0,0" /></g><g
               id="g626"><g
                 id="g628" /><g
                 id="g640"><g
                   id="g638"
                   opacity="0.300003"
                   clip-path="url(#clipPath632)"><g
                     id="g636"
                     transform="translate(156.027,232.9118)"><path
                       id="path634"
                       style="fill:#000000;fill-opacity:1;fill-rule:nonzero;stroke:none"
                       d="M 0,0 C 1.999,-0.983 4.457,-0.634 6.42,0.419 8.384,1.472 9.937,3.144 11.36,4.857 21.789,17.419 27.141,34.078 25.98,50.363 20.087,32.82 11.57,16.162 0.8,1.112" /></g></g></g></g><g
               id="g642"><g
                 id="g644" /><g
                 id="g656"><g
                   id="g654"
                   opacity="0.300003"
                   clip-path="url(#clipPath648)"><g
                     id="g652"
                     transform="translate(112.8219,278.9216)"><path
                       id="path650"
                       style="fill:#000000;fill-opacity:1;fill-rule:nonzero;stroke:none"
                       d="m 0,0 c -0.821,0.963 -2.062,1.953 -3.261,2.355 -1.2,0.404 -2.793,-0.078 -3.134,-1.297 -0.188,-0.675 0.038,-1.39 0.263,-2.054 1.926,-5.689 3.924,-11.51 7.703,-16.178 0.644,-0.795 1.5,-1.337 2.364,-1.887 0.9,-0.573 3.354,-1.066 3.695,-0.102 0.2,0.563 0.135,1.922 -0.014,2.5 0,0 -5.386,10.971 -7.975,16.647" /></g></g></g></g><g
               id="g658"><g
                 id="g660" /><g
                 id="g672"><g
                   id="g670"
                   opacity="0.300003"
                   clip-path="url(#clipPath664)"><g
                     id="g668"
                     transform="translate(198.1276,319.738)"><path
                       id="path666"
                       style="fill:#000000;fill-opacity:1;fill-rule:nonzero;stroke:none"
                       d="M 0,0 C 2.733,-0.536 4.599,-0.545 7.301,0.129 3.555,2.972 -1.334,3.589 -5.994,4.22 L 0,0" /></g></g></g></g><g
               transform="translate(213.5651,319.322)"
               id="g674"><path
                 id="path676"
                 style="fill:#1a2e35;fill-opacity:1;fill-rule:nonzero;stroke:none"
                 d="m 0,0 c -0.006,-0.073 -0.893,-0.064 -2.323,-0.022 -1.628,0.047 -3.507,0.101 -5.582,0.161 -2.076,0.035 -3.956,0.067 -5.585,0.094 -1.43,0.023 -2.317,0.055 -2.319,0.128 -0.003,0.071 0.88,0.169 2.313,0.24 1.433,0.072 3.414,0.108 5.603,0.059 C -5.706,0.609 -3.728,0.482 -2.3,0.345 -0.872,0.209 0.006,0.07 0,0" /></g><g
               transform="translate(110.0246,252.0524)"
               id="g678"><path
                 id="path680"
                 style="fill:#1a2e35;fill-opacity:1;fill-rule:nonzero;stroke:none"
                 d="M 0,0 C 0.049,0.056 0.529,-0.301 1.285,-0.884 2.042,-1.458 3.085,-2.27 4.39,-2.83 5.692,-3.384 7.012,-3.463 7.914,-3.289 8.827,-3.125 9.328,-2.787 9.375,-2.862 9.413,-2.9 8.967,-3.37 7.997,-3.647 7.041,-3.933 5.59,-3.908 4.187,-3.31 2.792,-2.709 1.751,-1.817 1.047,-1.166 0.343,-0.503 -0.046,-0.052 0,0" /></g><g
               id="g682"><g
                 id="g684" /><g
                 id="g696"><g
                   id="g694"
                   opacity="0.300003"
                   clip-path="url(#clipPath688)"><g
                     id="g692"
                     transform="translate(148.1574,211.3278)"><path
                       id="path690"
                       style="fill:#000000;fill-opacity:1;fill-rule:nonzero;stroke:none"
                       d="M 0,0 4.92,-16.156 H 0.458 l -2.064,7.265 z" /></g></g></g></g></g></g></g><text
         xml:space="preserve"
         style="font-style:normal;font-weight:normal;font-size:18.4124px;line-height:1.25;font-family:sans-serif;fill:#b33740;fill-opacity:1;stroke:none;stroke-width:0.46031"
         x="50.185871"
         y="-60.826092"
         id="text998"
         transform="scale(1,-1)"><tspan
           sodipodi:role="line"
           id="tspan996"
           x="50.185871"
           y="-60.826092"
           style="fill:#b33740;fill-opacity:1;stroke-width:0.46031">Tidak ada alamat pengiriman yang tersedia!</tspan></text></g></g></svg>
