<?xml version="1.0" encoding="UTF-8" standalone="no"?>
<svg
   xmlns:dc="http://purl.org/dc/elements/1.1/"
   xmlns:cc="http://creativecommons.org/ns#"
   xmlns:rdf="http://www.w3.org/1999/02/22-rdf-syntax-ns#"
   xmlns:svg="http://www.w3.org/2000/svg"
   xmlns="http://www.w3.org/2000/svg"
   xmlns:sodipodi="http://sodipodi.sourceforge.net/DTD/sodipodi-0.dtd"
   xmlns:inkscape="http://www.inkscape.org/namespaces/inkscape"
   version="1.1"
   id="svg16"
   width="266.66666"
   height="266.66666"
   viewBox="0 0 266.66666 266.66666"
   sodipodi:docname="barcode-scan-icon.svg"
   inkscape:version="1.0 (4035a4fb49, 2020-05-01)">
  <metadata
     id="metadata22">
    <rdf:RDF>
      <cc:Work
         rdf:about="">
        <dc:format>image/svg+xml</dc:format>
        <dc:type
           rdf:resource="http://purl.org/dc/dcmitype/StillImage" />
        <dc:title />
      </cc:Work>
    </rdf:RDF>
  </metadata>
  <defs
     id="defs20" />
  <sodipodi:namedview
     inkscape:document-rotation="0"
     pagecolor="#ffffff"
     bordercolor="#666666"
     borderopacity="1"
     objecttolerance="10"
     gridtolerance="10"
     guidetolerance="10"
     inkscape:pageopacity="0"
     inkscape:pageshadow="2"
     inkscape:window-width="1366"
     inkscape:window-height="706"
     id="namedview18"
     showgrid="false"
     inkscape:zoom="2.0175"
     inkscape:cx="112.63361"
     inkscape:cy="104.34847"
     inkscape:window-x="-8"
     inkscape:window-y="-8"
     inkscape:window-maximized="1"
     inkscape:current-layer="g24" />
  <g
     inkscape:groupmode="layer"
     inkscape:label="Image"
     id="g24">
    <path
       style="fill:#ffffff;stroke-width:1.33333"
       d="m 13.828995,201.04961 v -18.74714 l 5,0.41381 5,0.41383 0.38104,12.95229 0.381041,12.95229 12.952292,0.38104 12.952293,0.38104 0.41382,5 0.413821,5 H 32.576148 13.828995 Z m 202.919505,13.74716 0.41383,-5 12.95229,-0.38104 12.9523,-0.38104 0.38104,-12.95229 0.38104,-12.95229 5,-0.41383 5,-0.41381 v 18.74714 18.74716 H 235.08184 216.33469 Z M 45.828994,165.13011 v -22.66667 h 4.666667 4.666666 v 22.66667 22.66666 h -4.666666 -4.666667 z m 20,0 V 142.46344 H 76.49566 87.162322 v 22.66667 22.66666 H 76.49566 65.828994 Z m 30.666672,0 v -22.66667 h 5.333334 5.33333 v 22.66667 22.66666 H 101.829 96.495666 Z m 21.333334,0 v -22.66667 h 5.33333 5.33334 v 22.66667 22.66666 h -5.33334 -5.33333 z m 20,0 v -22.66667 h 10.66667 10.66666 v 22.66667 22.66666 H 148.49567 137.829 Z m 32,0 v -22.66667 h 4.66667 4.66666 v 22.66667 22.66666 h -4.66666 -4.66667 z m 20,0 v -22.66667 h 5.33333 5.33333 v 22.66667 22.66666 h -5.33333 -5.33333 z m 21.33333,0 v -22.66667 h 5.33333 5.33334 v 22.66667 22.66666 h -5.33334 -5.33333 z m -177.333336,-38 v -6 h 99.333336 99.33333 v 6 6 H 133.16233 33.828994 Z m 12,-38 V 66.463443 h 4.666667 4.666666 v 22.666667 22.66666 h -4.666666 -4.666667 z m 20,0 V 66.463443 H 76.49566 87.162322 V 89.13011 111.79677 H 76.49566 65.828994 Z m 30.666672,0 V 66.463443 h 5.333334 5.33333 V 89.13011 111.79677 H 101.829 96.495666 Z m 21.333334,0 V 66.463443 h 5.33333 5.33334 v 22.666667 22.66666 h -5.33334 -5.33333 z m 20,0 V 66.463443 h 10.66667 10.66666 V 89.13011 111.79677 H 148.49567 137.829 Z m 32,0 V 66.463443 h 4.66667 4.66666 v 22.666667 22.66666 h -4.66666 -4.66667 z m 20,0 V 66.463443 h 5.33333 5.33333 v 22.666667 22.66666 h -5.33333 -5.33333 z m 21.33333,0 V 66.463443 h 5.33333 5.33334 v 22.666667 22.66666 h -5.33334 -5.33333 z M 13.828995,51.877264 V 33.130111 h 18.747153 18.747154 l -0.413821,5 -0.41382,5 -12.952293,0.38104 -12.952292,0.381041 -0.381041,12.952292 -0.38104,12.952293 -5,0.41382 -5,0.413821 z m 230.222225,17.69729 c -0.48889,-0.488888 -0.88889,-6.467161 -0.88889,-13.28505 V 43.893343 l -13,-0.381616 -13,-0.381616 -0.41383,-5 -0.41381,-5 h 18.74715 18.74716 v 18.666666 18.666666 h -4.44444 c -2.44446,0 -4.84446,-0.4 -5.33334,-0.888889 z"
       id="path28" />
  </g>
</svg>
